<?xml version="1.0" encoding="UTF-8"?>
<svg version="1.1" xmlns="http://www.w3.org/2000/svg" width="128" height="128">
<path d="M0 0 C1.32 0 2.64 0 4 0 C4 2.64 4 5.28 4 8 C8.62 8 13.24 8 18 8 C18 5.36 18 2.72 18 0 C19.32 0 20.64 0 22 0 C22 2.64 22 5.28 22 8 C26.62 8 31.24 8 36 8 C36 5.36 36 2.72 36 0 C37.32 0 38.64 0 40 0 C40 2.64 40 5.28 40 8 C42.64 8 45.28 8 48 8 C48 10.64 48 13.28 48 16 C50.64 16 53.28 16 56 16 C56 17.32 56 18.64 56 20 C53.36 20 50.72 20 48 20 C48 24.62 48 29.24 48 34 C50.64 34 53.28 34 56 34 C56 35.32 56 36.64 56 38 C53.36 38 50.72 38 48 38 C48 42.62 48 47.24 48 52 C50.64 52 53.28 52 56 52 C56 53.32 56 54.64 56 56 C53.36 56 50.72 56 48 56 C48 58.64 48 61.28 48 64 C45.36 64 42.72 64 40 64 C40 66.64 40 69.28 40 72 C38.68 72 37.36 72 36 72 C36 69.36 36 66.72 36 64 C31.38 64 26.76 64 22 64 C22 66.64 22 69.28 22 72 C20.68 72 19.36 72 18 72 C18 69.36 18 66.72 18 64 C13.38 64 8.76 64 4 64 C4 66.64 4 69.28 4 72 C2.68 72 1.36 72 0 72 C0 69.36 0 66.72 0 64 C-2.64 64 -5.28 64 -8 64 C-8 61.36 -8 58.72 -8 56 C-10.64 56 -13.28 56 -16 56 C-16 54.68 -16 53.36 -16 52 C-13.36 52 -10.72 52 -8 52 C-8 47.38 -8 42.76 -8 38 C-10.64 38 -13.28 38 -16 38 C-16 36.68 -16 35.36 -16 34 C-13.36 34 -10.72 34 -8 34 C-8 29.38 -8 24.76 -8 20 C-10.64 20 -13.28 20 -16 20 C-16 18.68 -16 17.36 -16 16 C-13.36 16 -10.72 16 -8 16 C-8 13.36 -8 10.72 -8 8 C-5.36 8 -2.72 8 0 8 C0 5.36 0 2.72 0 0 Z M30 22 C30 23.32 30 24.64 30 26 C30.66 26 31.32 26 32 26 C32 32.6 32 39.2 32 46 C31.01 46.33 30.02 46.66 29 47 C29.33 47.99 29.66 48.98 30 50 C32.64 50 35.28 50 38 50 C38 48.68 38 47.36 38 46 C37.34 46 36.68 46 36 46 C36 39.4 36 32.8 36 26 C36.99 25.67 37.98 25.34 39 25 C38.67 24.01 38.34 23.02 38 22 C35.36 22 32.72 22 30 22 Z M11 23 C8.26533056 28.1538001 5.93829108 33.40930413 3.75 38.8125 C3.47978027 39.47064697 3.20956055 40.12879395 2.93115234 40.80688477 C1.7759955 43.69774833 1 45.85657667 1 49 C1.99 48.67 2.98 48.34 4 48 C4.66 46.35 5.32 44.7 6 43 C9.96 43 13.92 43 18 43 C18.99 44.98 19.98 46.96 21 49 C21.66 49 22.32 49 23 49 C22.38353395 43.29301881 20.33719857 38.42462242 18.125 33.1875 C17.77308594 32.31673828 17.42117187 31.44597656 17.05859375 30.54882812 C16.71183594 29.72189453 16.36507812 28.89496094 16.0078125 28.04296875 C15.69473145 27.29039795 15.38165039 26.53782715 15.05908203 25.76245117 C14.05364439 23.65661423 14.05364439 23.65661423 11 23 Z " fill="#0B5ADB" transform="translate(44,28)"/>
<path d="M0 0 C2.5 1.5 2.5 1.5 4 4 C4.39233364 7.08962745 4.63779816 9.04943843 4 12 C3.278125 12.78375 2.55625 13.5675 1.8125 14.375 C-0.25087252 16.76521128 -0.25087252 16.76521128 0.19140625 19.140625 C3.31028613 30.47552559 9.54264344 42.02356764 19.921875 48.13085938 C23.39992092 50.00191926 26.9385315 51.71555522 30.5234375 53.37109375 C34 55 34 55 37 57 C36.34 58.32 35.68 59.64 35 61 C21.45666749 57.71502148 9.95252579 50.33862401 2.1875 38.625 C-2.09738428 31.4470732 -5.27183667 24.37387826 -6 16 C-6.804375 15.71125 -7.60875 15.4225 -8.4375 15.125 C-11 14 -11 14 -12 12 C-12.56872038 4.9478673 -12.56872038 4.9478673 -10.5 1.5 C-6.96411027 -0.62153384 -4.02098277 -0.791013 0 0 Z M-6 5 C-6.33 6.65 -6.66 8.3 -7 10 C-4.525 10.495 -4.525 10.495 -2 11 C-1.67 9.35 -1.34 7.7 -1 6 C-2.65 5.67 -4.3 5.34 -6 5 Z " fill="#0B59DA" transform="translate(16,56)"/>
<path d="M0 0 C13.54333251 3.28497852 25.04747421 10.66137599 32.8125 22.375 C37.09738428 29.5529268 40.27183667 36.62612174 41 45 C42.2065625 45.433125 42.2065625 45.433125 43.4375 45.875 C46 47 46 47 47 49 C47.56872038 56.0521327 47.56872038 56.0521327 45.5 59.5 C41.96411027 61.62153384 39.02098277 61.791013 35 61 C32.5 59.5 32.5 59.5 31 57 C30.60766636 53.91037255 30.36220184 51.95056157 31 49 C31.721875 48.21625 32.44375 47.4325 33.1875 46.625 C35.25087252 44.23478872 35.25087252 44.23478872 34.80859375 41.859375 C31.68971387 30.52447441 25.45735656 18.97643236 15.078125 12.86914062 C11.60007908 10.99808074 8.0614685 9.28444478 4.4765625 7.62890625 C1 6 1 6 -2 4 C-1.34 2.68 -0.68 1.36 0 0 Z M37 50 C36.67 51.65 36.34 53.3 36 55 C38.475 55.495 38.475 55.495 41 56 C41.33 54.35 41.66 52.7 42 51 C40.35 50.67 38.7 50.34 37 50 Z " fill="#0B59DB" transform="translate(77,11)"/>
<path d="M0 0 C2.5 1.5 2.5 1.5 4 4 C4.791013 8.02098277 4.62153384 10.96411027 2.5 14.5 C-0.98424313 16.59054588 -4.02980642 16.87858146 -8 16 C-8.639375 15.29875 -9.27875 14.5975 -9.9375 13.875 C-10.9584375 12.946875 -10.9584375 12.946875 -12 12 C-22.8791549 12.86342499 -33.55266364 19.33800631 -40.9296875 27.19140625 C-44.43309556 31.94414285 -46.90306637 37.17701422 -49.37109375 42.5234375 C-51 46 -51 46 -53 49 C-54.32 48.34 -55.64 47.68 -57 47 C-53.71502148 33.45666749 -46.33862401 21.95252579 -34.625 14.1875 C-27.4470732 9.90261572 -20.37387826 6.72816333 -12 6 C-11.71125 5.195625 -11.4225 4.39125 -11.125 3.5625 C-9.03545682 -1.19701503 -4.65145665 -0.63428954 0 0 Z M-6 5 C-6.33 6.65 -6.66 8.3 -7 10 C-4.525 10.495 -4.525 10.495 -2 11 C-1.67 9.35 -1.34 7.7 -1 6 C-2.65 5.67 -4.3 5.34 -6 5 Z " fill="#0B59DB" transform="translate(68,4)"/>
<path d="M0 0 C1.32 0.66 2.64 1.32 4 2 C0.58447791 16.08153843 -7.17322072 27.34948164 -19.25 35.39453125 C-26.03042596 39.35299015 -33.11377434 42.4623028 -41 43 C-41.433125 44.2065625 -41.433125 44.2065625 -41.875 45.4375 C-43 48 -43 48 -45 49 C-52.0521327 49.56872038 -52.0521327 49.56872038 -55.5 47.5 C-57.62153384 43.96411027 -57.791013 41.02098277 -57 37 C-55.5 34.5 -55.5 34.5 -53 33 C-50.22566942 32.45423005 -47.76720704 32.38763268 -45 33 C-44.360625 33.70125 -43.72125 34.4025 -43.0625 35.125 C-42.0415625 36.053125 -42.0415625 36.053125 -41 37 C-30.1208451 36.13657501 -19.44733636 29.66199369 -12.0703125 21.80859375 C-8.56690444 17.05585715 -6.09693363 11.82298578 -3.62890625 6.4765625 C-2 3 -2 3 0 0 Z M-51 38 C-51.33 39.65 -51.66 41.3 -52 43 C-49.525 43.495 -49.525 43.495 -47 44 C-46.67 42.35 -46.34 40.7 -46 39 C-47.65 38.67 -49.3 38.34 -51 38 Z " fill="#0B59DA" transform="translate(113,75)"/>
<path d="M0 0 C0.66 0 1.32 0 2 0 C2.99 2.97 3.98 5.94 5 9 C2.36 9 -0.28 9 -3 9 C-2.01 6.03 -1.02 3.06 0 0 Z " fill="#0B5ADB" transform="translate(55,57)"/>
</svg>
