<?xml version="1.0" encoding="UTF-8"?>
<svg version="1.1" xmlns="http://www.w3.org/2000/svg" width="2186" height="842">
<path d="M0 0 C3.77016416 1.25672139 4.00711403 2.29562331 5.86328125 5.72265625 C6.68807983 7.2243335 6.68807983 7.2243335 7.52954102 8.75634766 C8.41210571 10.39289307 8.41210571 10.39289307 9.3125 12.0625 C10.57621478 14.364331 11.84188981 16.66508674 13.109375 18.96484375 C13.43249161 19.5530188 13.75560822 20.14119385 14.08851624 20.74719238 C17.31112269 26.60032695 20.67461316 32.36649682 24.0625 38.125 C29.16660627 46.82164734 34.16668748 55.57028705 39.10791016 64.36035156 C42.98325896 71.23918358 46.94220511 78.06524182 50.9375 84.875 C55.72109579 93.03150813 60.40113227 101.2379649 65 109.5 C70.09757221 118.6557647 75.31084708 127.73444926 80.61157227 136.77392578 C85.10551337 144.44486563 89.53472079 152.15150302 93.9375 159.875 C99.10054499 168.93089585 104.2837369 177.97460062 109.5 187 C114.66838961 195.94549873 119.81416867 204.90363153 124.9375 213.875 C125.2659491 214.45006287 125.59439819 215.02512573 125.93280029 215.61761475 C129.37800965 221.65016723 132.82035773 227.68434754 136.26045227 233.71981812 C137.70152681 236.2476576 139.14344612 238.77501466 140.58547974 241.30230713 C141.59030822 243.06417149 142.59388268 244.82675086 143.59741211 246.58935547 C147.31774043 253.10971783 151.10419208 259.58284398 155 266 C159.14029426 261.38235416 161.66195106 256.11384942 164.4375 250.625 C168.61772214 242.47667096 172.94689683 234.4458663 177.5 226.5 C181.83903681 218.9158771 185.99981341 211.26817237 190 203.5 C194.50660173 194.74839347 199.25727457 186.16899267 204.14453125 177.625 C207.92002934 170.99309882 211.50633604 164.28415438 215 157.5 C218.88244209 149.96420401 222.90908862 142.54180695 227.125 135.1875 C232.63470662 125.56908795 237.84433549 115.81073463 243 106 C248.64772204 95.25292713 254.41040441 84.60061588 260.44921875 74.06640625 C264.66074107 66.68824563 268.58819022 59.18294394 272.47753906 51.63110352 C276.54641989 43.77125258 280.86212598 36.07000048 285.26318359 28.39208984 C289.33753599 21.25919602 293.18954409 14.03108086 296.84228516 6.67285156 C299.67593216 1.10802261 299.67593216 1.10802261 303 0 C307.2098299 17.27046874 311.41810083 34.54131713 315.625 51.8125 C315.86229529 52.78669396 315.86229529 52.78669396 316.10438442 53.7805686 C324.74929017 89.27193193 333.37639756 124.76749345 341.95190048 160.27570343 C343.07994873 164.94609897 344.20856779 169.61635655 345.3371582 174.28662109 C345.78216206 176.12818361 346.22716431 177.96974651 346.67216492 179.81130981 C346.89018957 180.71356419 347.10821423 181.61581856 347.33284569 182.54541397 C347.54913942 183.44050549 347.76543316 184.335597 347.98828125 185.2578125 C348.20262629 186.1448373 348.41697132 187.03186211 348.63781166 187.94576645 C349.27499515 190.58265572 349.91216088 193.21954928 350.54931641 195.85644531 C350.75560637 196.71017038 350.96189634 197.56389545 351.17443752 198.44349098 C352.3579077 203.34155101 353.54076777 208.23975787 354.72315407 213.13807964 C364.61256917 254.10488506 374.72463262 295.01206704 384.97753906 335.88946533 C393.18025481 368.59513139 401.26020475 401.32860963 409.19983196 434.09915638 C409.98679975 437.34680923 410.7747995 440.5942114 411.56277657 443.84161949 C412.08853334 446.0111588 412.61224856 448.18118262 413.13572693 450.35127258 C414.41631272 455.64035572 415.69645463 460.92672864 417.12997437 466.17684937 C417.40887024 467.19969544 417.40887024 467.19969544 417.69340038 468.24320507 C418.21074737 470.12584322 418.73593679 472.00632125 419.26164246 473.88664246 C420 477 420 477 420 481 C363.24 481 306.48 481 248 481 C243.40510214 462.62040856 243.40510214 462.62040856 241.52416992 454.24560547 C241.30649019 453.2834506 241.08881046 452.32129574 240.86453438 451.32998466 C240.1514514 448.17610641 239.4409513 445.02165248 238.73046875 441.8671875 C238.21575079 439.58836325 237.70086903 437.30957599 237.18583679 435.03082275 C235.80391413 428.91424486 234.42428253 422.79715257 233.04531097 416.67990875 C231.60475292 410.29016543 230.162898 403.90071473 228.72119141 397.51123047 C228.13304746 394.9045736 227.54490945 392.2979154 226.95678711 389.69125366 C226.73714967 388.71779312 226.73714967 388.71779312 226.51307511 387.72466671 C225.61793108 383.75711645 224.72307936 379.78950036 223.82842374 375.82183993 C219.89776566 358.39043802 215.95246582 340.96241848 211.99562263 323.53693771 C210.38651274 316.44784168 208.78035681 309.35807587 207.17442608 302.26825905 C205.9011866 296.64824725 204.626023 291.02868621 203.3465271 285.41009521 C202.15173877 280.16326842 200.96189882 274.91534451 199.77588844 269.66652679 C199.34185334 267.74989967 198.90595342 265.83369375 198.46805382 263.91794586 C197.87333046 261.31504099 197.28520933 258.71072989 196.69873047 256.10595703 C196.52445117 255.35056578 196.35017187 254.59517452 196.17061138 253.81689262 C195.35233842 250.14963647 194.79966191 246.76139224 195 243 C194.34 243 193.68 243 193 243 C192.73606445 243.86592773 192.47212891 244.73185547 192.20019531 245.62402344 C191.00106194 248.99701293 189.54589326 251.89583466 187.796875 255.015625 C187.48271133 255.58000275 187.16854767 256.14438049 186.84486389 256.7258606 C186.16946991 257.93814327 185.49183727 259.14918099 184.81216431 260.35906982 C182.98826509 263.60608731 181.18064634 266.86215997 179.37109375 270.1171875 C179.00227585 270.77961456 178.63345795 271.44204163 178.25346375 272.12454224 C174.70590218 278.50573245 171.25380057 284.93587047 167.8125 291.375 C163.51898856 299.39438565 159.13484031 307.3503289 154.625 315.25 C149.21973685 324.71978873 144.07144338 334.3105947 138.9697876 343.94567871 C134.10342788 353.13053174 129.0952377 362.21505828 123.93359375 371.23828125 C119.10870626 379.71443494 114.53793687 388.3168206 109.97528076 396.93569946 C104.97975227 406.36620456 99.83487543 415.69421781 94.5402832 424.96118164 C89.47143291 433.85911758 84.70193415 442.90393326 80 452 C76.18474161 450.7282472 75.88560273 449.54933323 73.953125 446.09375 C73.36370117 445.05331543 72.77427734 444.01288086 72.16699219 442.94091797 C71.53438477 441.80541504 70.90177734 440.66991211 70.25 439.5 C68.88987238 437.09381844 67.52282599 434.69158611 66.15625 432.2890625 C65.80834412 431.67547882 65.46043823 431.06189514 65.10198975 430.42971802 C61.74567733 424.52104528 58.26384044 418.69125797 54.75 412.875 C49.40759581 404.01740977 44.10780831 395.13613217 38.83764648 386.23547363 C32.37615431 375.32300592 25.85934458 364.44855273 19.25 353.625 C13.18455498 343.69060513 7.29972055 333.66325827 1.51367188 323.56347656 C-3.24545093 315.26893359 -8.1249113 307.05364638 -13.06567383 298.86621094 C-16.77140997 292.72275815 -20.44873268 286.56405356 -24.09765625 280.38671875 C-24.53087189 279.65398743 -24.96408752 278.9212561 -25.41043091 278.1663208 C-28.86700765 272.31955545 -28.86700765 272.31955545 -30.58728027 269.3961792 C-31.78084216 267.3680377 -32.97798793 265.3420507 -34.17578125 263.31640625 C-34.53342056 262.70617111 -34.89105988 262.09593597 -35.25953674 261.46720886 C-36.6933464 259.04829171 -38.00224824 256.99775176 -40 255 C-49.40526343 296.11904201 -58.23165975 337.33711197 -66.5625 378.6875 C-66.98685258 380.79082326 -67.41120963 382.89414561 -67.83557129 384.99746704 C-69.06277173 391.08466703 -70.2851737 397.17281791 -71.50390625 403.26171875 C-71.69899654 404.23619524 -71.89408684 405.21067173 -72.09508896 406.21467781 C-74.11362448 416.3139218 -76.09607009 426.41793042 -77.96826172 436.54541016 C-78.12370799 437.38289826 -78.27915426 438.22038637 -78.43931103 439.08325291 C-79.15502593 442.94416898 -79.86270778 446.80614597 -80.55238342 450.67179871 C-81.89770429 458.09194684 -83.49012938 465.43001267 -85.38891602 472.72924805 C-85.66494738 473.85777427 -85.66494738 473.85777427 -85.94655514 475.00909901 C-87.27761639 479.90596974 -88.97818646 482.67786878 -93 486 C-98.19975098 488.66033771 -103.43953686 488.37855076 -109 487 C-112.125 485.125 -112.125 485.125 -114 482 C-115.6723727 471.90984377 -112.02811612 461.37778251 -109.62890625 451.671875 C-109.1586875 449.72989246 -108.68958623 447.78763906 -108.22151184 445.84513855 C-106.94943368 440.57965855 -105.66195381 435.3180531 -104.37175751 430.05698776 C-103.0031225 424.46413359 -101.64905423 418.86775423 -100.29345703 413.27172852 C-98.01758184 403.88451879 -95.73333361 394.49938333 -93.44287109 385.11572266 C-90.15288769 371.63639014 -86.88064529 358.15279943 -83.61328125 344.66796875 C-82.57182974 340.3707358 -81.53022549 336.07353989 -80.48852539 331.77636719 C-80.23198276 330.71807268 -79.97544012 329.65977818 -79.71112347 328.56941414 C-77.09812483 317.79217457 -74.47867288 307.01650546 -71.85925102 296.24082565 C-67.7235537 279.22694042 -63.59568682 262.21120158 -59.484375 245.19140625 C-59.26198402 244.27076763 -59.03959305 243.35012901 -58.81046295 242.40159225 C-57.69309129 237.77566345 -56.57592537 233.14968498 -55.4588623 228.52368164 C-45.57173928 187.57917959 -35.62631978 146.64899034 -25.6652832 105.72241211 C-24.54376509 101.11442482 -23.42226569 96.50643298 -22.30078125 91.8984375 C-22.02831385 90.77894022 -21.75584644 89.65944294 -21.47512245 88.5060215 C-16.41005442 67.69414503 -11.35647375 46.8794984 -6.3125 26.0625 C-6.1428196 25.36223064 -5.97313919 24.66196129 -5.79831696 23.94047165 C-3.86475998 15.96050442 -1.93186119 7.98037794 0 0 Z " fill="#131112" transform="translate(114,0)"/>
<path d="M0 0 C20.41406668 -0.04721435 40.82812193 -0.08222628 61.24223232 -0.10362434 C70.72587879 -0.1138343 80.20949088 -0.12769139 89.69311523 -0.15087891 C97.98175477 -0.17113461 106.27036937 -0.18379051 114.55903298 -0.18817699 C118.9271629 -0.19073146 123.29522165 -0.19650497 127.66332817 -0.21146011 C146.38984713 -0.27289586 165.05897228 -0.01055819 183.76586914 0.89892578 C185.01507497 0.95854229 185.01507497 0.95854229 186.28951728 1.01936316 C211.29773482 2.24057072 236.85383509 4.03432801 261 11 C261.95729004 11.27295898 262.91458008 11.54591797 263.90087891 11.82714844 C290.57846208 19.62156741 313.31951564 32.42678343 333 52 C333.48065918 52.47663086 333.96131836 52.95326172 334.45654297 53.44433594 C346.77000141 65.83005147 355.95401448 80.5839205 364 96 C364.36834961 96.69867188 364.73669922 97.39734375 365.11621094 98.1171875 C391.68601221 149.18282464 395.99085492 210.32306094 379.04370117 265.09692383 C370.79528077 290.4720578 358.88419555 315.93636844 341 336 C340.26007813 336.84820312 339.52015625 337.69640625 338.7578125 338.5703125 C336.53924444 341.0805954 334.28125424 343.54665114 332 346 C331.32710937 346.73863281 330.65421875 347.47726562 329.9609375 348.23828125 C306.35113124 373.130268 272.47445423 385.53712542 239 389 C238.34 389.33 237.68 389.66 237 390 C272.69014344 417.2952214 311.2054051 437.56374325 354.65478516 449.6184082 C359.53675151 451.01936244 363.36934731 452.24389793 367 456 C368.50186547 460.50559641 368.71589695 464.34213337 366.8125 468.75 C364.11626774 472.09704694 361.45147773 473.75808704 357.1875 474.46875 C309.68729063 474.93443833 261.43891462 439.57322844 226 411 C225.36739258 410.49355957 224.73478516 409.98711914 224.08300781 409.46533203 C210.73991885 398.78231182 197.78619778 387.71396608 185.29296875 376.046875 C180.90372941 371.9856571 176.44480657 368.00032591 172 364 C171.67 397.66 171.34 431.32 171 466 C114.24 466 57.48 466 -1 466 C-1.03923103 414.76917219 -1.03923103 414.76917219 -1.03125 396.12158203 C-1.03069107 394.81493033 -1.03013214 393.50827862 -1.02955627 392.16203141 C-1.01029911 352.03369398 -0.89286509 311.90550891 -0.78125 271.77734375 C-0.77851342 270.79236391 -0.77577683 269.80738406 -0.77295732 268.79255635 C-0.70238088 243.41311822 -0.62899216 218.03368848 -0.55461788 192.65426123 C-0.51148187 177.92551526 -0.46911407 163.19676721 -0.42724609 148.46801758 C-0.4242591 147.41729814 -0.4212721 146.3665787 -0.41819459 145.28401928 C-0.40320027 140.00818621 -0.38821827 134.73235309 -0.37324238 129.45651996 C-0.25073563 86.30434107 -0.12611793 43.15216848 0 0 Z M172 25 C171.73526968 52.88387317 171.47437878 80.76778017 171.21769714 108.65172863 C171.0983518 121.60743549 170.9778667 134.56312966 170.85449219 147.51879883 C170.16225403 217.10384301 170.16225403 217.10384301 169.87706375 286.69139314 C169.87503688 288.82446523 169.87130698 290.95752824 169.86715698 293.09059715 C169.86029986 296.93060951 169.86279637 300.77057869 169.8671875 304.6105957 C169.86520859 305.67946077 169.86322968 306.74832584 169.8611908 307.84958076 C169.87827021 313.40974295 170.03952734 318.95490148 170.33447266 324.50749207 C170.39381989 325.64553882 170.45316711 326.78358557 170.51431274 327.95611858 C171.3085613 332.9338041 173.86572769 335.52661308 177.5 338.8125 C178.15911377 339.45920654 178.81822754 340.10591309 179.49731445 340.7722168 C180.90419125 342.14910747 182.32429633 343.51259282 183.75634766 344.86328125 C186.09832554 347.0936393 188.37165727 349.37918131 190.63671875 351.6875 C193.55237174 354.6535829 196.47049937 357.61627008 199.41796875 360.55078125 C200.01375732 361.14544189 200.6095459 361.74010254 201.22338867 362.3527832 C205.28848836 366.12181269 207.41625659 367.38061522 213.1015625 367.3984375 C214.90717651 367.40774292 214.90717651 367.40774292 216.74926758 367.41723633 C218.02825928 367.40329834 219.30725098 367.38936035 220.625 367.375 C221.93428467 367.36557373 223.24356934 367.35614746 224.5925293 367.34643555 C259.44324395 366.80689756 290.45906292 353.52587301 316 330 C316.79664063 329.28585937 317.59328125 328.57171875 318.4140625 327.8359375 C330.38463906 316.56183085 339.58535746 302.57776113 347 288 C347.34369629 287.33564941 347.68739258 286.67129883 348.04150391 285.98681641 C361.08976063 260.53322503 367.72860636 232.49782341 369 204 C369.06380859 202.60974609 369.06380859 202.60974609 369.12890625 201.19140625 C370.19075904 152.41696828 352.42276456 105.41640314 319 70 C318.32710937 69.26265625 317.65421875 68.5253125 316.9609375 67.765625 C291.48985879 40.86358681 254.67891211 31.10204767 219 27 C218.10635742 26.89703613 217.21271484 26.79407227 216.29199219 26.68798828 C205.26947044 25.47116647 194.35569264 24.8770556 183.265625 24.94921875 C182.1739502 24.95288452 181.08227539 24.95655029 179.95751953 24.96032715 C177.30497281 24.9697694 174.65250746 24.983041 172 25 Z " fill="#131112" transform="translate(1358,15)"/>
<path d="M0 0 C78.766875 -0.0928125 78.766875 -0.0928125 159.125 -0.1875 C175.72441895 -0.21481201 192.32383789 -0.24212402 209.42626953 -0.27026367 C229.64819336 -0.28381348 229.64819336 -0.28381348 239.10568237 -0.28633118 C245.73128436 -0.28913362 252.35681082 -0.30015852 258.98239136 -0.31672668 C266.62010794 -0.33579766 274.25775185 -0.34451371 281.89549243 -0.34033485 C285.8040986 -0.33852442 289.71254228 -0.34143226 293.62111878 -0.35764539 C297.80352159 -0.37488925 301.98556915 -0.36899633 306.16799927 -0.36076355 C307.39138441 -0.36950154 308.61476955 -0.37823954 309.87522697 -0.38724232 C320.35170638 -0.33154852 320.35170638 -0.33154852 325 3 C327.34693138 6.52039707 327.32723764 8.20057009 327.375 12.375 C327.40335938 13.49648438 327.43171875 14.61796875 327.4609375 15.7734375 C326.90929072 19.63496496 325.69853414 21.24127551 323 24 C320.5522776 25.2238612 318.97358491 25.12691195 316.23657227 25.12939453 C314.72553673 25.13405479 314.72553673 25.13405479 313.18397522 25.1388092 C311.51702858 25.13584084 311.51702858 25.13584084 309.81640625 25.1328125 C308.64665756 25.13417709 307.47690887 25.13554169 306.27171326 25.13694763 C303.04478782 25.13864666 299.81792149 25.13529835 296.59100342 25.12877274 C294.56302834 25.12500098 292.53505792 25.1229324 290.50708008 25.12130737 C269.05809707 25.10113534 247.6122948 24.90610197 226.16566086 24.59383392 C224.02468623 24.56285717 221.88369853 24.53296717 219.7427063 24.50323486 C203.81159169 24.27872569 187.90861197 23.90339456 172 23 C172.00523682 24.29768311 172.01047363 25.59536621 172.01586914 26.93237305 C172.03488015 32.05671405 172.04575674 37.18105273 172.05493164 42.30541992 C172.05976488 44.46525606 172.06641678 46.62508941 172.07543945 48.78491211 C172.18246535 75.19512571 171.54619633 101.59694978 171 128 C171.77653773 127.98269522 172.55307547 127.96539043 173.35314465 127.94756126 C192.29269758 127.52628842 211.2324853 127.11766282 230.17261028 126.72292137 C239.33209655 126.53172194 248.49145646 126.3363233 257.65063477 126.13085938 C265.63852534 125.9516813 273.62654209 125.78056509 281.61480743 125.61892188 C285.84020363 125.53314447 290.06543226 125.44347206 294.29053307 125.34412766 C298.27692144 125.25052394 302.26339533 125.16779719 306.25017929 125.09298897 C307.70416801 125.063865 309.15808723 125.03095236 310.61189079 124.99371529 C329.77748185 124.50857758 329.77748185 124.50857758 337 127 C340.50283087 130.61574953 341.56898157 132.9013195 341.5625 137.9375 C341.42945962 141.80042234 341.22165936 144.53731158 338.8125 147.625 C334.51879247 151.25079747 331.04323256 152.25544405 325.47290039 152.21069336 C323.78468422 152.20447716 323.78468422 152.20447716 322.06236267 152.19813538 C320.81588455 152.18302414 319.56940643 152.1679129 318.28515625 152.15234375 C316.93002352 152.143124 315.57488469 152.13476778 314.21974182 152.12718201 C311.17711019 152.1079009 308.13463568 152.08156567 305.09210205 152.05047607 C300.597617 152.00459955 296.10310704 151.96921605 291.60851097 151.93619728 C280.07613618 151.85142957 268.54406155 151.74365289 257.01196289 151.62768555 C251.5352561 151.57272918 246.05851713 151.52243915 240.58175564 151.47328281 C236.25622561 151.43366765 231.93073217 151.39077077 227.60524178 151.34705925 C225.58976393 151.32718871 223.57427491 151.30840978 221.55877495 151.29092598 C204.69493946 151.14259729 187.85213651 150.61416657 171 150 C171.00515373 150.80528263 171.01030746 151.61056526 171.01561737 152.4402504 C171.18340171 178.71012888 171.34433735 204.98004691 171.5 231.25 C171.50594854 232.25251218 171.51189708 233.25502437 171.51802588 234.28791571 C171.83758364 288.21290876 172.10014471 342.13644669 172.0625 396.0625 C172.06164398 397.29809158 172.06078796 398.53368317 172.05990601 399.80671692 C172.04913645 414.20449539 172.03015615 428.60224912 172 443 C173.06774155 442.97265274 174.13548309 442.94530548 175.23558044 442.91712952 C212.17284883 441.97739485 249.10801102 441.45430878 286.05476856 441.07478046 C291.11573571 441.02202567 296.17652123 440.96059727 301.23730469 440.89257812 C307.1001051 440.81464281 312.96272513 440.75507641 318.82589722 440.71389771 C320.87489805 440.69651473 322.9238543 440.6723363 324.97268677 440.64083862 C327.74114641 440.59961259 330.50861971 440.58348509 333.27734375 440.57421875 C334.05689423 440.55675598 334.8364447 440.53929321 335.63961792 440.52130127 C341.01837616 440.542565 345.65440404 441.68335259 350 445 C352.7177958 449.48585849 352.52993641 453.89108179 352 459 C350.69204236 462.30431404 349.93316475 463.53754722 346.76094466 465.10961902 C343.6866931 466.10103879 341.23995014 466.24844554 338.01238537 466.24609566 C336.80376402 466.2500774 335.59514267 466.25405914 334.34989643 466.25816154 C333.01298254 466.25245784 331.67606944 466.24656707 330.3391571 466.24050903 C328.91934634 466.24138408 327.4995359 466.24313829 326.07972717 466.24569702 C322.1704643 466.2501863 318.26131083 466.24215156 314.35206185 466.23214546 C310.07461471 466.22342094 305.79717273 466.2263341 301.51971912 466.2277813 C293.21394365 466.22884527 284.90821137 466.21960424 276.60244699 466.20677864 C266.99655706 466.19238893 257.39069313 466.1907897 247.78479004 466.18920898 C222.41901984 466.17870468 197.05325927 466.1507825 171.6875 466.125 C115.030625 466.08375 58.37375 466.0425 0 466 C0 312.22 0 158.44 0 0 Z " fill="#131112" transform="translate(573,15)"/>
<path d="M0 0 C1.29736141 -0.00322445 2.59472282 -0.00644889 3.93139821 -0.00977105 C5.36929796 -0.00829994 6.80719761 -0.00673222 8.24509716 -0.00507832 C9.7740124 -0.00694652 11.30292717 -0.00924726 12.83184117 -0.01194364 C17.03508885 -0.01806694 21.23831666 -0.01792742 25.44156778 -0.01674926 C29.97405739 -0.01654539 34.50654058 -0.02206274 39.03902721 -0.02680683 C47.91977871 -0.03511688 56.80052357 -0.03786183 65.68127862 -0.03841921 C72.89934185 -0.03889421 80.11740289 -0.04094814 87.33546543 -0.04411983 C107.79562353 -0.05292741 128.25577639 -0.05753905 148.7159364 -0.05678936 C150.37080623 -0.05672943 150.37080623 -0.05672943 152.05910778 -0.05666828 C153.16369987 -0.0566274 154.26829196 -0.05658652 155.40635654 -0.0565444 C173.3096882 -0.05613791 191.21299883 -0.06570792 209.1163244 -0.07980665 C227.49504451 -0.09416565 245.87375435 -0.10107709 264.25248021 -0.10021287 C274.57244962 -0.09988074 284.89239698 -0.10263511 295.21236134 -0.11339092 C303.99878747 -0.12248967 312.78518157 -0.12467633 321.57161037 -0.1178815 C326.05457351 -0.11461312 330.53747516 -0.11457108 335.02043247 -0.12323475 C339.12554412 -0.13108661 343.23054537 -0.12968176 347.33565428 -0.12095062 C348.81948709 -0.11941273 350.30332809 -0.12124265 351.78715125 -0.12681069 C369.78738023 -0.18987437 369.78738023 -0.18987437 375.05056286 4.12863445 C378.1364907 8.07862209 378.0006851 11.45500416 377.96853161 16.35519695 C377.4138413 20.68300045 375.84590664 22.27170274 372.61306286 25.12863445 C369.68710779 26.10395281 367.8201749 26.257494 364.77395153 26.26144695 C363.76560757 26.26346111 362.7572636 26.26547527 361.71836376 26.26755047 C360.04782185 26.26066204 360.04782185 26.26066204 358.34353161 26.25363445 C357.16300716 26.25097576 355.98248272 26.24831707 354.76618481 26.24557781 C338.920581 26.1654839 323.08247192 25.68301337 307.24423122 25.22415447 C300.65735452 25.03456681 294.07035878 24.84914779 287.4833864 24.66291904 C283.53537204 24.55127162 279.58736307 24.43943451 275.63935375 24.32760906 C274.27271146 24.28890676 272.90606915 24.25020529 271.5394268 24.21150494 C270.09087665 24.17048405 270.09087665 24.17048405 268.61306286 24.12863445 C267.86117669 87.70483864 267.48462219 151.27908585 267.29665661 214.8591032 C267.29259354 216.22976263 267.29259354 216.22976263 267.28844839 217.62811214 C267.21902587 241.09822504 267.15616658 264.568354 267.09565413 288.03849137 C267.06049241 301.65195837 267.02351179 315.26541961 266.98537731 328.87887859 C266.98125305 330.35216028 266.98125305 330.35216028 266.97704548 331.85520524 C266.9554995 339.54780836 266.93386776 347.24041123 266.91220915 354.93301404 C266.8078732 391.99820934 266.71094818 429.06342047 266.61306286 466.12863445 C209.85306286 466.12863445 153.09306286 466.12863445 94.61306286 466.12863445 C94.61306286 413.16728822 94.61306286 413.16728822 94.79822445 389.68951702 C94.83394485 385.09892432 94.86684269 380.5083134 94.89934826 375.91769695 C94.91086964 374.29329395 94.92239194 372.66889095 94.93391514 371.04448795 C94.94256662 369.82404698 94.94256662 369.82404698 94.95139289 368.57895064 C94.9690378 366.09999498 94.98687828 363.6210408 95.00478077 361.14208698 C95.38756211 308.07571398 95.73806286 255.00910607 95.73806286 201.94113445 C95.73806286 200.79430943 95.73806286 199.6474844 95.73806286 198.4659071 C95.73189723 154.76173695 95.33435056 111.06343503 94.79872799 67.36288929 C94.62353754 52.95071395 94.54568708 38.5419978 94.61306286 24.12863445 C93.56553844 24.1870451 92.51801403 24.24545574 91.43874645 24.30563641 C73.85711981 25.2351467 56.2595649 25.69861729 38.66091442 26.16842937 C35.02041286 26.26616372 31.38017955 26.37035944 27.74001598 26.47995281 C23.28753152 26.61398239 18.83487202 26.73732375 14.38187313 26.85296345 C12.70173721 26.8983265 11.02169599 26.9473623 9.34178066 27.00026798 C7.00347982 27.07310525 4.66520247 27.13214398 2.32644176 27.18796062 C1.30561756 27.2244421 1.30561756 27.2244421 0.26417065 27.26166058 C-5.33895446 27.37158247 -10.43730824 26.82173323 -14.76193714 23.06613445 C-17.65365321 17.83880157 -17.73026171 13.06373658 -16.69943714 7.25363445 C-15.30114359 3.92436409 -14.56055729 2.76078196 -11.38693714 1.12863445 C-7.54826576 0.16401021 -3.95002293 0.00248265 0 0 Z " fill="#131112" transform="translate(944.3869371414185,14.871365547180176)"/>
<path d="M0 0 C0.77956055 0.16628906 1.55912109 0.33257812 2.36230469 0.50390625 C39.16226521 8.65818556 69.86601628 28.47112518 97 54 C97.70898438 54.65484375 98.41796875 55.3096875 99.1484375 55.984375 C105.4946977 62.04570107 110.73481887 69.00645379 116 76 C116.43103027 76.57024902 116.86206055 77.14049805 117.30615234 77.72802734 C143.40344528 112.50766957 158.80201382 153.37700421 166 196 C166.26248535 197.4238501 166.26248535 197.4238501 166.53027344 198.87646484 C169.35313758 214.49724476 169.3076577 230.23924579 169.375 246.0625 C169.38705475 247.64011612 169.38705475 247.64011612 169.39935303 249.24960327 C169.51423985 269.09929894 167.88781286 288.73837491 163.4375 308.125 C163.18701904 309.22497314 162.93653809 310.32494629 162.6784668 311.45825195 C151.57888078 358.10797351 129.80243621 399.14114195 97 434 C96.38382813 434.65871094 95.76765625 435.31742187 95.1328125 435.99609375 C90.16151059 441.14579166 84.63041084 445.59420352 79 450 C78.4534375 450.42829102 77.906875 450.85658203 77.34375 451.29785156 C38.27337139 481.64399222 -8.47495812 495.40831804 -57.71875 490.5390625 C-62.21194547 489.95785543 -66.59982057 489.07117229 -71 488 C-72.24813477 487.70198486 -72.24813477 487.70198486 -73.52148438 487.39794922 C-86.3125836 484.25201748 -98.19343662 479.80847667 -110 474 C-110.7110791 473.65598145 -111.4221582 473.31196289 -112.15478516 472.95751953 C-153.21956994 452.91566211 -187.3276095 417.47436455 -208 377 C-208.6202002 375.79633789 -208.6202002 375.79633789 -209.25292969 374.56835938 C-244.53660552 305.41126993 -248.68794468 224.0192982 -225.0793457 150.53662109 C-217.60077193 128.1973211 -207.11459936 106.57613524 -194 87 C-193.59362305 86.38705078 -193.18724609 85.77410156 -192.76855469 85.14257812 C-173.16734784 55.84326813 -146.28150525 32.1592097 -115 16 C-114.32501465 15.64953613 -113.6500293 15.29907227 -112.95458984 14.93798828 C-78.68811033 -2.61195128 -37.68577062 -8.10172301 0 0 Z M-56 21 C-56.78167114 23.7768331 -57.13199545 26.26109953 -57.15821838 29.14260864 C-57.16800783 29.96743114 -57.17779728 30.79225365 -57.18788338 31.64207077 C-57.19363821 32.54538761 -57.19939304 33.44870445 -57.20532227 34.37939453 C-57.2152162 35.34656025 -57.22511013 36.31372597 -57.23530388 37.31019974 C-57.26728982 40.58437865 -57.2919856 43.85856895 -57.31640625 47.1328125 C-57.33723797 49.50509865 -57.35832795 51.87738255 -57.37965393 54.24966431 C-57.44268287 61.51039919 -57.49587014 68.7711886 -57.54744434 76.03201103 C-57.56755874 78.8282501 -57.58865006 81.62448146 -57.60972524 84.42071342 C-58.26672276 171.82457583 -58.32379799 259.23808199 -57.59383392 403.48725891 C-57.57283287 406.36781939 -57.55243672 409.24838308 -57.53263092 412.12895203 C-57.477292 420.17203759 -57.41689468 428.21504677 -57.34718513 436.25802422 C-57.32691795 438.65258009 -57.3081156 441.04714889 -57.29089165 443.44172859 C-57.26704172 446.67451189 -57.23710617 449.90717892 -57.20532227 453.13989258 C-57.19956743 454.07701458 -57.1938126 455.01413658 -57.18788338 455.97965622 C-57.14087326 460.10879063 -57.04115606 463.9741335 -56 468 C-49.6641206 469.86436779 -43.90237082 470.35167878 -37.3125 470.3125 C-36.30719238 470.30686035 -35.30188477 470.3012207 -34.26611328 470.29541016 C1.89927956 469.72261657 35.39491519 456.7100188 64 435 C64.87398437 434.35160156 65.74796875 433.70320313 66.6484375 433.03515625 C114.43015515 395.91243715 140.40306033 337.59997492 148.34033203 278.7668457 C156.45684803 212.80443293 141.60380885 143.35541825 101 90 C100.35417969 89.12988281 99.70835937 88.25976562 99.04296875 87.36328125 C70.51374127 50.61853659 28.00127347 25.29861557 -18.2734375 19.40625 C-24.02769614 18.81902981 -29.78332723 18.81594614 -35.5625 18.8125 C-36.64724609 18.80025391 -37.73199219 18.78800781 -38.84960938 18.77539062 C-44.93243382 18.7643108 -50.17773564 19.2145056 -56 21 Z " fill="#131112" transform="translate(2016,4)"/>
<path d="M0 0 C399.63 0 799.26 0 1211 0 C1211 5.61 1211 11.22 1211 17 C811.37 17 411.74 17 0 17 C0 11.39 0 5.78 0 0 Z " fill="#131112" transform="translate(0,825)"/>
<path d="M0 0 C17.9025 -0.04125 35.805 -0.0825 54.25 -0.125 C59.88352539 -0.14320801 65.51705078 -0.16141602 71.32128906 -0.18017578 C78.24951172 -0.18920898 78.24951172 -0.18920898 81.50238037 -0.19088745 C83.75352776 -0.19394007 86.00467206 -0.20093537 88.25579834 -0.21115112 C91.68393556 -0.2259181 95.11187452 -0.22780773 98.54003906 -0.22705078 C99.52738163 -0.234247 100.5147242 -0.24144321 101.53198624 -0.2488575 C115.89919347 -0.20675609 131.38787703 2.48636541 142 13 C149.56405404 22.65335798 150.09395852 33.19028414 149 45 C147.44341659 51.90675631 143.02039999 57.15271725 138 62 C137.01 62.495 137.01 62.495 136 63 C136.70125 63.47308594 137.4025 63.94617188 138.125 64.43359375 C148.88542461 71.93372667 157.83289533 80.43697646 160.6796875 93.6875 C162.24937506 105.01987851 161.02838038 116.7344199 154.3125 126.3125 C144.00360012 138.52854636 131.78766918 144.27795378 116 146 C107.06622569 146.51954848 98.10449511 146.35099732 89.16015625 146.29296875 C86.87203186 146.28854868 84.58390441 146.28549383 82.29577637 146.28381348 C73.88463748 146.26819168 65.47356386 146.22630814 57.0625 146.1875 C38.231875 146.125625 19.40125 146.06375 0 146 C0 97.82 0 49.64 0 0 Z M26 22 C26 32.89 26 43.78 26 55 C36.38836751 55.09061852 46.77646953 55.16389855 57.16514397 55.20724869 C61.98980349 55.22806184 66.81417695 55.25626401 71.63867188 55.30175781 C76.30063792 55.34544043 80.96233 55.3691842 85.62448502 55.37950897 C87.39697706 55.38686031 89.16945529 55.4012152 90.94182968 55.42292023 C106.26301819 55.79045135 106.26301819 55.79045135 119.5 48.8125 C122.25309672 43.65044365 123.27562769 39.06720766 122.5 33.25 C119.98732329 27.80586712 116.69512366 25.77114375 111.43383789 23.37768555 C103.80258345 20.94981754 95.5419418 21.63357067 87.62109375 21.70703125 C85.84034077 21.71263453 84.05958313 21.71690117 82.27882385 21.71989441 C77.61810275 21.73128557 72.95766726 21.76070271 68.29705811 21.79400635 C63.53076032 21.82483148 58.76441586 21.83842621 53.99804688 21.85351562 C44.66521965 21.88557857 35.33267839 21.93829896 26 22 Z M26 77 C26 92.51 26 108.02 26 124 C41.57418996 124.1164548 41.57418996 124.1164548 57.1484375 124.1953125 C63.5059962 124.21917048 69.86332319 124.24731328 76.22070312 124.30175781 C81.34950414 124.34540305 86.47805648 124.36917653 91.60702896 124.37950897 C93.55814653 124.38686691 95.50925137 124.4012349 97.4602623 124.42292023 C113.39820956 124.84795122 113.39820956 124.84795122 127.4375 118.0703125 C133.35276911 110.70580246 135.02370606 104.44959444 134 95 C132.4245534 88.61844414 129.44156227 84.78171542 124.01171875 81.1484375 C116.79257556 77.02721789 108.71523656 76.84755535 100.58618164 76.88647461 C99.7756131 76.88632858 98.96504456 76.88618256 98.12991333 76.8860321 C95.47329961 76.88672406 92.8167576 76.89448261 90.16015625 76.90234375 C88.30928079 76.90421048 86.45840482 76.90563318 84.60752869 76.90663147 C79.75290547 76.91043656 74.8983125 76.92024958 70.04370117 76.93133545 C64.20992406 76.94339858 58.3761368 76.94796138 52.54235077 76.95378876 C43.69487952 76.9634625 34.84747456 76.98263309 26 77 Z " fill="#131112" transform="translate(1803,688)"/>
<path d="M0 0 C6.09100319 -1.49167425 12.06324266 -2.55693845 18 0 C23.7138864 5.52834323 26.86361235 13.40605512 30.26708984 20.47119141 C33.11673136 26.27405398 36.32762701 31.86928248 39.5 37.5 C40.75740227 39.77424672 42.01391532 42.04898531 43.26953125 44.32421875 C46.81643843 50.70902144 50.48310265 57.0180987 54.1875 63.3125 C59.16084299 71.76635026 63.94427598 80.30088075 68.60668945 88.9296875 C71.94897692 95.10518331 75.37643843 101.22425173 78.875 107.3125 C83.51739313 115.39536967 88.1209046 123.49902634 92.6875 131.625 C93.30028809 132.71079346 93.91307617 133.79658691 94.54443359 134.9152832 C95.39448975 136.43061646 95.39448975 136.43061646 96.26171875 137.9765625 C96.76662842 138.87455566 97.27153809 139.77254883 97.79174805 140.69775391 C99 143 99 143 100 146 C76.16887449 148.6658629 76.16887449 148.6658629 69.86962891 144.63769531 C64.88307848 139.05983591 62.50268908 131.07721729 60.70996094 123.95703125 C58.80006086 117.96584016 56.44168531 113.41312428 51 110 C38.65079452 106.14343081 24.04544117 107.83622712 11.30548096 108.23181152 C6.31174076 108.36643894 1.3175203 108.39232516 -3.67773438 108.42773438 C-13.4552874 108.51289039 -23.22628162 108.71795487 -33 109 C-33.30234055 109.77047165 -33.60468109 110.5409433 -33.91618347 111.33476257 C-35.06485704 114.15949138 -36.41228002 116.77541342 -37.86328125 119.45703125 C-38.69956055 121.00293945 -38.69956055 121.00293945 -39.55273438 122.58007812 C-40.13345703 123.64677734 -40.71417969 124.71347656 -41.3125 125.8125 C-41.88162109 126.86759766 -42.45074219 127.92269531 -43.03710938 129.00976562 C-44.15764509 131.07458747 -45.297169 133.12923446 -46.45678711 135.17236328 C-48.015275 137.90197387 -48.015275 137.90197387 -49.02954102 140.52685547 C-50.12914396 142.96483536 -50.88586176 144.34701198 -53 146 C-57.80418002 146.97719397 -62.43641613 146.75267201 -67.3125 146.5 C-68.62541016 146.46390625 -69.93832031 146.4278125 -71.29101562 146.390625 C-74.53030187 146.29639122 -77.76366962 146.16494088 -81 146 C-75.1010311 133.72087744 -68.50063859 121.90080809 -61.74853516 110.07373047 C-58.82735528 104.93862092 -55.94524718 99.78175304 -53.0625 94.625 C-51.88672037 92.5234366 -50.71093911 90.4218741 -49.53515625 88.3203125 C-48.95137207 87.27649414 -48.36758789 86.23267578 -47.76611328 85.15722656 C-44.26405868 78.89671092 -40.75786247 72.63851388 -37.25244141 66.37988281 C-34.32187215 61.14724952 -31.39230956 55.91405778 -28.46484375 50.6796875 C-22.1195893 39.33692081 -15.7559401 28.00504676 -9.34936523 16.69677734 C-6.20587942 11.14598029 -3.08819674 5.58175586 0 0 Z M9 35 C8.45811035 35.97102661 8.45811035 35.97102661 7.90527344 36.96166992 C0.97269958 49.3783345 -5.96982503 61.78650715 -13.09082031 74.09643555 C-13.7767627 75.28813354 -13.7767627 75.28813354 -14.4765625 76.50390625 C-14.86924316 77.18267822 -15.26192383 77.8614502 -15.66650391 78.56079102 C-17.54093037 81.98946088 -19.25247308 85.50494616 -21 89 C-1.2 89 18.6 89 39 89 C37.61511678 84.84535034 36.55433167 81.91144322 34.453125 78.26171875 C33.94418701 77.3704126 33.43524902 76.47910645 32.91088867 75.56079102 C32.08874878 74.13851196 32.08874878 74.13851196 31.25 72.6875 C30.08404225 70.64877662 28.91870106 68.60970053 27.75390625 66.5703125 C27.14434082 65.50586914 26.53477539 64.44142578 25.90673828 63.34472656 C22.63340659 57.60277468 19.41180049 51.83210417 16.1875 46.0625 C14.99350271 43.92837807 13.79949347 41.79426283 12.60546875 39.66015625 C11.73691104 38.10680892 10.8683932 36.5534393 10 35 C9.67 35 9.34 35 9 35 Z " fill="#131112" transform="translate(1650,688)"/>
<path d="M0 0 C29.82218956 -2.25259231 29.82218956 -2.25259231 36.7734375 2.61328125 C39.53598794 5.16114724 41.70993325 8.00364702 43.74755859 11.15136719 C48.10161673 17.57805885 53.93004714 23.12331489 59.25 28.75 C64.76381137 34.60302795 70.22713594 40.49623848 75.6328125 46.44921875 C78.02867335 49.03089719 80.49413854 51.52535033 83 54 C84.52419005 52.50341097 86.04414831 51.00251195 87.5625 49.5 C88.40941406 48.6646875 89.25632812 47.829375 90.12890625 46.96875 C92.94668846 44.11618036 95.55587031 41.09907892 98.18139648 38.0703125 C101.12358539 34.72090158 104.18766884 31.48925155 107.25 28.25 C111.85710332 23.35495273 116.45545691 18.45326003 121 13.5 C121.804375 12.6234375 122.60875 11.746875 123.4375 10.84375 C125.94416498 8.24162679 125.94416498 8.24162679 127.27172852 5.89648438 C129.0090312 3.30727095 130.38873711 1.73354061 133 0 C138.67849502 -0.99311024 144.19966311 -0.75709002 149.9375 -0.5 C151.49535134 -0.45982665 153.05330216 -0.42333259 154.61132812 -0.390625 C158.41002652 -0.30290776 162.20391158 -0.16514398 166 0 C162.40293929 4.23365393 158.76091353 8.41000654 155 12.5 C154.3045105 13.25639771 154.3045105 13.25639771 153.5949707 14.02807617 C147.43243635 20.71862468 141.21343465 27.356779 135 34 C117.80865992 52.32535707 117.80865992 52.32535707 101 71 C102.39428897 75.336932 104.40122929 77.6973368 107.6875 80.8125 C111.40277792 84.3544368 114.81454567 88.03230557 118.16821289 91.90991211 C121.15065067 95.31290422 124.26560858 98.58836642 127.375 101.875 C132.19013705 106.986417 136.95065617 112.13406904 141.625 117.375 C144.73126394 120.8082391 147.89715154 124.18379931 151.0625 127.5625 C159.25531442 136.32634537 159.25531442 136.32634537 162.875 140.3125 C163.49117187 140.98925781 164.10734375 141.66601562 164.7421875 142.36328125 C166 144 166 144 166 146 C161.57112659 146.19893013 157.14466695 146.34344922 152.71264648 146.43945312 C151.20795367 146.47949646 149.70356851 146.53395384 148.19995117 146.60351562 C135.76038909 147.16426486 135.76038909 147.16426486 131.66552734 144.45605469 C129.88259464 142.40340525 128.46029675 140.29066157 127 138 C125.83604346 136.68747061 124.64262618 135.40050387 123.421875 134.140625 C122.82415283 133.50616455 122.22643066 132.8717041 121.6105957 132.21801758 C120.68960083 131.24384888 120.68960083 131.24384888 119.75 130.25 C114.35645537 124.52122951 109.00345794 118.76088889 103.69921875 112.94921875 C101.75042938 110.81993369 99.79563872 108.69755275 97.83203125 106.58203125 C97.29731201 106.00541748 96.76259277 105.42880371 96.21166992 104.8347168 C95.19090899 103.73479546 94.16902615 102.63591367 93.14575195 101.53833008 C89.974709 98.11853509 86.9592735 94.60493317 84 91 C80.56307399 92.45232935 78.66739132 94.24382172 76.25 97.0625 C72.03408422 101.86684409 67.70363285 106.54277112 63.3125 111.1875 C61.92045529 112.66264942 60.52852893 114.13791054 59.13671875 115.61328125 C58.1010376 116.7108374 58.1010376 116.7108374 57.04443359 117.83056641 C53.89641728 121.17105756 50.7586865 124.52106835 47.625 127.875 C47.10333252 128.4321167 46.58166504 128.9892334 46.04418945 129.56323242 C45.52687256 130.1172876 45.00955566 130.67134277 44.4765625 131.2421875 C43.92887207 131.80993896 43.38118164 132.37769043 42.81689453 132.96264648 C40.87401476 135.07112117 40.87401476 135.07112117 38.92919922 137.86743164 C35.46007742 142.37554925 32.96704983 145.5329261 27.29443359 146.87988281 C23.13584143 147.21040648 19.02944326 146.96563969 14.875 146.6875 C13.42727138 146.63220481 11.97933749 146.58203537 10.53125 146.53710938 C7.01650041 146.41705082 3.5095968 146.22799943 0 146 C1.33636305 143.05104918 2.82141931 140.90299881 5.0546875 138.56640625 C5.6633667 137.92421143 6.2720459 137.2820166 6.89916992 136.62036133 C7.55119385 135.94126709 8.20321777 135.26217285 8.875 134.5625 C10.24391761 133.12019779 11.61240189 131.67748419 12.98046875 130.234375 C13.66157715 129.51830078 14.34268555 128.80222656 15.04443359 128.06445312 C17.78510946 125.17117533 20.4899486 122.24594001 23.1875 119.3125 C23.91138916 118.52661499 23.91138916 118.52661499 24.64990234 117.72485352 C25.61626949 116.67565953 26.58241721 115.62626339 27.54833984 114.57666016 C30.02946406 111.88189054 32.51499116 109.19118686 35 106.5 C36.00002027 105.41668538 37.00002029 104.33335206 38 103.25 C47 93.5 56 83.75 65 74 C63.64827153 69.91620659 61.93063758 67.62316481 58.8125 64.6875 C56.02809481 61.9956146 53.32773437 59.32013412 50.8125 56.375 C47.36092716 52.35218783 43.75017472 48.49057853 40.125 44.625 C35.44922377 39.63652627 30.82288992 34.61301021 26.265625 29.515625 C23.57620506 26.52944148 20.85351147 23.57543329 18.125 20.625 C17.37295288 19.81107788 17.37295288 19.81107788 16.60571289 18.98071289 C14.54111776 16.74674222 12.4759514 14.51331527 10.40771484 12.28271484 C8.87393084 10.62785507 7.34299071 8.9704052 5.8125 7.3125 C5.34279785 6.80734863 4.8730957 6.30219727 4.38916016 5.78173828 C1.11359866 2.22719733 1.11359866 2.22719733 0 0 Z " fill="#131112" transform="translate(2019,688)"/>
<path d="M0 0 C8.91 0 17.82 0 27 0 C27 55.11 27 110.22 27 167 C71.88 167 116.76 167 163 167 C163 174.26 163 181.52 163 189 C109.21 189 55.42 189 0 189 C0 126.63 0 64.26 0 0 Z " fill="#131112" transform="translate(1381,645)"/>
</svg>
