<?xml version="1.0" encoding="UTF-8"?>
<!DOCTYPE svg PUBLIC "-//W3C//DTD SVG 1.1//EN" "http://www.w3.org/Graphics/SVG/1.1/DTD/svg11.dtd">
<!-- Creator: CorelDRAW X6 -->
<svg xmlns="http://www.w3.org/2000/svg" xml:space="preserve" width="9.62586in" height="2.18914in" version="1.1" style="shape-rendering:geometricPrecision; text-rendering:geometricPrecision; image-rendering:optimizeQuality; fill-rule:evenodd; clip-rule:evenodd"
viewBox="0 0 9942 2261"
 xmlns:xlink="http://www.w3.org/1999/xlink">
 <defs>
  <style type="text/css">
   <![CDATA[
    .str0 {stroke:#FEFEFE;stroke-width:28.6917}
    .fil2 {fill:none}
    .fil1 {fill:#FEFEFE;fill-rule:nonzero}
    .fil0 {fill:#0F61D4;fill-rule:nonzero}
   ]]>
  </style>
 </defs>
 <g id="Layer_x0020_1">
  <metadata id="CorelCorpID_0Corel-Layer"/>
  <path class="fil0" d="M1528 1168c-22,0 -40,-7 -55,-22 -15,-15 -22,-33 -22,-55l0 -1013c0,-23 7,-42 22,-56 15,-14 33,-22 55,-22 30,0 53,14 69,42l468 938 -48 0 456 -938c16,-28 39,-42 69,-42 22,0 40,7 55,22 15,14 22,33 22,56l0 1013c0,22 -8,40 -23,55 -15,15 -34,22 -55,22 -22,0 -40,-7 -55,-22 -15,-15 -22,-33 -22,-55l0 -797 30 -7 -392 799c-17,26 -39,39 -67,39 -33,0 -57,-15 -72,-46l-387 -776 30 -7 0 797c0,22 -7,40 -22,55 -15,15 -33,22 -55,22z"/>
  <path id="1" class="fil0" d="M3288 1174c-83,0 -156,-18 -221,-53 -64,-35 -115,-84 -151,-147 -36,-62 -55,-134 -55,-215 0,-82 17,-154 52,-216 34,-62 82,-111 143,-147 61,-35 131,-53 209,-53 78,0 145,17 200,52 56,34 98,82 128,142 29,60 44,130 44,209 0,19 -6,35 -19,47 -13,12 -29,19 -49,19l-603 0 0 -120 598 0 -61 42c-1,-50 -11,-95 -30,-134 -19,-39 -46,-71 -81,-94 -35,-23 -77,-34 -127,-34 -57,0 -105,12 -146,37 -40,25 -71,59 -92,102 -21,43 -31,93 -31,147 0,55 12,104 37,147 25,43 59,77 103,102 44,25 94,37 151,37 31,0 63,-6 95,-17 32,-11 59,-25 79,-40 15,-11 31,-17 49,-17 17,-1 33,5 46,16 17,15 26,31 27,49 1,18 -7,33 -24,46 -34,27 -76,49 -126,66 -50,17 -98,25 -144,25z"/>
  <path id="2" class="fil0" d="M4130 1168c-50,0 -95,-13 -135,-38 -40,-25 -71,-60 -94,-104 -23,-44 -34,-93 -34,-148l0 -714c0,-22 7,-40 21,-54 14,-14 32,-21 54,-21 22,0 40,7 54,21 14,14 21,32 21,54l0 714c0,40 11,73 33,100 22,27 49,40 81,40l51 0c18,0 33,7 46,21 12,14 19,32 19,54 0,22 -8,40 -25,54 -16,14 -38,21 -64,21l-27 0zm-332 -660c-21,0 -38,-6 -51,-18 -13,-12 -19,-27 -19,-45 0,-20 6,-36 19,-48 13,-12 30,-18 51,-18l346 0c21,0 38,6 51,18 13,12 19,28 19,48 0,18 -6,33 -19,45 -13,12 -30,18 -51,18l-346 0z"/>
  <path id="3" class="fil0" d="M4506 657c0,-60 15,-113 44,-161 29,-47 69,-85 119,-113 50,-28 105,-42 165,-42 60,0 104,10 134,29 29,19 41,43 34,70 -3,14 -9,25 -17,32 -8,7 -18,12 -29,14 -11,2 -23,1 -36,-1 -64,-13 -121,-14 -172,-3 -51,11 -91,31 -120,61 -29,30 -44,68 -44,114l-76 0zm1 512c-24,0 -42,-6 -55,-19 -13,-12 -19,-31 -19,-56l0 -669c0,-24 6,-42 19,-55 13,-13 31,-19 55,-19 25,0 44,6 56,19 12,12 19,31 19,56l0 669c0,24 -6,42 -19,55 -12,13 -31,19 -56,19z"/>
  <path id="4" class="fil0" d="M5470 1174c-81,0 -152,-18 -214,-53 -62,-35 -110,-84 -146,-147 -35,-62 -53,-134 -53,-215 0,-82 18,-154 53,-216 35,-62 84,-111 146,-147 62,-35 133,-53 214,-53 80,0 151,18 212,53 62,35 110,84 146,147 35,62 53,134 53,216 0,81 -17,152 -52,215 -35,62 -83,111 -145,147 -62,35 -133,53 -214,53zm0 -135c52,0 98,-12 138,-36 40,-24 71,-57 93,-99 22,-42 34,-90 34,-145 0,-55 -11,-103 -34,-146 -22,-42 -54,-76 -93,-99 -40,-24 -86,-36 -138,-36 -52,0 -98,12 -138,36 -40,24 -71,57 -94,99 -23,42 -34,91 -34,146 0,55 11,103 34,145 23,42 54,75 94,99 40,24 86,36 138,36z"/>
  <path id="5" class="fil0" d="M6200 1168c-22,0 -40,-7 -55,-22 -14,-15 -22,-33 -22,-55l0 -1013c0,-22 7,-40 22,-55 15,-15 33,-22 54,-22 22,0 40,7 55,22 15,15 22,33 22,55l0 935 541 0c22,0 40,7 55,22 15,15 22,33 22,55 0,22 -7,40 -22,55 -15,15 -33,22 -55,22l-619 0z"/>
  <path id="6" class="fil0" d="M7410 1174c-73,0 -138,-18 -195,-54 -57,-36 -103,-85 -137,-148 -34,-63 -51,-134 -51,-212 0,-80 18,-151 55,-213 36,-62 86,-112 148,-148 62,-36 132,-55 210,-55 79,0 149,18 210,55 61,36 110,86 147,149 36,63 55,134 55,212l-58 0c0,79 -17,149 -50,212 -33,62 -79,112 -136,148 -57,36 -123,55 -197,55zm31 -135c50,0 95,-12 135,-37 40,-24 71,-58 94,-100 23,-42 34,-90 34,-143 0,-54 -11,-102 -34,-144 -23,-42 -54,-76 -93,-100 -39,-24 -85,-37 -135,-37 -51,0 -96,12 -137,37 -40,24 -72,58 -96,99 -23,42 -35,90 -35,145 0,53 12,100 35,143 23,42 55,76 95,100 40,24 86,37 138,37zm335 130c-23,0 -42,-7 -56,-22 -14,-14 -22,-33 -22,-55l0 -229 28 -159 124 54 0 334c0,22 -7,40 -21,55 -14,14 -32,22 -54,22z"/>
  <path id="7" class="fil0" d="M8490 1174c-78,0 -148,-18 -209,-55 -62,-36 -111,-86 -147,-149 -36,-63 -54,-134 -55,-212l0 -682c0,-23 7,-41 22,-55 14,-14 33,-21 55,-21 23,0 41,7 55,21 14,14 21,32 21,55l0 404c35,-42 77,-75 126,-99 49,-24 103,-37 162,-37 73,0 138,18 196,55 58,36 103,86 137,148 33,62 50,133 50,212 0,79 -18,150 -55,212 -36,63 -86,112 -147,149 -62,36 -132,55 -211,55zm0 -135c51,0 96,-12 136,-37 40,-24 72,-58 95,-101 23,-43 35,-91 35,-144 0,-54 -12,-102 -35,-144 -23,-42 -55,-75 -95,-99 -40,-24 -85,-37 -136,-37 -50,0 -95,12 -135,37 -40,24 -72,58 -95,99 -23,42 -34,90 -34,144 0,53 11,101 34,144 23,43 55,77 95,101 40,24 86,37 135,37z"/>
  <path id="8" class="fil0" d="M9081 1168c-23,0 -40,-7 -52,-22 -12,-14 -18,-31 -18,-51 0,-19 6,-37 18,-53l377 -503 67 -60 344 -458c14,-15 32,-22 55,-22 21,0 37,6 49,19 12,13 18,29 19,48 1,19 -4,37 -16,55l-363 485 -64 57 -362 482c-15,15 -33,22 -54,22zm782 0c-13,0 -24,-2 -34,-7 -9,-4 -18,-12 -26,-22l-348 -483 -55 -46 -351 -488c-12,-16 -17,-33 -15,-52 2,-19 9,-35 22,-49 12,-14 29,-21 50,-21 26,0 44,7 55,22l332 461 57 46 369 513c12,16 17,34 16,54 -1,20 -8,37 -20,51 -12,14 -30,21 -52,21z"/>
  <path class="fil1" d="M1521 2127c-9,0 -16,-3 -22,-9 -6,-6 -9,-13 -9,-22l0 -399c0,-9 3,-16 9,-22 6,-6 13,-9 22,-9 9,0 16,3 22,9 6,6 8,13 8,22l0 399c0,9 -3,16 -8,22 -6,6 -13,9 -22,9z"/>
  <path id="1" class="fil1" d="M1970 2128c-9,0 -16,-3 -21,-9 -6,-6 -8,-13 -8,-22l0 -145c0,-22 -4,-41 -12,-55 -8,-14 -19,-25 -33,-32 -14,-7 -30,-10 -47,-10 -16,0 -31,3 -44,10 -13,7 -24,16 -31,27 -8,11 -12,24 -12,39l-37 0c0,-25 6,-47 18,-66 12,-19 28,-35 49,-46 21,-11 44,-17 69,-17 27,0 51,6 72,17 21,12 38,29 50,51 12,22 18,50 18,83l0 145c0,9 -3,16 -8,22 -6,6 -13,9 -21,9zm-239 0c-9,0 -16,-3 -21,-9 -6,-6 -8,-13 -8,-22l0 -263c0,-9 3,-16 8,-22 6,-6 13,-8 21,-8 9,0 16,3 22,8 5,6 8,13 8,22l0 263c0,9 -3,16 -8,22 -5,6 -13,9 -22,9z"/>
  <path id="2" class="fil1" d="M2407 2128c-9,0 -16,-3 -21,-9 -6,-6 -8,-13 -8,-22l0 -145c0,-22 -4,-41 -12,-55 -8,-14 -19,-25 -33,-32 -14,-7 -30,-10 -47,-10 -16,0 -31,3 -44,10 -13,7 -24,16 -31,27 -8,11 -12,24 -12,39l-37 0c0,-25 6,-47 18,-66 12,-19 28,-35 49,-46 21,-11 44,-17 69,-17 27,0 51,6 72,17 21,12 38,29 50,51 12,22 18,50 18,83l0 145c0,9 -3,16 -8,22 -6,6 -13,9 -21,9zm-239 0c-9,0 -16,-3 -21,-9 -6,-6 -8,-13 -8,-22l0 -263c0,-9 3,-16 8,-22 6,-6 13,-8 21,-8 9,0 16,3 22,8 5,6 8,13 8,22l0 263c0,9 -3,16 -8,22 -5,6 -13,9 -22,9z"/>
  <path id="3" class="fil1" d="M2719 2130c-31,0 -59,-7 -83,-21 -24,-14 -43,-33 -57,-58 -14,-25 -21,-53 -21,-85 0,-32 7,-61 21,-85 14,-25 33,-44 57,-58 24,-14 52,-21 83,-21 31,0 59,7 83,21 24,14 43,33 57,58 14,25 21,53 21,85 0,32 -7,60 -20,85 -14,25 -32,44 -56,58 -24,14 -52,21 -83,21zm0 -53c20,0 38,-5 54,-14 16,-9 28,-22 36,-39 9,-17 13,-36 13,-57 0,-22 -4,-41 -13,-57 -9,-17 -21,-30 -36,-39 -16,-9 -33,-14 -54,-14 -20,0 -38,5 -54,14 -16,9 -28,23 -37,39 -9,17 -13,36 -13,57 0,22 4,41 13,57 9,17 21,29 37,39 16,9 33,14 54,14z"/>
  <path id="4" class="fil1" d="M3098 2127c-12,0 -21,-6 -28,-19l-123 -264c-3,-7 -3,-13 -1,-20 3,-6 7,-11 15,-15 7,-4 13,-4 20,-2 7,2 12,7 15,14l115 252 -28 0 114 -252c3,-7 9,-11 16,-14 7,-2 14,-2 22,2 7,3 12,8 14,15 2,7 2,13 -1,20l-123 264c-6,13 -15,19 -27,19z"/>
  <path id="5" class="fil1" d="M3470 2130c-28,0 -54,-7 -76,-21 -22,-14 -40,-34 -53,-58 -13,-25 -20,-53 -20,-84 0,-31 7,-59 21,-84 14,-25 33,-44 58,-58 24,-14 52,-22 82,-22 31,0 58,7 82,22 24,14 43,34 57,59 14,25 21,53 21,84l-23 0c0,31 -7,59 -20,83 -13,25 -31,44 -53,58 -22,14 -48,22 -77,22zm12 -53c19,0 37,-5 52,-14 16,-10 28,-23 37,-40 9,-17 13,-35 13,-56 0,-21 -4,-40 -13,-57 -9,-17 -21,-30 -36,-40 -15,-10 -33,-14 -53,-14 -20,0 -38,5 -53,14 -16,10 -28,23 -37,39 -9,17 -14,36 -14,57 0,21 5,40 14,56 9,17 21,30 37,40 16,10 33,14 54,14zm130 51c-9,0 -16,-3 -22,-9 -6,-6 -8,-13 -8,-22l0 -90 11 -63 48 21 0 132c0,9 -3,16 -8,22 -5,6 -12,9 -21,9z"/>
  <path id="6" class="fil1" d="M3885 2127c-19,0 -37,-5 -52,-15 -16,-10 -28,-24 -37,-41 -9,-17 -13,-37 -13,-58l0 -281c0,-9 3,-16 8,-21 5,-6 12,-8 21,-8 9,0 16,3 21,8 5,6 8,13 8,21l0 281c0,16 4,29 13,40 9,11 19,16 31,16l20 0c7,0 13,3 18,8 5,6 7,13 7,21 0,9 -3,16 -10,21 -6,6 -15,8 -25,8l-10 0zm-129 -260c-8,0 -15,-2 -20,-7 -5,-5 -8,-11 -8,-18 0,-8 3,-14 8,-19 5,-5 12,-7 20,-7l134 0c8,0 15,2 20,7 5,5 8,11 8,19 0,7 -3,13 -8,18 -5,5 -12,7 -20,7l-134 0z"/>
  <path id="7" class="fil1" d="M4192 2130c-32,0 -61,-7 -86,-21 -25,-14 -45,-33 -59,-58 -14,-25 -21,-53 -21,-85 0,-32 7,-61 20,-85 13,-25 32,-44 56,-58 24,-14 51,-21 82,-21 30,0 56,7 78,20 22,14 38,32 50,56 11,24 17,51 17,82 0,7 -3,14 -8,19 -5,5 -11,7 -19,7l-235 0 0 -47 233 0 -24 17c0,-20 -4,-37 -12,-53 -7,-16 -18,-28 -31,-37 -14,-9 -30,-14 -49,-14 -22,0 -41,5 -57,15 -16,10 -28,23 -36,40 -8,17 -12,36 -12,58 0,22 5,41 15,58 10,17 23,30 40,40 17,10 37,15 59,15 12,0 24,-2 37,-7 13,-5 23,-10 31,-16 6,-4 12,-7 19,-7 7,0 13,2 18,6 7,6 10,12 10,19 0,7 -3,13 -9,18 -13,11 -30,19 -49,26 -20,7 -38,10 -56,10z"/>
  <path id="8" class="fil1" d="M4438 2229c-5,0 -8,-2 -11,-5 -3,-3 -4,-7 -4,-11 0,-8 2,-15 7,-20 4,-6 9,-12 13,-19 4,-7 7,-15 7,-24 0,-7 -2,-12 -5,-17 -3,-4 -7,-8 -10,-12 -4,-4 -7,-8 -10,-13 -3,-5 -5,-11 -5,-18 0,-11 3,-19 10,-27 7,-7 16,-11 29,-11 15,0 26,5 33,15 8,10 12,24 12,41 0,13 -2,26 -6,40 -4,14 -10,27 -16,38 -7,12 -14,21 -22,29 -8,7 -15,11 -22,11z"/>
  <path id="9" class="fil1" d="M4833 2127c-9,0 -16,-3 -22,-9 -6,-6 -9,-13 -9,-22l0 -399c0,-9 3,-16 9,-22 6,-6 13,-9 22,-9l105 0c33,0 64,6 91,17 27,11 51,27 71,48 20,21 36,45 47,73 11,28 16,59 16,93 0,34 -5,65 -16,93 -11,28 -26,52 -47,73 -20,21 -44,37 -71,48 -27,11 -58,17 -91,17l-105 0zm30 -54l75 0c33,0 61,-8 86,-23 25,-15 45,-36 59,-63 14,-27 22,-57 22,-91 0,-35 -7,-65 -22,-91 -14,-26 -34,-47 -59,-62 -25,-15 -54,-22 -86,-22l-75 0 0 352z"/>
  <path id="10" class="fil1" d="M5442 2130c-32,0 -61,-7 -86,-21 -25,-14 -45,-33 -59,-58 -14,-25 -21,-53 -21,-85 0,-32 7,-61 20,-85 13,-25 32,-44 56,-58 24,-14 51,-21 82,-21 30,0 56,7 78,20 22,14 38,32 50,56 11,24 17,51 17,82 0,7 -3,14 -8,19 -5,5 -11,7 -19,7l-235 0 0 -47 233 0 -24 17c0,-20 -4,-37 -12,-53 -7,-16 -18,-28 -31,-37 -14,-9 -30,-14 -49,-14 -22,0 -41,5 -57,15 -16,10 -28,23 -36,40 -8,17 -12,36 -12,58 0,22 5,41 15,58 10,17 23,30 40,40 17,10 37,15 59,15 12,0 24,-2 37,-7 13,-5 23,-10 31,-16 6,-4 12,-7 19,-7 7,0 13,2 18,6 7,6 10,12 10,19 0,7 -3,13 -9,18 -13,11 -30,19 -49,26 -20,7 -38,10 -56,10z"/>
  <path id="11" class="fil1" d="M5809 2130c-27,0 -52,-4 -75,-13 -23,-8 -41,-19 -54,-32 -6,-6 -8,-13 -7,-22 1,-8 5,-15 11,-20 8,-6 15,-9 23,-8 8,1 14,4 20,10 7,7 17,14 32,21 15,6 31,10 49,10 23,0 40,-4 52,-11 12,-7 18,-17 18,-29 0,-12 -5,-22 -17,-31 -11,-9 -32,-16 -63,-21 -39,-8 -68,-20 -85,-35 -18,-16 -26,-35 -26,-58 0,-20 6,-37 17,-50 12,-13 27,-23 45,-29 18,-6 37,-10 57,-10 26,0 48,4 68,12 20,8 36,20 47,34 5,6 8,13 8,20 0,7 -4,13 -10,17 -6,4 -14,6 -22,4 -9,-2 -16,-5 -22,-11 -10,-9 -20,-16 -31,-19 -11,-4 -24,-5 -39,-5 -17,0 -32,3 -43,9 -12,6 -18,15 -18,26 0,7 2,13 6,19 4,6 11,11 22,15 11,5 27,9 48,13 29,6 52,13 69,22 17,9 29,20 36,32 7,12 11,26 11,42 0,18 -5,34 -14,49 -10,15 -23,26 -42,35 -18,9 -41,13 -69,13z"/>
  <path id="12" class="fil1" d="M6084 2127c-9,0 -16,-3 -21,-9 -6,-6 -8,-13 -8,-22l0 -262c0,-9 3,-16 8,-22 6,-6 13,-8 21,-8 9,0 16,3 22,8 5,6 8,13 8,22l0 262c0,9 -3,16 -8,22 -5,6 -13,9 -22,9zm0 -375c-10,0 -20,-4 -27,-11 -8,-8 -11,-17 -11,-27 0,-11 4,-20 11,-27 8,-8 17,-11 27,-11 10,0 20,4 27,11 8,8 11,17 11,27 0,11 -4,20 -11,27 -8,8 -17,11 -27,11z"/>
  <path id="13" class="fil1" d="M6397 2130c-29,0 -55,-7 -77,-21 -22,-14 -40,-33 -53,-58 -13,-25 -19,-53 -19,-85 0,-32 7,-61 21,-85 14,-25 33,-44 57,-58 24,-14 52,-21 83,-21 31,0 59,7 83,21 24,14 43,33 57,58 14,25 21,53 21,85l-34 0c0,32 -6,60 -18,85 -12,25 -28,44 -49,58 -21,14 -44,21 -71,21zm10 132c-28,0 -53,-6 -77,-17 -24,-11 -44,-27 -61,-48 -5,-7 -7,-14 -6,-21 1,-7 5,-13 11,-17 7,-5 14,-6 22,-5 8,2 14,6 18,12 10,13 24,24 40,31 16,7 34,11 54,11 19,0 36,-5 52,-14 16,-9 28,-22 38,-40 9,-18 14,-39 14,-65l0 -84 19 -52 38 12 0 127c0,31 -7,59 -20,85 -14,25 -33,46 -57,60 -24,15 -52,22 -84,22zm1 -185c20,0 38,-5 54,-14 16,-9 28,-22 36,-39 9,-17 13,-36 13,-57 0,-22 -4,-41 -13,-57 -9,-17 -21,-30 -36,-39 -16,-9 -33,-14 -54,-14 -20,0 -38,5 -54,14 -16,9 -28,23 -37,39 -9,17 -13,36 -13,57 0,22 4,41 13,57 9,17 21,29 37,39 16,9 33,14 54,14z"/>
  <path id="14" class="fil1" d="M6966 2128c-9,0 -16,-3 -21,-9 -6,-6 -8,-13 -8,-22l0 -145c0,-22 -4,-41 -12,-55 -8,-14 -19,-25 -33,-32 -14,-7 -30,-10 -47,-10 -16,0 -31,3 -44,10 -13,7 -24,16 -31,27 -8,11 -12,24 -12,39l-37 0c0,-25 6,-47 18,-66 12,-19 28,-35 49,-46 21,-11 44,-17 69,-17 27,0 51,6 72,17 21,12 38,29 50,51 12,22 18,50 18,83l0 145c0,9 -3,16 -8,22 -6,6 -13,9 -21,9zm-239 0c-9,0 -16,-3 -21,-9 -6,-6 -8,-13 -8,-22l0 -263c0,-9 3,-16 8,-22 6,-6 13,-8 21,-8 9,0 16,3 22,8 5,6 8,13 8,22l0 263c0,9 -3,16 -8,22 -5,6 -13,9 -22,9z"/>
  <path id="15" class="fil1" d="M7128 2229c-5,0 -8,-2 -11,-5 -3,-3 -4,-7 -4,-11 0,-8 2,-15 7,-20 4,-6 9,-12 13,-19 4,-7 7,-15 7,-24 0,-7 -2,-12 -5,-17 -3,-4 -7,-8 -10,-12 -4,-4 -7,-8 -10,-13 -3,-5 -5,-11 -5,-18 0,-11 3,-19 10,-27 7,-7 16,-11 29,-11 15,0 26,5 33,15 8,10 12,24 12,41 0,13 -2,26 -6,40 -4,14 -10,27 -16,38 -7,12 -14,21 -22,29 -8,7 -15,11 -22,11z"/>
  <path id="16" class="fil1" d="M7584 2135c-24,0 -46,-5 -65,-14 -19,-9 -33,-22 -43,-40 -10,-17 -15,-38 -15,-62 0,-27 9,-51 27,-73 18,-22 41,-44 70,-68l48 -39c21,-17 34,-31 40,-44 6,-13 9,-26 9,-39 0,-15 -5,-28 -15,-39 -10,-11 -24,-17 -43,-17 -17,0 -31,5 -41,15 -10,10 -16,22 -16,36 0,10 2,20 7,30 4,10 12,20 22,30l265 268c6,6 10,12 10,18 1,6 -2,11 -8,18 -12,13 -25,13 -37,0l-268 -271c-13,-14 -23,-28 -30,-43 -7,-15 -10,-31 -10,-48 0,-19 5,-36 14,-51 9,-15 22,-27 38,-36 16,-9 35,-13 55,-13 21,0 39,5 56,14 16,9 29,21 38,37 9,16 14,33 14,53 0,15 -3,29 -8,42 -5,13 -13,25 -24,37 -11,12 -25,25 -43,39l-46 37c-13,11 -25,21 -36,32 -10,11 -19,22 -25,34 -6,12 -9,24 -9,37 0,22 6,39 18,50 12,11 29,17 51,17 23,0 44,-5 61,-16 17,-11 35,-26 53,-45l85 -91c6,-6 11,-10 16,-12 5,-2 11,1 17,6 6,6 9,12 10,18 0,6 -3,13 -8,19l-85 91c-20,23 -42,42 -66,57 -24,15 -51,22 -82,22z"/>
  <path id="17" class="fil1" d="M8158 2127c-9,0 -16,-3 -22,-9 -6,-6 -9,-13 -9,-22l0 -399c0,-9 3,-16 9,-22 6,-6 13,-9 22,-9l139 0c26,0 50,5 70,16 20,10 36,25 47,43 11,18 17,40 17,64 0,19 -5,37 -15,52 -10,16 -24,28 -42,37 26,6 46,19 62,37 16,18 23,43 23,73 0,27 -6,51 -19,72 -13,21 -30,37 -53,49 -23,12 -48,18 -77,18l-151 0zm30 -57l121 0c18,0 34,-3 47,-9 14,-6 24,-16 32,-28 8,-12 12,-27 12,-45 0,-17 -4,-31 -12,-42 -8,-11 -18,-19 -32,-25 -14,-6 -29,-9 -47,-9l-121 0 0 158zm0 -215l109 0c22,0 40,-6 54,-17 14,-11 21,-28 21,-50 0,-22 -7,-39 -21,-50 -14,-11 -32,-16 -54,-16l-109 0 0 133z"/>
  <path id="18" class="fil1" d="M8717 2130c-27,0 -51,-6 -72,-17 -21,-12 -38,-29 -50,-51 -12,-22 -18,-50 -18,-83l0 -145c0,-9 3,-16 8,-22 6,-6 13,-9 21,-9 9,0 16,3 21,9 6,6 8,13 8,22l0 145c0,22 4,40 12,55 8,14 19,25 33,32 14,7 30,10 47,10 17,0 32,-3 45,-10 13,-7 23,-16 31,-27 8,-11 12,-24 12,-38l37 0c0,24 -6,46 -18,66 -12,20 -28,35 -48,47 -20,11 -44,17 -70,17zm129 -3c-9,0 -16,-3 -21,-9 -6,-6 -8,-13 -8,-22l0 -263c0,-9 3,-16 8,-22 6,-6 13,-8 21,-8 9,0 16,3 22,8 5,6 8,13 8,22l0 263c0,9 -3,16 -8,22 -5,6 -13,9 -22,9z"/>
  <path id="19" class="fil1" d="M9055 2127c-9,0 -16,-3 -21,-9 -6,-6 -8,-13 -8,-22l0 -262c0,-9 3,-16 8,-22 6,-6 13,-8 21,-8 9,0 16,3 22,8 5,6 8,13 8,22l0 262c0,9 -3,16 -8,22 -5,6 -13,9 -22,9zm0 -375c-10,0 -20,-4 -27,-11 -8,-8 -11,-17 -11,-27 0,-11 4,-20 11,-27 8,-8 17,-11 27,-11 10,0 20,4 27,11 8,8 11,17 11,27 0,11 -4,20 -11,27 -8,8 -17,11 -27,11z"/>
  <path id="20" class="fil1" d="M9310 2127c-17,0 -32,-5 -45,-14 -13,-9 -23,-22 -31,-38 -7,-16 -11,-35 -11,-57l0 -322c0,-9 3,-16 8,-22 5,-5 12,-8 21,-8 9,0 16,3 21,8 5,5 8,12 8,22l0 322c0,15 3,27 8,36 5,9 12,14 21,14l15 0c8,0 14,3 19,8 5,6 7,13 7,21 0,9 -4,16 -11,22 -7,5 -17,8 -29,8l-1 0z"/>
  <path id="21" class="fil1" d="M9576 2130c-30,0 -58,-7 -82,-22 -24,-14 -43,-34 -58,-59 -14,-25 -21,-53 -21,-84 0,-31 7,-59 20,-83 13,-25 31,-44 53,-58 23,-14 48,-22 76,-22 23,0 44,5 63,14 19,10 36,23 49,39l0 -159c0,-9 3,-16 8,-22 6,-6 13,-8 21,-8 9,0 16,3 22,8 5,6 8,13 8,22l0 269c0,31 -7,59 -21,84 -14,25 -33,44 -57,59 -24,14 -51,22 -82,22zm0 -53c20,0 37,-5 53,-14 16,-10 28,-23 37,-40 9,-17 13,-36 13,-57 0,-21 -4,-40 -13,-57 -9,-17 -21,-30 -37,-39 -16,-10 -33,-14 -53,-14 -19,0 -37,5 -53,14 -16,10 -28,23 -37,39 -9,17 -14,35 -14,57 0,21 5,40 14,57 9,17 22,30 37,40 16,10 33,14 53,14z"/>
  <path id="22" class="fil1" d="M9897 2137c-11,0 -20,-4 -28,-12 -8,-8 -12,-18 -12,-29 0,-11 4,-21 12,-29 8,-8 17,-12 28,-12 11,0 21,4 29,12 8,8 12,18 12,29 0,11 -4,21 -12,29 -8,8 -17,12 -29,12z"/>
  <path class="fil2 str0" d="M0 1430l7031 0 288 0m0 0l403 0 735 0"/>
 </g>
</svg>
