<?xml version="1.0" encoding="UTF-8"?>
<!DOCTYPE svg PUBLIC "-//W3C//DTD SVG 1.1//EN" "http://www.w3.org/Graphics/SVG/1.1/DTD/svg11.dtd">
<!-- Creator: CorelDRAW X6 -->
<svg xmlns="http://www.w3.org/2000/svg" xml:space="preserve" width="6.8848in" height="2.64629in" version="1.1" style="shape-rendering:geometricPrecision; text-rendering:geometricPrecision; image-rendering:optimizeQuality; fill-rule:evenodd; clip-rule:evenodd"
viewBox="0 0 6811 2618"
 xmlns:xlink="http://www.w3.org/1999/xlink">
 <defs>
  <style type="text/css">
   <![CDATA[
    .str0 {stroke:#E6E7E8;stroke-width:54.9616}
    .fil1 {fill:none}
    .fil0 {fill:#E6E7E8;fill-rule:nonzero}
   ]]>
  </style>
 </defs>
 <g id="Layer_x0020_1">
  <metadata id="CorelCorpID_0Corel-Layer"/>
  <path class="fil0" d="M830 24l119 505 54 224 49 203 7 26 -331 0 -105 -479 -224 421 -230 -399c-22,97 -47,217 -73,358 -9,54 -16,86 -20,96 -4,10 -13,15 -25,15 -16,0 -24,-7 -24,-20 0,-4 5,-27 15,-68l34 -145 59 -249 115 -487 299 536 283 -536z"/>
  <path id="1" class="fil0" d="M1350 634l0 210c0,41 2,66 6,77 8,21 26,31 54,31 42,0 84,-14 125,-43 41,-29 77,-68 107,-119 10,-17 17,-27 21,-32 4,-4 9,-7 14,-7 6,0 11,3 15,8 4,6 6,13 6,21 0,19 -12,44 -36,76 -32,41 -72,74 -119,100 -47,26 -94,38 -139,38 -78,0 -146,-32 -205,-97 -35,-38 -61,-85 -80,-140 -16,-49 -25,-98 -25,-147 0,-47 7,-94 22,-141 15,-47 35,-88 60,-122 30,-40 64,-72 105,-94 40,-22 81,-33 124,-33 67,0 128,25 183,74 85,77 127,189 127,335l-127 0 -164 1 -75 1zm141 -47l0 -197c-1,-42 -1,-68 -2,-76 -1,-8 -3,-16 -8,-23 -10,-18 -31,-26 -63,-26 -32,0 -52,10 -60,30 -5,12 -8,44 -8,95l0 197 67 4 74 -4z"/>
  <path id="2" class="fil0" d="M2087 0l-6 219 -1 21c32,0 60,-2 86,-5 4,0 8,-1 11,-1 16,0 24,9 24,27 0,17 -8,25 -25,25 -5,0 -12,0 -19,-1 -28,-3 -49,-4 -61,-4l-16 0 -1 132 2 265 1 141c0,33 2,56 6,69 4,13 11,20 21,20 13,0 27,-9 42,-28 15,-19 26,-42 35,-70 8,-26 17,-39 27,-39 12,0 19,9 19,26 0,17 -6,39 -19,64 -12,25 -27,48 -45,67 -43,47 -99,70 -167,70 -64,0 -114,-24 -149,-72 -18,-25 -31,-52 -38,-82 -7,-30 -10,-72 -10,-125l0 -51 1 -143 0 -243c-5,0 -9,-1 -11,-1 -4,0 -11,0 -22,1 -9,1 -17,1 -23,1 -18,0 -27,-9 -27,-26 0,-17 9,-25 26,-25 8,0 14,0 17,1l40 3 0 -77c107,-48 201,-102 281,-160z"/>
  <path id="3" class="fil0" d="M2548 451l-1 260 3 270 -281 0 1 -37 1 -138 2 -249 -3 -277 -1 -39 279 0 0 140c42,-55 71,-90 87,-104 38,-33 73,-50 106,-50 20,0 37,5 50,16 13,11 20,25 20,41 0,13 -4,24 -12,32 -8,9 -18,13 -30,13 -8,0 -16,-3 -25,-8 -16,-9 -29,-14 -40,-14 -26,0 -51,11 -75,33 -24,22 -51,59 -81,110z"/>
  <path id="4" class="fil0" d="M3222 26c57,0 113,15 166,45 78,45 138,114 180,207 33,75 49,156 49,244 0,71 -12,139 -38,205 -37,99 -96,174 -175,225 -58,38 -119,56 -183,56 -67,0 -131,-21 -192,-64 -80,-56 -137,-135 -171,-236 -21,-62 -32,-126 -32,-192 0,-83 17,-162 49,-237 41,-92 100,-161 178,-207 52,-30 107,-46 167,-46zm-42 46l-3 442 3 368 1 83c12,3 24,4 35,4 80,0 151,-28 214,-83 57,-51 99,-116 125,-195 18,-56 27,-113 27,-173 0,-79 -15,-152 -46,-220 -37,-83 -90,-145 -157,-184 -51,-30 -104,-45 -160,-45 -13,0 -26,1 -38,4z"/>
  <path id="5" class="fil0" d="M4041 54l-2 142 -2 226 0 165 2 349 39 1 232 -5 42 -1c21,0 32,8 32,24 0,14 -6,22 -17,24 -3,0 -11,1 -25,1l-636 0 1 -258 1 -158 1 -179 -2 -273 1 -58 331 0z"/>
  <path id="6" class="fil0" d="M4839 531l0 -83c0,-58 -1,-93 -2,-106 -1,-13 -4,-25 -10,-35 -13,-25 -43,-38 -92,-38 -74,0 -131,29 -172,86 -16,23 -30,35 -41,35 -8,0 -16,-4 -22,-11 -6,-7 -9,-16 -9,-25 0,-28 27,-57 81,-88 51,-29 118,-43 200,-43 134,0 229,25 284,76 24,22 40,47 47,75 7,28 11,76 11,146l0 269c-1,50 0,87 4,112 4,25 12,52 25,81l-306 0 0 -71c-33,28 -67,50 -99,64 -33,15 -65,22 -97,22 -54,0 -102,-20 -144,-59 -55,-51 -82,-118 -82,-201 0,-73 22,-132 67,-176 52,-53 116,-79 192,-79 31,0 59,3 83,11 24,7 51,20 82,39zm0 49c-46,-29 -81,-43 -106,-43 -21,0 -35,10 -41,31 -4,11 -5,44 -5,98l0 162c0,36 1,57 3,65 4,21 16,31 37,31 17,0 35,-6 55,-19 20,-13 39,-29 56,-49l2 -277z"/>
  <path id="7" class="fil0" d="M5239 54l280 0 -3 258c28,-30 56,-53 86,-68 30,-15 60,-22 92,-22 71,0 135,32 192,97 64,73 96,167 96,284 0,120 -33,220 -99,298 -54,63 -115,95 -185,95 -36,0 -67,-8 -95,-24 -28,-16 -57,-43 -86,-80l0 89 -278 0 0 -31 1 -329 0 -235 -1 -332zm277 314l0 461c24,32 43,55 58,70 29,29 55,44 79,44 16,0 27,-10 32,-29 2,-9 3,-32 4,-68l0 -455 1 -30c0,-34 -2,-58 -7,-70 -5,-12 -14,-19 -28,-19 -17,0 -38,8 -60,24 -23,16 -48,40 -77,72z"/>
  <path id="8" class="fil0" d="M6531 537l43 74c51,89 94,161 129,214 35,54 71,106 108,155l-356 0 -177 -302c-67,84 -131,173 -191,267 -21,34 -36,51 -46,51 -5,0 -11,-4 -18,-12 -6,-8 -9,-15 -9,-21 0,-11 13,-32 39,-62 63,-75 130,-161 202,-259l-48 -84c-88,-154 -155,-260 -202,-318l355 0 149 261c77,-106 132,-186 167,-241 16,-26 29,-40 38,-40 6,0 12,4 18,12 7,8 10,15 10,22 0,9 -10,25 -30,48 -14,16 -43,52 -86,109l-94 126z"/>
  <path class="fil0" d="M546 1458l-120 0 0 303 120 0c48,0 86,-14 114,-41 28,-27 42,-64 42,-110 0,-46 -14,-82 -42,-110 -28,-28 -66,-42 -113,-42zm0 -45c62,0 112,18 149,55 38,37 57,84 57,143 0,59 -19,106 -56,142 -37,36 -87,53 -150,53l-168 0 0 -393 168 0z"/>
  <polygon id="1" class="fil0" points="887,1805 887,1501 1172,1501 1172,1546 935,1546 935,1622 1091,1622 1091,1665 935,1665 935,1762 1185,1762 1185,1805 "/>
  <path id="2" class="fil0" d="M1283 1766l23 -40c21,14 44,25 68,33 25,8 48,12 71,12 27,0 49,-5 66,-17 17,-11 25,-25 25,-42 0,-17 -8,-30 -23,-39 -15,-8 -39,-13 -72,-14 -55,-1 -93,-7 -114,-19 -21,-12 -31,-32 -31,-60 0,-26 11,-47 34,-63 23,-16 53,-24 91,-24 26,0 51,4 76,11 25,7 48,18 71,33l-24 39c-19,-13 -39,-23 -61,-30 -22,-7 -43,-10 -63,-10 -23,0 -42,4 -56,12 -14,8 -21,19 -21,32 0,13 7,23 21,29 14,6 39,9 74,9 48,0 85,8 110,25 25,16 37,41 37,73 0,29 -13,52 -38,72 -25,19 -57,28 -97,28 -30,0 -59,-4 -88,-13 -29,-8 -56,-20 -80,-36z"/>
  <polygon id="3" class="fil0" points="1727,1805 1727,1501 1776,1501 1776,1805 "/>
  <path id="4" class="fil0" d="M2143 1687l0 -44 125 0 0 92c-18,26 -40,46 -69,59 -28,13 -61,20 -98,20 -56,0 -102,-15 -137,-45 -36,-30 -53,-69 -53,-115 0,-47 18,-85 54,-115 36,-30 82,-46 137,-46 35,0 66,6 93,18 27,12 50,30 68,53l-37 26c-13,-17 -30,-30 -52,-40 -22,-10 -46,-14 -73,-14 -42,0 -76,11 -102,33 -27,22 -40,50 -40,84 0,34 13,61 40,84 26,22 61,33 102,33 26,0 50,-5 73,-14 22,-9 38,-22 46,-36l0 -33 -77 0z"/>
  <polygon id="5" class="fil0" points="2413,1805 2413,1501 2437,1501 2631,1715 2631,1501 2677,1501 2677,1805 2652,1805 2459,1592 2459,1805 "/>
  <path id="6" class="fil0" d="M3054 1766l23 -40c21,14 44,25 68,33 25,8 48,12 71,12 27,0 49,-5 66,-17 17,-11 25,-25 25,-42 0,-17 -8,-30 -23,-39 -15,-8 -39,-13 -72,-14 -55,-1 -93,-7 -114,-19 -21,-12 -31,-32 -31,-60 0,-26 11,-47 34,-63 23,-16 53,-24 91,-24 26,0 51,4 76,11 25,7 48,18 71,33l-24 39c-19,-13 -39,-23 -61,-30 -22,-7 -43,-10 -63,-10 -23,0 -42,4 -56,12 -14,8 -21,19 -21,32 0,13 7,23 21,29 14,6 39,9 74,9 48,0 85,8 110,25 25,16 37,41 37,73 0,29 -13,52 -38,72 -25,19 -57,28 -97,28 -30,0 -59,-4 -88,-13 -29,-8 -56,-20 -80,-36z"/>
  <path id="7" class="fil0" d="M3657 1770c41,0 74,-11 99,-33 26,-22 38,-50 38,-84 0,-34 -13,-61 -39,-84 -26,-22 -59,-33 -99,-33 -40,0 -73,11 -99,33 -26,22 -38,50 -38,84 0,34 13,62 38,84 26,22 58,33 99,33zm0 44c-54,0 -99,-15 -134,-46 -35,-30 -52,-69 -52,-115 0,-46 17,-85 52,-115 35,-30 79,-45 134,-45 55,0 100,15 134,45 35,30 52,69 52,115 0,47 -17,85 -52,115 -35,30 -80,46 -134,46z"/>
  <polygon id="8" class="fil0" points="3978,1805 3978,1501 4025,1501 4025,1762 4251,1762 4251,1805 "/>
  <path id="9" class="fil0" d="M4362 1502l47 0 0 195c0,29 7,49 21,59 14,10 41,15 82,15 41,0 69,-5 82,-15 14,-10 21,-30 21,-59l0 -195 47 0 0 207c0,37 -12,64 -35,81 -24,17 -62,25 -116,25 -53,0 -91,-8 -115,-25 -23,-16 -35,-43 -35,-81l0 -207z"/>
  <polygon id="10" class="fil0" points="4895,1805 4895,1544 4767,1544 4767,1501 5071,1501 5071,1544 4943,1544 4943,1805 "/>
  <polygon id="11" class="fil0" points="5175,1805 5175,1501 5223,1501 5223,1805 "/>
  <path id="12" class="fil0" d="M5544 1770c41,0 74,-11 99,-33 26,-22 38,-50 38,-84 0,-34 -13,-61 -39,-84 -26,-22 -59,-33 -99,-33 -40,0 -73,11 -99,33 -26,22 -38,50 -38,84 0,34 13,62 38,84 26,22 58,33 99,33zm0 44c-54,0 -99,-15 -134,-46 -35,-30 -52,-69 -52,-115 0,-46 17,-85 52,-115 35,-30 79,-45 134,-45 55,0 100,15 134,45 35,30 52,69 52,115 0,47 -17,85 -52,115 -35,30 -80,46 -134,46z"/>
  <polygon id="13" class="fil0" points="5865,1805 5865,1501 5890,1501 6083,1715 6083,1501 6130,1501 6130,1805 6105,1805 5912,1592 5912,1805 "/>
  <path id="14" class="fil0" d="M6264 1766l23 -40c21,14 44,25 68,33 25,8 48,12 71,12 27,0 49,-5 66,-17 17,-11 25,-25 25,-42 0,-17 -8,-30 -23,-39 -15,-8 -39,-13 -72,-14 -55,-1 -93,-7 -114,-19 -21,-12 -31,-32 -31,-60 0,-26 11,-47 34,-63 23,-16 53,-24 91,-24 26,0 51,4 76,11 25,7 48,18 71,33l-24 39c-19,-13 -39,-23 -61,-30 -22,-7 -43,-10 -63,-10 -23,0 -42,4 -56,12 -14,8 -21,19 -21,32 0,13 7,23 21,29 14,6 39,9 74,9 48,0 85,8 110,25 25,16 37,41 37,73 0,29 -13,52 -38,72 -25,19 -57,28 -97,28 -30,0 -59,-4 -88,-13 -29,-8 -56,-20 -80,-36z"/>
  <path id="15" class="fil0" d="M6744 1867c7,-10 13,-21 18,-31 5,-10 9,-21 13,-31l-3 0c-7,0 -13,-3 -18,-9 -5,-6 -7,-14 -7,-23 0,-10 3,-19 9,-25 6,-7 13,-10 22,-10 10,0 18,4 24,13 6,9 9,20 9,35 0,13 -4,27 -13,43 -9,16 -22,32 -40,50l-13 -12z"/>
  <path id="16" class="fil0" d="M603 2370l188 0c21,0 36,-5 47,-14 11,-9 16,-23 16,-40 0,-18 -5,-32 -16,-42 -11,-9 -26,-14 -48,-14l-188 0 0 110zm0 192l206 0c22,0 40,-7 53,-20 13,-13 19,-31 19,-54 0,-22 -6,-40 -19,-54 -13,-13 -30,-20 -53,-20l-206 0 0 147zm-49 45l0 -393 232 0c39,0 68,8 88,25 20,17 30,41 30,73 0,16 -3,30 -9,42 -6,12 -15,22 -26,30 21,12 37,27 47,44 11,18 16,38 16,61 0,36 -12,65 -36,86 -24,21 -56,32 -97,32l-245 0z"/>
  <path id="17" class="fil0" d="M1080 2305l47 0 0 195c0,29 7,49 21,59 14,10 41,15 82,15 41,0 69,-5 82,-15 14,-10 21,-30 21,-59l0 -195 47 0 0 207c0,37 -12,64 -35,81 -24,17 -62,25 -116,25 -53,0 -91,-8 -115,-25 -23,-16 -35,-43 -35,-81l0 -207z"/>
  <polygon id="18" class="fil0" points="1542,2608 1542,2303 1590,2303 1590,2608 "/>
  <polygon id="19" class="fil0" points="1752,2608 1752,2304 1799,2304 1799,2564 2025,2564 2025,2608 "/>
  <path id="20" class="fil0" d="M2271 2304c50,0 90,14 120,43 30,28 46,65 46,111 0,46 -15,82 -45,110 -30,27 -70,41 -121,41l-135 0 0 -304 135 0zm1 44l-88 0 0 216 88 0c36,0 65,-10 85,-29 21,-19 31,-46 31,-79 0,-32 -11,-58 -32,-78 -21,-20 -49,-30 -84,-30z"/>
  <polygon id="21" class="fil0" points="3657,2608 3657,2213 3707,2213 3707,2608 "/>
  <polygon id="22" class="fil0" points="3874,2608 3874,2304 3899,2304 4092,2517 4092,2304 4139,2304 4139,2608 4114,2608 3921,2395 3921,2608 "/>
  <polygon id="23" class="fil0" points="4300,2608 4300,2304 4325,2304 4518,2517 4518,2304 4565,2304 4565,2608 4540,2608 4347,2395 4347,2608 "/>
  <path id="24" class="fil0" d="M4885 2573c41,0 74,-11 99,-33 26,-22 38,-50 38,-84 0,-34 -13,-61 -39,-84 -26,-22 -59,-33 -99,-33 -40,0 -73,11 -99,33 -26,22 -38,50 -38,84 0,34 13,62 38,84 26,22 58,33 99,33zm0 44c-54,0 -99,-15 -134,-46 -35,-30 -52,-69 -52,-115 0,-46 17,-85 52,-115 35,-30 79,-45 134,-45 55,0 100,15 134,45 35,30 52,69 52,115 0,47 -17,85 -52,115 -35,30 -80,46 -134,46z"/>
  <polygon id="25" class="fil0" points="5338,2608 5313,2608 5161,2304 5211,2304 5325,2531 5438,2304 5490,2304 "/>
  <path id="26" class="fil0" d="M5628 2490l119 0 -59 -117 -60 117zm-110 117l155 -304 30 0 156 304 -51 0 -39 -77 -160 0 -39 77 -50 0z"/>
  <polygon id="27" class="fil0" points="6006,2608 6006,2346 5878,2346 5878,2304 6182,2304 6182,2346 6054,2346 6054,2608 "/>
  <polygon id="28" class="fil0" points="6285,2608 6285,2304 6570,2304 6570,2348 6333,2348 6333,2424 6489,2424 6489,2468 6333,2468 6333,2564 6584,2564 6584,2608 "/>
  <path id="29" class="fil0" d="M6778 2553c8,0 15,3 21,9 6,6 8,14 8,24 0,9 -3,17 -8,23 -6,6 -13,9 -21,9 -9,0 -16,-3 -21,-9 -6,-6 -9,-14 -9,-23 0,-9 3,-17 9,-24 6,-6 13,-9 21,-9z"/>
  <path id="30" class="fil0" d="M2916 2342c-38,-39 -57,-75 -57,-109 0,-27 10,-50 31,-70 20,-20 46,-30 75,-30 28,0 50,8 67,23 17,15 25,33 25,52 0,29 -19,61 -58,95 45,36 86,87 125,156 20,-33 30,-64 30,-94 0,-25 -12,-39 -37,-40 -10,-1 -15,-4 -15,-11 0,-6 7,-10 20,-10l71 1c14,0 30,-1 49,-2 9,-1 15,-1 18,-1 8,0 13,3 13,10 0,5 -5,8 -14,11 -16,4 -28,9 -36,16 -8,6 -15,13 -19,21 -4,8 -15,29 -32,64 -11,22 -22,42 -34,58 30,62 58,93 84,93 10,0 22,-4 34,-12 7,-4 11,-7 14,-7 7,0 10,3 10,10 0,7 -13,17 -38,31 -25,14 -50,21 -74,21 -19,0 -35,-6 -49,-17 -14,-12 -28,-29 -41,-51 -56,46 -108,69 -156,69 -37,0 -67,-11 -91,-32 -24,-21 -36,-50 -36,-85 0,-20 6,-41 17,-64 11,-22 46,-53 104,-93zm64 -57c23,-23 35,-46 35,-71 0,-19 -5,-33 -16,-43 -11,-10 -23,-15 -36,-15 -11,0 -21,4 -29,13 -8,9 -13,19 -13,33 0,25 20,53 60,84zm-48 74c-35,28 -52,59 -52,92 0,26 9,52 27,76 18,24 42,36 71,36 27,0 56,-13 88,-38 -35,-65 -79,-121 -134,-167z"/>
  <line class="fil1 str0" x1="0" y1="1196" x2="6811" y2= "1196" />
 </g>
</svg>
