<?xml version="1.0" encoding="UTF-8"?>
<!DOCTYPE svg PUBLIC "-//W3C//DTD SVG 1.1//EN" "http://www.w3.org/Graphics/SVG/1.1/DTD/svg11.dtd">
<!-- Creator: CorelDRAW X6 -->
<svg xmlns="http://www.w3.org/2000/svg" xml:space="preserve" width="6.8863in" height="2.63221in" version="1.1" style="shape-rendering:geometricPrecision; text-rendering:geometricPrecision; image-rendering:optimizeQuality; fill-rule:evenodd; clip-rule:evenodd"
viewBox="0 0 6861 2623"
 xmlns:xlink="http://www.w3.org/1999/xlink">
 <defs>
  <style type="text/css">
   <![CDATA[
    .str0 {stroke:#373435;stroke-width:2.98899}
    .str1 {stroke:#373435;stroke-width:55.3513}
    .fil2 {fill:none}
    .fil1 {fill:none;fill-rule:nonzero}
    .fil0 {fill:#141213;fill-rule:nonzero}
   ]]>
  </style>
 </defs>
 <g id="Layer_x0020_1">
  <metadata id="CorelCorpID_0Corel-Layer"/>
  <path class="fil0" d="M837 25l124 525 56 232 50 211 7 27 -344 0 -109 -498 -232 437 -239 -414c-23,101 -48,225 -76,372 -10,56 -17,89 -21,100 -4,11 -13,16 -26,16 -17,0 -25,-7 -25,-21 0,-4 5,-28 16,-71l35 -150 61 -259 119 -506 310 557 294 -557z"/>
  <path id="1" class="fil0" d="M1378 658l0 218c0,42 2,69 6,80 8,21 27,32 56,32 44,0 87,-15 130,-45 43,-30 80,-71 111,-123 10,-17 18,-28 22,-33 4,-5 9,-7 15,-7 6,0 12,3 16,9 4,6 6,13 6,22 0,20 -13,46 -38,79 -33,43 -75,77 -124,104 -49,27 -97,40 -144,40 -81,0 -151,-34 -213,-101 -36,-39 -63,-88 -83,-146 -17,-51 -25,-102 -25,-152 0,-49 8,-98 23,-147 15,-49 36,-91 62,-127 31,-42 67,-74 109,-97 41,-23 84,-34 129,-34 70,0 133,26 190,77 88,80 132,196 131,348l-132 0 -170 1 -78 1zm146 -49l0 -204c-1,-44 -2,-70 -2,-79 -1,-9 -3,-17 -8,-24 -11,-18 -32,-27 -65,-27 -33,0 -54,11 -63,32 -5,13 -8,45 -8,99l0 204 70 4 76 -4z"/>
  <path id="2" class="fil0" d="M2143 0l-6 228 -1 22c33,0 63,-2 89,-5 4,0 8,-1 12,-1 17,0 25,9 25,28 0,18 -9,26 -26,26 -5,0 -12,0 -20,-1 -30,-3 -51,-4 -64,-4l-16 0 -1 137 2 275 2 147c0,34 2,58 6,72 4,13 12,20 22,20 14,0 28,-10 44,-30 15,-20 27,-44 36,-73 8,-27 17,-41 28,-41 13,0 19,9 19,27 0,18 -6,40 -19,67 -13,26 -28,50 -46,69 -45,48 -103,73 -174,73 -67,0 -119,-25 -155,-75 -19,-25 -32,-54 -39,-85 -7,-31 -11,-75 -11,-130l0 -53 1 -149 0 -252c-5,0 -9,-1 -11,-1 -4,0 -11,0 -23,1 -9,1 -18,1 -24,1 -19,0 -28,-9 -28,-27 0,-17 9,-26 27,-26 8,0 14,0 18,1l42 4 0 -80c112,-50 209,-106 292,-166z"/>
  <path id="3" class="fil0" d="M2622 468l-1 270 3 280 -292 0 1 -39 1 -144 2 -258 -3 -287 -1 -41 290 0 0 145c43,-57 73,-93 90,-108 39,-34 76,-51 110,-51 21,0 38,6 52,17 14,11 21,25 21,43 0,14 -4,25 -12,34 -8,9 -19,13 -31,13 -8,0 -17,-3 -26,-8 -17,-10 -30,-15 -41,-15 -27,0 -53,12 -78,35 -25,23 -53,61 -84,115z"/>
  <path id="4" class="fil0" d="M3188 231c61,0 118,21 173,63 50,38 88,91 115,158 23,59 35,121 35,187 0,45 -7,90 -21,136 -14,46 -33,86 -56,121 -33,48 -74,85 -122,109 -39,20 -80,30 -123,30 -71,0 -136,-26 -192,-79 -44,-40 -78,-92 -101,-156 -19,-54 -29,-110 -29,-170 0,-117 34,-213 102,-290 64,-71 137,-108 220,-109zm-17 45l-1 712c12,1 20,1 24,1 53,0 103,-18 151,-55 46,-36 81,-83 104,-143 18,-47 27,-99 27,-155 0,-114 -34,-205 -101,-276 -54,-57 -114,-85 -178,-85 -5,0 -14,0 -26,1z"/>
  <path id="5" class="fil0" d="M3948 56l-2 147 -2 235 0 172 2 363 41 1 241 -5 44 -1c22,0 33,8 33,25 0,15 -6,23 -18,25 -3,0 -11,1 -26,1l-660 0 1 -268 1 -164 1 -186 -2 -284 1 -61 344 0z"/>
  <path id="6" class="fil0" d="M4777 551l0 -86c0,-60 -1,-97 -2,-110 -1,-13 -4,-26 -10,-37 -14,-26 -45,-40 -95,-40 -77,0 -137,30 -178,89 -17,24 -31,36 -43,36 -9,0 -16,-4 -23,-11 -6,-7 -10,-16 -10,-26 0,-29 28,-60 84,-91 53,-30 123,-45 208,-45 140,0 238,26 295,79 25,23 41,49 49,77 8,29 11,79 11,151l0 280c-2,51 0,90 4,116 4,26 13,54 26,84l-317 0 0 -74c-35,30 -69,52 -103,67 -34,15 -68,23 -101,23 -56,0 -106,-20 -150,-61 -57,-53 -85,-123 -85,-209 0,-76 23,-137 69,-183 54,-55 120,-83 199,-83 32,0 61,4 86,11 25,7 53,21 86,41zm0 51c-47,-30 -84,-45 -110,-45 -22,0 -36,11 -43,32 -4,12 -6,46 -6,102l0 168c0,37 1,60 3,68 4,22 16,32 38,32 17,0 36,-6 58,-19 21,-13 40,-30 58,-51l2 -287z"/>
  <path id="7" class="fil0" d="M5192 56l291 0 -3 268c29,-31 58,-55 89,-70 31,-16 63,-23 96,-23 74,0 140,34 199,101 67,76 100,174 100,295 0,125 -34,228 -103,309 -56,66 -120,99 -192,99 -37,0 -70,-8 -99,-25 -29,-17 -59,-44 -89,-83l0 92 -288 0 0 -32 1 -342 0 -244 -1 -345zm287 326l0 479c25,33 45,57 60,73 30,31 57,46 82,46 17,0 28,-10 33,-30 2,-9 3,-33 4,-71l0 -473 1 -31c0,-36 -3,-60 -8,-73 -5,-13 -15,-19 -29,-19 -18,0 -39,8 -63,25 -24,16 -50,41 -80,75z"/>
  <path id="8" class="fil0" d="M6534 558l45 77c53,93 98,167 134,223 36,56 73,110 113,161l-370 0 -183 -314c-70,87 -136,180 -198,277 -22,35 -38,53 -48,53 -6,0 -12,-4 -18,-12 -7,-8 -10,-15 -10,-22 0,-12 14,-33 41,-64 65,-77 135,-167 209,-269l-50 -87c-91,-160 -161,-270 -210,-331l369 0 155 271c80,-110 137,-193 174,-250 17,-27 30,-41 39,-41 6,0 12,4 19,12 7,8 10,16 10,23 0,10 -11,26 -32,50 -15,17 -44,54 -89,113l-98 131z"/>
  <path class="fil0" d="M161 1520l-114 0 0 287 114 0c46,0 82,-13 108,-39 26,-26 40,-61 40,-105 0,-43 -13,-78 -40,-104 -27,-26 -63,-40 -108,-40zm0 -43c59,0 106,17 142,52 36,35 54,80 54,135 0,56 -18,101 -53,135 -35,34 -83,51 -143,51l-160 0 0 -373 160 0z"/>
  <polygon id="1" class="fil0" points="485,1850 485,1561 756,1561 756,1603 530,1603 530,1675 678,1675 678,1717 530,1717 530,1808 768,1808 768,1850 "/>
  <path id="2" class="fil0" d="M861 1813l22 -38c20,13 42,24 65,31 24,7 46,11 67,11 26,0 46,-5 62,-16 16,-10 24,-24 24,-40 0,-16 -7,-29 -22,-37 -14,-8 -37,-12 -68,-13 -53,-1 -89,-7 -108,-18 -20,-12 -29,-31 -29,-57 0,-25 11,-45 32,-60 22,-15 51,-23 87,-23 25,0 49,3 72,10 23,7 46,17 67,31l-23 37c-18,-12 -37,-21 -58,-28 -21,-7 -41,-10 -60,-10 -22,0 -40,4 -53,11 -13,8 -20,18 -20,30 0,13 7,22 20,27 13,5 37,8 70,8 46,0 81,8 104,23 23,16 35,39 35,69 0,27 -12,50 -36,68 -24,18 -55,27 -92,27 -28,0 -56,-4 -83,-12 -28,-8 -53,-19 -76,-34z"/>
  <polygon id="3" class="fil0" points="1283,1850 1283,1560 1329,1560 1329,1850 "/>
  <path id="4" class="fil0" d="M1678 1738l0 -42 119 0 0 87c-17,25 -38,43 -65,56 -27,13 -58,19 -93,19 -53,0 -97,-14 -130,-43 -34,-29 -51,-65 -51,-109 0,-44 17,-81 51,-110 34,-29 77,-43 130,-43 33,0 63,6 89,17 26,12 47,28 64,51l-35 25c-12,-16 -29,-28 -49,-38 -21,-9 -44,-14 -69,-14 -39,0 -72,10 -97,31 -25,21 -38,47 -38,79 0,32 13,58 38,79 25,21 57,31 97,31 25,0 48,-4 69,-13 21,-9 36,-20 44,-34l0 -31 -73 0z"/>
  <polygon id="5" class="fil0" points="1933,1850 1933,1561 1957,1561 2140,1764 2140,1561 2184,1561 2184,1850 2161,1850 1977,1648 1977,1850 "/>
  <path id="6" class="fil0" d="M2542 1813l22 -38c20,13 42,24 65,31 24,7 46,11 67,11 26,0 46,-5 62,-16 16,-10 24,-24 24,-40 0,-16 -7,-29 -22,-37 -14,-8 -37,-12 -68,-13 -53,-1 -89,-7 -108,-18 -20,-12 -29,-31 -29,-57 0,-25 11,-45 32,-60 22,-15 51,-23 87,-23 25,0 49,3 72,10 23,7 46,17 67,31l-23 37c-18,-12 -37,-21 -58,-28 -21,-7 -41,-10 -60,-10 -22,0 -40,4 -53,11 -13,8 -20,18 -20,30 0,13 7,22 20,27 13,5 37,8 70,8 46,0 81,8 104,23 23,16 35,39 35,69 0,27 -12,50 -36,68 -24,18 -55,27 -92,27 -28,0 -56,-4 -83,-12 -28,-8 -53,-19 -76,-34z"/>
  <path id="7" class="fil0" d="M3115 1816c39,0 70,-10 94,-31 24,-21 36,-47 36,-79 0,-32 -12,-58 -37,-79 -24,-21 -56,-31 -94,-31 -38,0 -70,10 -94,31 -24,21 -36,47 -36,79 0,32 12,59 36,79 24,21 55,31 94,31zm0 42c-51,0 -94,-15 -127,-44 -33,-29 -50,-65 -50,-109 0,-44 16,-80 49,-109 33,-29 75,-43 127,-43 52,0 95,14 128,43 33,29 49,65 49,109 0,44 -17,81 -50,110 -33,29 -76,43 -127,43z"/>
  <polygon id="8" class="fil0" points="3419,1850 3419,1561 3464,1561 3464,1808 3678,1808 3678,1850 "/>
  <path id="9" class="fil0" d="M3784 1562l45 0 0 185c0,28 7,46 20,56 13,10 39,15 78,15 39,0 65,-5 78,-15 13,-10 20,-28 20,-56l0 -185 45 0 0 197c0,35 -11,61 -34,77 -22,16 -59,24 -110,24 -50,0 -87,-8 -109,-23 -22,-16 -33,-41 -33,-77l0 -197z"/>
  <polygon id="10" class="fil0" points="4290,1850 4290,1601 4168,1601 4168,1561 4457,1561 4457,1601 4335,1601 4335,1850 "/>
  <polygon id="11" class="fil0" points="4556,1850 4556,1560 4601,1560 4601,1850 "/>
  <path id="12" class="fil0" d="M4906 1816c39,0 70,-10 94,-31 24,-21 36,-47 36,-79 0,-32 -12,-58 -37,-79 -24,-21 -56,-31 -94,-31 -38,0 -70,10 -94,31 -24,21 -36,47 -36,79 0,32 12,59 36,79 24,21 55,31 94,31zm0 42c-51,0 -94,-15 -127,-44 -33,-29 -50,-65 -50,-109 0,-44 16,-80 49,-109 33,-29 75,-43 127,-43 52,0 95,14 128,43 33,29 49,65 49,109 0,44 -17,81 -50,110 -33,29 -76,43 -127,43z"/>
  <polygon id="13" class="fil0" points="5211,1850 5211,1561 5234,1561 5417,1764 5417,1561 5462,1561 5462,1850 5438,1850 5255,1648 5255,1850 "/>
  <path id="14" class="fil0" d="M5589 1813l22 -38c20,13 42,24 65,31 24,7 46,11 67,11 26,0 46,-5 62,-16 16,-10 24,-24 24,-40 0,-16 -7,-29 -22,-37 -14,-8 -37,-12 -68,-13 -53,-1 -89,-7 -108,-18 -20,-12 -29,-31 -29,-57 0,-25 11,-45 32,-60 22,-15 51,-23 87,-23 25,0 49,3 72,10 23,7 46,17 67,31l-23 37c-18,-12 -37,-21 -58,-28 -21,-7 -41,-10 -60,-10 -22,0 -40,4 -53,11 -13,8 -20,18 -20,30 0,13 7,22 20,27 13,5 37,8 70,8 46,0 81,8 104,23 23,16 35,39 35,69 0,27 -12,50 -36,68 -24,18 -55,27 -92,27 -28,0 -56,-4 -83,-12 -28,-8 -53,-19 -76,-34z"/>
  <path id="15" class="fil0" d="M48 2386l178 0c20,0 35,-4 45,-13 10,-9 16,-22 16,-38 0,-18 -5,-31 -15,-40 -10,-9 -25,-13 -45,-13l-178 0 0 104zm0 183l195 0c21,0 38,-6 50,-19 12,-13 18,-30 18,-51 0,-21 -6,-38 -18,-51 -12,-13 -29,-19 -50,-19l-195 0 0 140zm-46 43l0 -373 221 0c37,0 64,8 83,24 19,16 28,39 28,69 0,15 -3,28 -9,40 -6,12 -14,21 -25,28 20,12 35,26 45,42 10,17 15,36 15,57 0,34 -11,62 -34,82 -23,20 -53,30 -92,30l-232 0z"/>
  <path id="16" class="fil0" d="M500 2324l45 0 0 185c0,28 7,46 20,56 13,10 39,15 78,15 39,0 65,-5 78,-15 13,-10 20,-28 20,-56l0 -185 45 0 0 197c0,35 -11,61 -34,77 -22,16 -59,24 -110,24 -50,0 -87,-8 -109,-23 -22,-16 -33,-41 -33,-77l0 -197z"/>
  <polygon id="17" class="fil0" points="939,2611 939,2322 984,2322 984,2611 "/>
  <polygon id="18" class="fil0" points="1138,2611 1138,2323 1183,2323 1183,2570 1397,2570 1397,2611 "/>
  <path id="19" class="fil0" d="M1630 2323c47,0 85,13 114,40 29,27 43,62 43,105 0,43 -14,78 -42,104 -28,26 -67,39 -115,39l-128 0 0 -289 128 0zm1 42l-83 0 0 205 83 0c34,0 61,-9 81,-28 20,-18 29,-43 29,-75 0,-30 -10,-55 -30,-74 -20,-19 -47,-29 -80,-29z"/>
  <polygon id="20" class="fil0" points="2946,2611 2946,2236 2993,2236 2993,2611 "/>
  <polygon id="21" class="fil0" points="3153,2611 3153,2323 3176,2323 3360,2526 3360,2323 3404,2323 3404,2611 3380,2611 3197,2409 3197,2611 "/>
  <polygon id="22" class="fil0" points="3557,2611 3557,2323 3580,2323 3764,2526 3764,2323 3808,2323 3808,2611 3784,2611 3601,2409 3601,2611 "/>
  <path id="23" class="fil0" d="M4112 2578c39,0 70,-10 94,-31 24,-21 36,-47 36,-79 0,-32 -12,-58 -37,-79 -24,-21 -56,-31 -94,-31 -38,0 -70,10 -94,31 -24,21 -36,47 -36,79 0,32 12,59 36,79 24,21 55,31 94,31zm0 42c-51,0 -94,-15 -127,-44 -33,-29 -50,-65 -50,-109 0,-44 16,-80 49,-109 33,-29 75,-43 127,-43 52,0 95,14 128,43 33,29 49,65 49,109 0,44 -17,81 -50,110 -33,29 -76,43 -127,43z"/>
  <polygon id="24" class="fil0" points="4542,2611 4518,2611 4374,2323 4422,2323 4530,2539 4637,2323 4686,2323 "/>
  <path id="25" class="fil0" d="M4817 2500l113 0 -56 -111 -57 111zm-105 111l147 -289 28 0 148 289 -48 0 -37 -73 -152 0 -37 73 -48 0z"/>
  <polygon id="26" class="fil0" points="5176,2611 5176,2363 5054,2363 5054,2323 5343,2323 5343,2363 5221,2363 5221,2611 "/>
  <polygon id="27" class="fil0" points="5441,2611 5441,2323 5712,2323 5712,2365 5486,2365 5486,2437 5634,2437 5634,2479 5486,2479 5486,2570 5724,2570 5724,2611 "/>
  <path id="28" class="fil0" d="M5909 2559c8,0 14,3 20,9 5,6 8,13 8,22 0,9 -3,16 -8,22 -5,6 -12,9 -20,9 -8,0 -15,-3 -20,-9 -5,-6 -8,-13 -8,-22 0,-9 3,-16 8,-22 6,-6 12,-9 20,-9z"/>
  <path id="29" class="fil0" d="M2243 2359c-36,-37 -54,-71 -54,-104 0,-26 10,-48 29,-67 19,-19 43,-28 72,-28 26,0 47,7 63,22 16,15 24,31 24,49 0,28 -18,58 -55,90 42,34 82,83 119,148 19,-31 29,-61 29,-89 0,-24 -12,-37 -35,-38 -9,-1 -14,-4 -14,-10 0,-6 6,-9 19,-9l68 1c13,0 29,-1 46,-2 8,-1 14,-1 17,-1 8,0 12,3 12,9 0,4 -4,8 -13,10 -15,4 -26,9 -34,15 -8,6 -14,13 -18,20 -4,7 -14,27 -30,61 -10,21 -21,39 -33,55 29,59 55,88 80,88 10,0 21,-4 32,-12 6,-4 11,-6 13,-6 7,0 10,3 10,9 0,6 -12,16 -36,30 -24,13 -47,20 -70,20 -18,0 -33,-6 -46,-17 -13,-11 -26,-27 -39,-49 -53,44 -103,65 -148,65 -35,0 -64,-10 -86,-30 -22,-20 -34,-47 -34,-81 0,-19 5,-39 16,-61 11,-21 44,-51 99,-88zm61 -54c22,-22 33,-44 33,-67 0,-18 -5,-32 -16,-41 -10,-9 -22,-14 -34,-14 -11,0 -20,4 -28,12 -8,8 -12,18 -12,31 0,24 19,50 57,79zm-46 71c-33,27 -50,56 -50,88 0,25 9,49 26,72 17,23 40,35 67,35 25,0 53,-12 83,-36 -33,-62 -75,-115 -127,-158z"/>
  <path id="30" class="fil1 str0" d="M161 1520l-114 0 0 287 114 0c46,0 82,-13 108,-39 26,-26 40,-61 40,-105 0,-43 -13,-78 -40,-104 -27,-26 -63,-40 -108,-40zm0 -43c59,0 106,17 142,52 36,35 54,80 54,135 0,56 -18,101 -53,135 -35,34 -83,51 -143,51l-160 0 0 -373 160 0z"/>
  <polygon id="31" class="fil1 str0" points="485,1850 485,1561 756,1561 756,1603 530,1603 530,1675 678,1675 678,1717 530,1717 530,1808 768,1808 768,1850 "/>
  <path id="32" class="fil1 str0" d="M861 1813l22 -38c20,13 42,24 65,31 24,7 46,11 67,11 26,0 46,-5 62,-16 16,-10 24,-24 24,-40 0,-16 -7,-29 -22,-37 -14,-8 -37,-12 -68,-13 -53,-1 -89,-7 -108,-18 -20,-12 -29,-31 -29,-57 0,-25 11,-45 32,-60 22,-15 51,-23 87,-23 25,0 49,3 72,10 23,7 46,17 67,31l-23 37c-18,-12 -37,-21 -58,-28 -21,-7 -41,-10 -60,-10 -22,0 -40,4 -53,11 -13,8 -20,18 -20,30 0,13 7,22 20,27 13,5 37,8 70,8 46,0 81,8 104,23 23,16 35,39 35,69 0,27 -12,50 -36,68 -24,18 -55,27 -92,27 -28,0 -56,-4 -83,-12 -28,-8 -53,-19 -76,-34z"/>
  <polygon id="33" class="fil1 str0" points="1283,1850 1283,1560 1329,1560 1329,1850 "/>
  <path id="34" class="fil1 str0" d="M1678 1738l0 -42 119 0 0 87c-17,25 -38,43 -65,56 -27,13 -58,19 -93,19 -53,0 -97,-14 -130,-43 -34,-29 -51,-65 -51,-109 0,-44 17,-81 51,-110 34,-29 77,-43 130,-43 33,0 63,6 89,17 26,12 47,28 64,51l-35 25c-12,-16 -29,-28 -49,-38 -21,-9 -44,-14 -69,-14 -39,0 -72,10 -97,31 -25,21 -38,47 -38,79 0,32 13,58 38,79 25,21 57,31 97,31 25,0 48,-4 69,-13 21,-9 36,-20 44,-34l0 -31 -73 0z"/>
  <polygon id="35" class="fil1 str0" points="1933,1850 1933,1561 1957,1561 2140,1764 2140,1561 2184,1561 2184,1850 2161,1850 1977,1648 1977,1850 "/>
  <path id="36" class="fil1 str0" d="M2542 1813l22 -38c20,13 42,24 65,31 24,7 46,11 67,11 26,0 46,-5 62,-16 16,-10 24,-24 24,-40 0,-16 -7,-29 -22,-37 -14,-8 -37,-12 -68,-13 -53,-1 -89,-7 -108,-18 -20,-12 -29,-31 -29,-57 0,-25 11,-45 32,-60 22,-15 51,-23 87,-23 25,0 49,3 72,10 23,7 46,17 67,31l-23 37c-18,-12 -37,-21 -58,-28 -21,-7 -41,-10 -60,-10 -22,0 -40,4 -53,11 -13,8 -20,18 -20,30 0,13 7,22 20,27 13,5 37,8 70,8 46,0 81,8 104,23 23,16 35,39 35,69 0,27 -12,50 -36,68 -24,18 -55,27 -92,27 -28,0 -56,-4 -83,-12 -28,-8 -53,-19 -76,-34z"/>
  <path id="37" class="fil1 str0" d="M3115 1816c39,0 70,-10 94,-31 24,-21 36,-47 36,-79 0,-32 -12,-58 -37,-79 -24,-21 -56,-31 -94,-31 -38,0 -70,10 -94,31 -24,21 -36,47 -36,79 0,32 12,59 36,79 24,21 55,31 94,31zm0 42c-51,0 -94,-15 -127,-44 -33,-29 -50,-65 -50,-109 0,-44 16,-80 49,-109 33,-29 75,-43 127,-43 52,0 95,14 128,43 33,29 49,65 49,109 0,44 -17,81 -50,110 -33,29 -76,43 -127,43z"/>
  <polygon id="38" class="fil1 str0" points="3419,1850 3419,1561 3464,1561 3464,1808 3678,1808 3678,1850 "/>
  <path id="39" class="fil1 str0" d="M3784 1562l45 0 0 185c0,28 7,46 20,56 13,10 39,15 78,15 39,0 65,-5 78,-15 13,-10 20,-28 20,-56l0 -185 45 0 0 197c0,35 -11,61 -34,77 -22,16 -59,24 -110,24 -50,0 -87,-8 -109,-23 -22,-16 -33,-41 -33,-77l0 -197z"/>
  <polygon id="40" class="fil1 str0" points="4290,1850 4290,1601 4168,1601 4168,1561 4457,1561 4457,1601 4335,1601 4335,1850 "/>
  <polygon id="41" class="fil1 str0" points="4556,1850 4556,1560 4601,1560 4601,1850 "/>
  <path id="42" class="fil1 str0" d="M4906 1816c39,0 70,-10 94,-31 24,-21 36,-47 36,-79 0,-32 -12,-58 -37,-79 -24,-21 -56,-31 -94,-31 -38,0 -70,10 -94,31 -24,21 -36,47 -36,79 0,32 12,59 36,79 24,21 55,31 94,31zm0 42c-51,0 -94,-15 -127,-44 -33,-29 -50,-65 -50,-109 0,-44 16,-80 49,-109 33,-29 75,-43 127,-43 52,0 95,14 128,43 33,29 49,65 49,109 0,44 -17,81 -50,110 -33,29 -76,43 -127,43z"/>
  <polygon id="43" class="fil1 str0" points="5211,1850 5211,1561 5234,1561 5417,1764 5417,1561 5462,1561 5462,1850 5438,1850 5255,1648 5255,1850 "/>
  <path id="44" class="fil1 str0" d="M5589 1813l22 -38c20,13 42,24 65,31 24,7 46,11 67,11 26,0 46,-5 62,-16 16,-10 24,-24 24,-40 0,-16 -7,-29 -22,-37 -14,-8 -37,-12 -68,-13 -53,-1 -89,-7 -108,-18 -20,-12 -29,-31 -29,-57 0,-25 11,-45 32,-60 22,-15 51,-23 87,-23 25,0 49,3 72,10 23,7 46,17 67,31l-23 37c-18,-12 -37,-21 -58,-28 -21,-7 -41,-10 -60,-10 -22,0 -40,4 -53,11 -13,8 -20,18 -20,30 0,13 7,22 20,27 13,5 37,8 70,8 46,0 81,8 104,23 23,16 35,39 35,69 0,27 -12,50 -36,68 -24,18 -55,27 -92,27 -28,0 -56,-4 -83,-12 -28,-8 -53,-19 -76,-34z"/>
  <path id="45" class="fil1 str0" d="M48 2386l178 0c20,0 35,-4 45,-13 10,-9 16,-22 16,-38 0,-18 -5,-31 -15,-40 -10,-9 -25,-13 -45,-13l-178 0 0 104zm0 183l195 0c21,0 38,-6 50,-19 12,-13 18,-30 18,-51 0,-21 -6,-38 -18,-51 -12,-13 -29,-19 -50,-19l-195 0 0 140zm-46 43l0 -373 221 0c37,0 64,8 83,24 19,16 28,39 28,69 0,15 -3,28 -9,40 -6,12 -14,21 -25,28 20,12 35,26 45,42 10,17 15,36 15,57 0,34 -11,62 -34,82 -23,20 -53,30 -92,30l-232 0z"/>
  <path id="46" class="fil1 str0" d="M500 2324l45 0 0 185c0,28 7,46 20,56 13,10 39,15 78,15 39,0 65,-5 78,-15 13,-10 20,-28 20,-56l0 -185 45 0 0 197c0,35 -11,61 -34,77 -22,16 -59,24 -110,24 -50,0 -87,-8 -109,-23 -22,-16 -33,-41 -33,-77l0 -197z"/>
  <polygon id="47" class="fil1 str0" points="939,2611 939,2322 984,2322 984,2611 "/>
  <polygon id="48" class="fil1 str0" points="1138,2611 1138,2323 1183,2323 1183,2570 1397,2570 1397,2611 "/>
  <path id="49" class="fil1 str0" d="M1630 2323c47,0 85,13 114,40 29,27 43,62 43,105 0,43 -14,78 -42,104 -28,26 -67,39 -115,39l-128 0 0 -289 128 0zm1 42l-83 0 0 205 83 0c34,0 61,-9 81,-28 20,-18 29,-43 29,-75 0,-30 -10,-55 -30,-74 -20,-19 -47,-29 -80,-29z"/>
  <polygon id="50" class="fil1 str0" points="2946,2611 2946,2236 2993,2236 2993,2611 "/>
  <polygon id="51" class="fil1 str0" points="3153,2611 3153,2323 3176,2323 3360,2526 3360,2323 3404,2323 3404,2611 3380,2611 3197,2409 3197,2611 "/>
  <polygon id="52" class="fil1 str0" points="3557,2611 3557,2323 3580,2323 3764,2526 3764,2323 3808,2323 3808,2611 3784,2611 3601,2409 3601,2611 "/>
  <path id="53" class="fil1 str0" d="M4112 2578c39,0 70,-10 94,-31 24,-21 36,-47 36,-79 0,-32 -12,-58 -37,-79 -24,-21 -56,-31 -94,-31 -38,0 -70,10 -94,31 -24,21 -36,47 -36,79 0,32 12,59 36,79 24,21 55,31 94,31zm0 42c-51,0 -94,-15 -127,-44 -33,-29 -50,-65 -50,-109 0,-44 16,-80 49,-109 33,-29 75,-43 127,-43 52,0 95,14 128,43 33,29 49,65 49,109 0,44 -17,81 -50,110 -33,29 -76,43 -127,43z"/>
  <polygon id="54" class="fil1 str0" points="4542,2611 4518,2611 4374,2323 4422,2323 4530,2539 4637,2323 4686,2323 "/>
  <path id="55" class="fil1 str0" d="M4817 2500l113 0 -56 -111 -57 111zm-105 111l147 -289 28 0 148 289 -48 0 -37 -73 -152 0 -37 73 -48 0z"/>
  <polygon id="56" class="fil1 str0" points="5176,2611 5176,2363 5054,2363 5054,2323 5343,2323 5343,2363 5221,2363 5221,2611 "/>
  <polygon id="57" class="fil1 str0" points="5441,2611 5441,2323 5712,2323 5712,2365 5486,2365 5486,2437 5634,2437 5634,2479 5486,2479 5486,2570 5724,2570 5724,2611 "/>
  <path id="58" class="fil1 str0" d="M5909 2559c8,0 14,3 20,9 5,6 8,13 8,22 0,9 -3,16 -8,22 -5,6 -12,9 -20,9 -8,0 -15,-3 -20,-9 -5,-6 -8,-13 -8,-22 0,-9 3,-16 8,-22 6,-6 12,-9 20,-9z"/>
  <path id="59" class="fil1 str0" d="M2243 2359c-36,-37 -54,-71 -54,-104 0,-26 10,-48 29,-67 19,-19 43,-28 72,-28 26,0 47,7 63,22 16,15 24,31 24,49 0,28 -18,58 -55,90 42,34 82,83 119,148 19,-31 29,-61 29,-89 0,-24 -12,-37 -35,-38 -9,-1 -14,-4 -14,-10 0,-6 6,-9 19,-9l68 1c13,0 29,-1 46,-2 8,-1 14,-1 17,-1 8,0 12,3 12,9 0,4 -4,8 -13,10 -15,4 -26,9 -34,15 -8,6 -14,13 -18,20 -4,7 -14,27 -30,61 -10,21 -21,39 -33,55 29,59 55,88 80,88 10,0 21,-4 32,-12 6,-4 11,-6 13,-6 7,0 10,3 10,9 0,6 -12,16 -36,30 -24,13 -47,20 -70,20 -18,0 -33,-6 -46,-17 -13,-11 -26,-27 -39,-49 -53,44 -103,65 -148,65 -35,0 -64,-10 -86,-30 -22,-20 -34,-47 -34,-81 0,-19 5,-39 16,-61 11,-21 44,-51 99,-88zm61 -54c22,-22 33,-44 33,-67 0,-18 -5,-32 -16,-41 -10,-9 -22,-14 -34,-14 -11,0 -20,4 -28,12 -8,8 -12,18 -12,31 0,24 19,50 57,79zm-46 71c-33,27 -50,56 -50,88 0,25 9,49 26,72 17,23 40,35 67,35 25,0 53,-12 83,-36 -33,-62 -75,-115 -127,-158z"/>
  <line class="fil2 str1" x1="1" y1="1245" x2="6861" y2= "1245" />
 </g>
</svg>
