<?xml version="1.0" encoding="UTF-8"?>
<!DOCTYPE svg PUBLIC "-//W3C//DTD SVG 1.1//EN" "http://www.w3.org/Graphics/SVG/1.1/DTD/svg11.dtd">
<!-- Creator: CorelDRAW X6 -->
<svg xmlns="http://www.w3.org/2000/svg" xml:space="preserve" width="1.47607in" height="2.0488in" version="1.1" style="shape-rendering:geometricPrecision; text-rendering:geometricPrecision; image-rendering:optimizeQuality; fill-rule:evenodd; clip-rule:evenodd"
viewBox="0 0 1821 2527"
 xmlns:xlink="http://www.w3.org/1999/xlink">
 <defs>
  <style type="text/css">
   <![CDATA[
    .fil0 {fill:#4B4B4D;fill-rule:nonzero}
   ]]>
  </style>
 </defs>
 <g id="Layer_x0020_1">
  <metadata id="CorelCorpID_0Corel-Layer"/>
  <path class="fil0" d="M1821 1261c0,77 -29,135 -86,174l-1564 1071c-29,19 -58,21 -86,5 -29,-16 -51,-48 -66,-97 -15,-45 -18,-88 -7,-130 11,-42 31,-74 60,-97l1530 -1028 0 198 -1530 -1014c-31,-19 -51,-52 -61,-99 -10,-47 -8,-93 5,-138 15,-45 38,-76 68,-92 30,-16 58,-14 85,5l1567 1057c58,39 86,100 86,183z"/>
 </g>
</svg>
