<?xml version="1.0" encoding="UTF-8"?>
<!DOCTYPE svg PUBLIC "-//W3C//DTD SVG 1.1//EN" "http://www.w3.org/Graphics/SVG/1.1/DTD/svg11.dtd">
<!-- Creator: CorelDRAW X6 -->
<svg xmlns="http://www.w3.org/2000/svg" xml:space="preserve" width="6.95678in" height="4.45873in" version="1.1" style="shape-rendering:geometricPrecision; text-rendering:geometricPrecision; image-rendering:optimizeQuality; fill-rule:evenodd; clip-rule:evenodd"
viewBox="0 0 6221 3987"
 xmlns:xlink="http://www.w3.org/1999/xlink">
 <defs>
  <style type="text/css">
   <![CDATA[
    .fil3 {fill:#2B7A93;fill-rule:nonzero}
    .fil4 {fill:#7AB4C0;fill-rule:nonzero}
    .fil2 {fill:#8DBCC7;fill-rule:nonzero}
    .fil7 {fill:#9BC5CE;fill-rule:nonzero}
    .fil0 {fill:#ABCED4;fill-rule:nonzero}
    .fil6 {fill:#B0D0D6;fill-rule:nonzero}
    .fil1 {fill:#C3DADE;fill-rule:nonzero}
    .fil5 {fill:#DBE6E7;fill-rule:nonzero}
   ]]>
  </style>
 </defs>
 <g id="Layer_x0020_1">
  <metadata id="CorelCorpID_0Corel-Layer"/>
  <g id="_672440992">
   <path class="fil0" d="M4028 3226l5 -3 1 1 -1 2 -5 1zm12 -1l0 -1 288 -160 0 0 -282 156 220 -22 -2 4 -224 22zm229 -23l2 -4 195 -19 4 4 -201 20zm207 -20l-4 -4 214 -21 4 4 -214 21zm219 -22l-4 -4 157 -16 -2 4 -151 15zm156 -15l2 -4 449 -44 9 3 -460 45zm466 -46l-5 -3 8 3 -4 0zm-985 -37l0 0 1 0 0 0 -1 0zm7 -4l0 0 134 -74 0 0 -134 74zm138 -76l0 0 198 -110 0 0 -198 110zm118 -70l77 -43 -77 43z"/>
   <path class="fil0" d="M4040 3224l0 -1 1 -1 -1 0 1 -3 284 -157 3 3 -288 160zm292 -162l-3 -3 7 -4 -3 6 -1 0zm7 -4l3 -6 128 -71 3 3 -134 74zm138 -76l-3 -3 121 -67 77 -43 2 2 1 0 1 -2 2 -1 -2 1 -1 2 1 0 -198 110zm-281 -248l5 -15 -5 15zm6 -19l56 -175 0 0 -56 175zm57 -179l0 0 49 -153 0 0 -49 153zm48 -160l-1 0 0 -1 1 1 0 1z"/>
   <path class="fil0" d="M4029 3987l-6 0 12 -12 4 2 -10 10zm-140 0l-4 0 34 -69 4 2 -33 68zm152 -13l-4 -2 90 -93 3 3 -89 92zm-118 -58l-4 -2 81 -168 3 3 -81 167zm210 -37l-3 -3 80 -82 2 4 -79 81zm82 -84l-2 -4 15 -15 1 4 -14 15zm17 -18l-1 -4 159 -163 7 -2 -164 169zm-227 -32l-3 -3 26 -55 5 -1 -28 59zm26 -62l68 -140 2 5 -65 134 -5 1zm363 -78l40 -41c2,0 4,0 6,-1l-39 40 -7 2zm-291 -62l-2 -5 25 -52 2 5 -25 51zm27 -56l-2 -5 89 -185 4 0 -92 190zm385 -1c0,-2 0,-4 0,-6l137 -141 5 0 -143 147zm142 -149l0 0 0 -2 0 2 1 -2 -1 -1 108 -111 -77 -62 -4 -4 -213 -173 0 0 -3 -3 -67 -55 -60 125 -3 6 0 0 -3 7 -3 -3 0 -1 0 0 3 -6 63 -131 4 3 1 -4 69 56 3 3 0 0 214 174 4 4 72 59 0 9 -106 109 -2 -1 -1 2zm-433 -44l-4 0 43 -90 2 -4 64 -132 3 3 -63 129 -2 4 -44 90zm547 -70l-2 -1 2 1 0 0z"/>
   <path class="fil0" d="M4034 3224l-1 -1 -88 -41 0 0 89 42 0 0zm5 -2l-1 0 -1 -3 -1 2 -1 0 101 -316 3 3 -99 311 -1 3zm-100 -42l-128 -60 128 60 0 0zm202 -276l-3 -3 48 -149 3 3 -48 149zm49 -153l-3 -3 9 -27 4 -1 -5 15 -5 16zm-146 -17l45 -60 -45 60zm153 -17l57 -178 4 2 -56 175 -4 1zm-106 -46l0 0 119 -158 -119 158zm167 -133l-4 -2 46 -144 -89 118 94 -125 1 1 -49 153zm49 -159l-1 -1 0 -1 5 -7 -3 8 -2 0z"/>
   <path class="fil0" d="M3645 3791l1 -7 3 1 -4 6zm6 -9l0 0 63 -91 0 0 -63 91zm-5 0l116 -665 2 -5 -3 32 -110 631 -5 8zm73 -98l0 0 270 -390 0 0 -270 390zm273 -393l0 0 11 -15 0 0 -11 15zm13 -19l0 0 30 -44 0 0 -30 44zm28 -47l-89 -42 -2 -6 93 44 1 0 -1 1 -1 2zm5 -1l-1 -2 1 0 1 0 -1 1zm-100 -44l-128 -60 -38 -18 -3 -6 0 0 166 77 2 6z"/>
   <path class="fil0" d="M4307 3987l-4 0 -73 -207 -1 -4 -43 -122 4 -1 42 120 1 4 74 210zm-238 0l-9 0 -21 -10 -4 -2 -113 -56 -4 -2 -210 -103 0 -4 211 104 4 2 114 56 4 2 27 13zm-364 -175l-55 -27 -3 -1 -1 0 1 -2 5 -8 64 -92 -1 8 -63 91 53 26 0 4zm15 -129l1 -8 268 -386 2 4 -270 390zm465 -34l-56 -158 -2 -5 -72 -206 4 0 70 201 2 5 57 163 -4 1zm-192 -359l-2 -4 8 -11 5 0 -11 15zm65 -14l-4 0 -17 -49 0 0 -30 44 -5 0 32 -45 1 -2 0 0 1 -2 1 -1 1 -2 1 3 1 2 0 1 0 1 18 52zm-21 -53l-2 1 2 -1z"/>
   <path class="fil0" d="M3771 3096l0 -1 1 -2 -1 0 -1 -2 83 -110 2 4 -83 110zm-8 -3l-10 -4 10 4zm93 -111l-2 -4 142 -190 3 3 -144 191zm-829 -182l-198 -80 198 80zm975 -13l-3 -3 28 -38 6 -1 -31 41zm29 -45l54 -72 3 3 -45 60 -7 9 -6 1zm-1206 -24l-120 -48 0 0 120 48 0 0zm1265 -49l-3 -3 118 -158 3 2 -119 158zm-1412 -10l-6 -2 5 -1 0 1 -1 1 1 1 0 0zm9 -1l-3 -1 6 -4 146 -25 8 3 -158 27zm166 -29l-8 -3 595 -102 2 4 -589 101zm593 -102l-2 -4 55 -9 2 4 -54 9zm58 -10l-2 -4 137 -24 4 3 -140 24zm707 -11l-3 -2 93 -124 -230 39 -5 -3 236 -40 4 5 -94 125zm-562 -14l-4 -3 180 -31 4 3 -180 31zm185 -32l-4 -3 91 -16 -2 4 -85 15zm89 -15l2 -4 134 -23 5 3 -142 24zm385 -68l-2 -2 2 0 2 0 -2 2z"/>
   <path class="fil0" d="M3656 3225l-92 -53 5 -2 86 50 106 -119 3 -1 -2 6 -106 118zm-96 -56l-5 -3 5 -2 5 3 -5 2zm-10 -6l-731 -423 2 -4 734 425 -5 2zm221 -67l0 0 0 0 0 0 0 0zm-956 -358l-123 -71 4 -1 9 4 0 0 111 65 -2 4zm-128 -74l-6 -4 0 0 8 3 -2 0z"/>
   <path class="fil0" d="M3762 3097l-735 -297 -198 -80 2 -4 922 372 10 4 -321 -564 -2 -4 -75 -133 -4 -14 -2 0 2 -1 -2 1 2 0 0 0 83 146 2 4 307 539 13 27 -4 1zm-936 -378l-120 -48 -9 -4 8 -1 123 50 -2 4zm-136 -55l-8 -3 1 -1 3 -2 3 1 9 4 -8 1zm-11 -4l-1 -1 1 -1 1 2zm2 -6l0 0 42 -60 0 0 -42 60zm44 -64l0 0 351 -508 0 0 -351 508zm629 -224l-95 -166 0 0 95 166 0 0zm-99 -174l0 0 -3 -5 3 5zm-177 -114l0 0 25 -37 0 0 -25 37zm28 -40l0 0 31 -45 0 0 -31 45z"/>
   <path class="fil0" d="M2680 2663l-1 -3 0 0 -1 -2 0 -1 -30 -87 5 1 28 83 42 -60 4 1 -40 57 -8 4 2 3 0 0 -1 1 0 0 -1 2zm49 -71l-4 -1 351 -508 3 2 -350 507zm-78 -25l-5 -1 -212 -618 2 -7 215 626zm431 -486l-3 -2 25 -37 3 3 -25 36zm27 -39l-3 -3 31 -45 1 1 0 3 1 -1 0 1 -30 44zm28 -51l-217 -108 0 0 217 108 0 0zm-706 -49l-121 -352 5 3 117 341 -2 7zm474 -66l-35 -18 35 18 0 0zm-591 -288l-1 -1 1 1 0 0zm-6 -5l-1 -3 3 1 -1 1 -1 1z"/>
   <path class="fil0" d="M2682 2660l-2 -3 8 -4 78 -45 5 2 -79 46 -6 4 -3 2 0 0zm94 -54l-5 -2 491 -285 -59 -157 6 4 59 155 -491 285zm430 -446l-6 -4 -19 -50 6 5 18 48zm-21 -56l-6 -5 -38 -101 0 -1 0 0 11 20 33 88z"/>
   <path class="fil0" d="M3138 1995l-1 -1 0 0 -204 -101 -13 -11 217 108 0 5zm-220 -109l-406 -201 1 -4 357 177 35 18 13 11zm-410 -203l-194 -96 -1 -1 -2 -1 1 0 4 -2 194 96 -1 4zm-201 -100l-1 -1 1 -1 1 -1 -2 2zm10 -5l0 0 154 -68 0 0 -154 68zm158 -69l0 0 98 -43 0 0 -98 43zm103 -45l0 0 254 -112 -254 112zm492 -211l0 -1 0 0 0 1z"/>
   <path class="fil0" d="M2303 1588l2 -2 1 1 -3 1zm8 -3l-3 -2 2 -2 1 -1 98 -114 8 -4 1 0 -98 114 0 0 154 -68 3 3 -159 70 -4 2 -1 0zm0 -2l2 1 -2 -1zm168 -72l-3 -3 98 -43 -1 5 -93 41zm98 -43l1 -5 254 -112 230 -101 8 0 0 1 -494 217zm-160 -10l-1 0 32 -37 6 -1 -30 34 -8 4zm35 -42l32 -37 3 2 -29 34 -6 1zm37 -38l-3 -2 0 0 3 2zm3 -3l-3 -3 21 -24 1 5 -19 22zm22 -25l-1 -5 83 -96 5 0 -87 101zm565 -103l-2 -1 0 0 3 1 -1 0zm-9 -2l-20 0 -386 -68 1 -4 405 71 0 1zm-465 0l-5 0 52 -60 8 -5 -1 4 -53 61zm56 -71l1 -1 0 0 -1 1z"/>
   <path class="fil0" d="M3138 1997l0 -3 0 -5 0 0 -9 -94 0 0 9 98 1 2 0 0 -1 1zm4 -3l-1 -1 -9 -93 0 0 8 90 53 -41 3 3 -55 43zm58 -45l-3 -3 25 -19c0,1 1,3 1,4l-23 18zm-68 -55l0 0 -4 -49 0 0 4 49zm-4 -3l0 0 -4 -48 0 0 4 48zm151 -3c-1,-1 -2,-2 -3,-2l404 -314 3 3 -403 313zm-152 -47l0 0 -52 -567 52 567zm-4 -3l0 0 -53 -585 0 -1 0 -1 0 0 53 587zm563 -266l-3 -3 155 -121 5 1 -157 122zm157 -124l0 0 1 -2 0 0 4 1 -1 1 -2 -2 -1 2zm-9 -4l-403 -104 0 0 403 104zm-410 -106l-348 -90 2 1 345 89 0 0zm-232 -56l-117 -30 0 0 117 30z"/>
   <path class="fil0" d="M3852 1452l-9 -2 -5 -1 -415 -107 7 -2 403 104 -225 -168 5 -2 230 172 0 0 -1 2 0 -2 0 2 1 -2 2 2 6 4zm-436 -113l-225 -58 -117 -30 0 -1 0 0 -2 -6 83 -98c0,1 1,3 2,4l-81 96 0 0 348 90 -7 2zm188 -67l-337 -252 -82 97c-1,0 -3,-1 -4,-1 0,0 0,0 0,0l86 -102 342 256 -5 2z"/>
   <path class="fil0" d="M3365 2394l-113 -198 7 5 95 166 0 0 -32 -126 5 3 35 136 0 0 -2 0 2 -1 -2 1 2 0 4 14 0 0zm-40 -156l-5 -3 -3 -12 5 4 3 11zm-5 -18l-5 -4 -54 -212 5 4 54 212zm-66 -27l-7 -5 -26 -46 9 7 22 38 3 5zm-31 -54l-9 -7 -65 -115 -11 -20 -1 -2 -9 -98 4 4 9 93 1 1 82 145zm41 -137l-5 -4 -11 -45c1,0 2,0 2,0 1,0 1,0 2,0l12 48zm-133 -108l-4 -3 -4 -48 4 3 4 49zm100 -5l-157 -616 52 567 -4 -3 -53 -587 4 0 0 1 0 0 162 636c-1,1 -2,2 -3,3z"/>
   <path class="fil0" d="M3458 3884l-368 -301 4 -2 363 297 70 -177 2 6 -70 177zm73 -183l-2 -6 233 -588 2 -6 -3 1 -192 69 -5 2 -187 67 -1 -4 184 -66 5 -2 104 -37 97 -31 -1 11 -2 5 -232 585zm-444 -121l-106 -87 5 -1 105 86 -4 2zm-110 -90l-95 -78 490 -175 1 4 -343 123c-5,0 -9,2 -13,5l-128 46 92 75 -5 1zm794 -394l-1 -1 1 0 -1 2z"/>
   <polygon class="fil0" points="3694,3987 3690,3987 3705,3812 3705,3808 3715,3690 3715,3690 3716,3682 3762,3143 3765,3111 3766,3100 3669,3131 3560,3165 3555,3167 3372,3224 3376,3235 3377,3239 3529,3695 3531,3701 3626,3987 3622,3987 3529,3707 3527,3701 3374,3241 3372,3237 3367,3222 3550,3164 3555,3162 3762,3097 3766,3096 3770,3103 3721,3675 3720,3683 3720,3683 3709,3810 3709,3814 "/>
   <path class="fil0" d="M5324 3104l-13 -5 -9 -3 -361 -129 2 -4 356 127 -308 -220 2 -4 320 229 5 3 7 5zm-387 -138l-263 -94 0 0 -1 0 1 -2 2 -1 0 0 -2 1 -1 2 -1 0 -2 -2 -151 -201 4 -1 150 200 263 94 -2 4zm50 -98l-313 -224 6 -1 309 221 -2 4zm-469 -203l-211 -281 0 0 -1 -1 -4 -5 -6 -8 8 6 1 0 1 1 2 2 365 261 -6 1 -353 -252 207 276 -4 1z"/>
   <path class="fil0" d="M4403 2927l-4 -3 -210 -170 -3 -3 -30 -24 5 -1 26 21 3 3 210 170 46 -239 4 -1 -46 243 -1 4zm-251 -204l-62 -51 -3 -3 -192 -156 2 -4 193 156 3 3 0 0 65 53 -5 1zm295 -47l3 -17 -193 -119 0 0 -4 -2 -44 -27 -3 -2 -140 -87 -5 -3 -97 -60 2 -4 101 62 5 3 137 84 3 2 43 26 4 2 0 0 196 121 -4 18 -4 1zm-556 -164l-61 -49 -4 -3 -558 -452 -5 -4 -65 -52 -3 -3 -61 -49 0 0 -4 -4 0 0 -261 -212 1 -2 -1 2 2 -3 254 157 0 0 4 3 0 0 97 60c-1,1 -1,2 -2,4l-95 -58 0 0 -4 -3 0 0 -230 -142 234 190 0 0 4 3 0 0 65 52 3 3 60 48 5 4 402 326c4,10 13,17 24,20l139 112 4 3 57 46 -2 4zm70 -155l-676 -417c1,-1 2,-2 3,-3l675 416 -2 4z"/>
   <path class="fil0" d="M4665 3339l-5 -1 -5 0 -431 -42 -4 0 -160 -16 -4 0 -52 -5 0 0 -5 0 -14 -1 -2 -4 18 2 5 0 0 0 48 5 4 0 163 16 4 0 427 41 -182 -152 -4 -4 -132 -110 -3 -3 -2 -2 0 0 -3 -3 -185 -154 -3 -3 -136 -114 -3 -3 -36 -30 5 -1 34 28 3 3 135 113 3 3 187 156 3 3 0 0 0 0 3 3 136 113 4 4 183 152 1 1 -1 2 0 -2 0 2 1 -2 2 1 3 3zm-684 -66l-139 -14 -72 -157 -3 -7 -13 -27 -253 -549 -2 -4 -106 -230 0 0 2 -3 250 208 4 3 180 150 -2 4 -184 -153 -4 -3 -240 -200 103 224 2 4 264 573 1 2 1 1 0 1 0 0 0 0 3 6 71 153 135 13 2 4zm-24 -518l-125 -104 2 -4 128 107 -5 1z"/>
   <path class="fil0" d="M4592 3987l-8 0 182 -112 0 5 -175 108zm-355 0l-5 0 -100 -105 -3 -3 -124 -130 -3 -3 -45 -47 75 -16 5 -1 114 -25 2 4 -117 25 -5 1 -65 14 39 41 3 3 125 131 3 3 103 108zm534 -110l0 -5 404 -249 3 3 -407 251zm-614 -217l-2 -4 30 -6 4 -1 207 -45 7 -2 237 -51 -2 5 -239 52 -7 2 -201 43 -4 1 -30 6zm1025 -36l-3 -3 455 -280 -607 131 -3 -3 632 -136 -473 292zm-539 -69l2 -5 123 -26 0 4 -125 27zm129 -28l0 -4 247 -53 3 3 -251 54z"/>
   <path class="fil0" d="M5552 3987l-6 0 -368 -361 -3 -3 -153 -150 -3 -3 -222 -218 2 -4 225 220 3 3 152 149 3 3 371 363zm-781 0l-4 0 0 -678 4 -8 0 686zm-4 -687l0 -82 3 3 2 1 23 23 -2 4 -22 -22 0 65 -4 8z"/>
   <polygon class="fil0" points="4423,3987 4418,3987 4637,3556 4639,3551 4767,3300 4771,3292 4793,3249 4795,3245 4846,3145 4848,3141 4937,2966 4939,2962 4987,2868 4988,2865 5138,2570 4679,2643 4673,2644 4525,2668 4521,2669 4450,2680 4445,2681 4200,2720 4195,2721 4161,2726 4155,2727 4034,2746 4028,2747 3966,2757 3961,2758 3771,2788 3855,2978 3857,2982 3943,3177 3945,3182 3945,3182 3984,3269 3985,3273 3991,3286 3993,3290 3993,3290 4102,3538 4105,3542 4155,3656 4156,3660 4214,3791 4216,3795 4301,3987 4297,3987 4213,3798 4211,3794 4153,3661 4151,3657 4102,3547 4100,3542 3990,3294 3990,3294 3988,3290 3981,3273 3979,3269 3940,3180 3940,3180 3937,3174 3854,2986 3852,2982 3765,2785 3767,2785 3766,2786 3770,2788 3770,2788 3771,2784 3957,2755 3962,2754 4031,2743 4037,2742 4151,2724 4156,2723 4197,2716 4201,2716 4446,2677 4450,2676 4518,2665 4522,2664 4669,2641 4674,2640 5133,2567 5141,2570 5142,2566 5142,2566 5145,2565 4992,2867 4990,2870 4942,2964 4941,2967 4853,3141 4850,3145 4798,3248 4796,3252 4771,3301 4767,3309 4644,3550 4642,3555 "/>
   <polygon class="fil0" points="3770,2788 3766,2786 3767,2785 3829,2648 3830,2644 3890,2513 3892,2509 3920,2448 3922,2444 3961,2358 3962,2354 4026,2214 5142,2566 5142,2566 5141,2570 5133,2567 4028,2219 3966,2356 3964,2360 3926,2443 3924,2447 3895,2511 3894,2515 3834,2647 3832,2651 3771,2784 3770,2788 "/>
   <path class="fil0" d="M2420 1996l-683 -204 1 0 5 -2 675 201 15 -50 2 -7 66 -223 3 2 -68 227 -2 7 -14 46 -1 2zm-1 -2l0 0 1 -2 -1 2zm-683 -202l-3 -1 2 -1 1 2zm3 -4l0 0 433 -288 4 2 -412 274 -25 12zm767 -78l-3 -2 7 -24 1 -4 33 -110 3 3 -32 109 -1 4 -7 25zm42 -141l-3 -3 28 -95 1 -5 0 0 64 -215 4 0 -63 213 0 0 -1 5 -30 100zm-369 -69l-4 -2 68 -45 9 -1 -74 49zm73 -53l81 -54 3 3 -75 50 -9 1zm88 -54l-3 -3 84 -56 3 2 -84 56zm88 -58l-3 -2 6 -4 3 3 -6 4zm9 -6l-3 -3 61 -40 1 4 -59 39zm62 -41l-1 -4 50 -33 7 0 -56 37zm145 -41l-4 0 18 -61 1 -4 -8 5 -91 60 -7 0 107 -71 1 -1 4 -3 -1 3 -1 4 -20 68z"/>
   <path class="fil0" d="M1735 1793l0 -1 -1 -2 -91 -250 1 1 4 -1 90 247 0 0 25 -12 478 -232 4 3 -502 243 -5 2 -1 0 -1 1zm1 -3l0 0 2 -1 -2 1zm511 -246l-4 -3 168 -82 3 3 -8 4 -160 78zm-458 -25l334 -50 0 0 -334 50zm226 -38l107 -16 0 0 -107 16zm114 -13l0 0 248 -37 0 0 -126 19 -9 1 -113 17zm-3 -4l0 0 124 -18 9 -1 114 -17 0 0 -247 37zm293 -4l-3 -3 8 -4 90 -43 -60 9 -6 1 -64 10 0 0 142 -21 0 0 -106 51zm-40 -34l0 0 72 -11 6 -1 63 -9 0 0 -141 21zm150 -20l-2 -2 0 -1 11 -2 -9 4z"/>
   <path class="fil0" d="M3394 2286l0 0 -67 -43 -5 -3 -63 -40 0 0 -7 -5 -45 -29 -6 -4 -122 -78 -3 -2 0 0 -573 -368 -3 -2 -184 -118 -5 -3 -4 -3 -1 -1 -62 -40 -4 -3 -65 -42 -4 -2 -47 -30 0 0 6 -1 0 0 44 29 4 2 66 42 4 3 59 38 1 1 3 2 2 1 1 1 187 120 3 2 574 369 0 0 3 2 117 75 6 4 43 28 7 5 0 0 65 42 5 3 44 29 -47 -40 -5 -4 -87 -73 -9 -7 -35 -29 -6 -5 -74 -62 -3 -3 0 0 -186 -156 -13 -11 0 0 -360 -303 -3 -3 -68 -57 -3 -3 0 0 -55 -46 -1 0 -3 -3 -34 -29 0 0 5 -1 0 0 32 27 1 0 3 3 56 47 0 0 3 3 65 54 3 3 374 314 0 0 13 11 173 145 0 0 3 3 68 58 6 5 32 27 9 7 91 77 5 4 75 63 0 0 -2 3zm-1271 -821l0 0 38 -216 8 0 63 53c0,2 0,3 0,5l-67 -57 -38 213 0 0 -4 1zm251 -38l0 0 -39 -33 -3 -3 -73 -62c2,0 3,0 5,-1l72 60 3 3 41 34 0 0 -5 1zm-213 -181l1 -3 1 1 -1 3z"/>
   <path class="fil0" d="M3075 1250l-5 0 -582 0 -1 -4 582 0 0 -1 -226 -661 4 -2 226 661 2 6zm-591 0l-142 0 -5 -4 146 0 1 4zm-148 0l-29 0 -6 -4 30 0 5 4zm-36 0l-139 0 1 -3 1 -3 32 -68 3 2 -32 67 127 0 6 4zm-99 -75l-2 -1c1,0 1,0 2,1l0 1zm33 -70c-1,-1 -2,-2 -3,-2l141 -297 2 6 -140 294zm142 -299l-2 -6 5 -10 6 -2 -9 19zm6 -22l158 -334 4 0 -157 331 -6 2zm461 -203l-45 -133 4 0 45 131 -4 2zm-300 -134l143 -301 8 -8 2 0 0 -2 0 0 105 308 -4 0 -104 -303 -145 306 -4 0z"/>
   <path class="fil0" d="M1858 1022l0 -4 2 1 1 -1 -3 4zm2 -8l-2 -2 2 -72 4 3 -2 68 40 -42 3 2 -37 39 -8 3zm47 -45l-3 -2 42 -44 3 3 -41 44zm-43 -31l-4 -3 2 -83 4 3 -2 82zm88 -16l-3 -3 355 -377 1 5 -354 375zm-85 -71l-4 -3 11 -390 4 0 -11 393zm442 -307l-1 -5 82 -87 6 0 -87 92zm-434 -91l2 -63 4 0 -2 63 -4 0zm519 -5l294 -311 5 1 -8 8 -285 302 -6 0zm-513 -62l-4 0 10 -337 2 0 0 -2 1 2 -1 -2 0 2 2 0 -10 337zm813 -251l0 -2 2 0 -2 2 0 0zm-807 -90l0 -1 2 0 -2 1z"/>
   <polygon class="fil0" points="2694,138 2692,138 2687,137 1890,50 1888,50 1888,48 1889,50 1888,48 1888,50 1886,50 1878,49 1886,46 1888,46 2038,0 2051,0 1898,47 2689,133 2669,0 2673,0 2693,134 2694,136 "/>
   <path class="fil0" d="M1860 1019l-2 -1 -667 -548 0 -1 38 27 629 517 2 2 8 -3 57 -25 4 3 -67 30 -1 1zm73 -32l-4 -3 59 -26 3 3 -59 26zm63 -28l-3 -3 375 -166 1 4 -373 165zm376 -166l-1 -4 10 -5 6 -2 222 -98c1,1 2,2 3,3l-228 101 -6 2 -7 3zm353 -156c0,-1 0,-3 0,-4l117 -51 4 -2 303 -134 1 4 -303 134 -4 2 -118 52zm-1532 -172l-6 -4 207 -2 5 4 -206 2zm-8 -1l-4 -3 2 0 1 3 0 0zm220 -1l-5 -4 474 -5 4 0 402 -4 1 4 -403 4 -4 0 -469 5zm881 -9l-1 -4 109 -1 6 0 142 -1 4 0 249 -3 4 0 348 -4 1 4 -348 4 -4 0 -252 3 -4 0 -144 1 -6 0 -104 1zm868 -6l-2 -7 8 0 10 0 -16 7z"/>
   <path class="fil0" d="M2529 1413l-4 -3 0 0 3 0 1 4zm-2 -7l-39 -28 -3 -2 -54 -46 -3 -3 -93 -78 -5 -4 -96 -81c1,-1 2,-2 3,-3l99 84 5 4 90 76 3 3 53 45 3 3 31 26 -12 -48 -1 -5 -15 -60 -1 -4 -9 -36 -1 -4 -110 -434 -2 -6 -3 -11 -1 -4 -16 -62c1,-1 2,-3 3,-4l16 64 1 4 2 7 2 6 112 440 1 4 8 33 1 4 15 59 1 5 14 55 0 1zm-353 -291l-184 -154 -3 -3 -39 -33 -3 -3 -79 -67 -4 -3 -464 -390 -5 -4 -150 -126 632 54 4 0 397 34 7 29 1 4 22 86 1 5 25 99c-2,-1 -3,-2 -5,-2l-24 -93 -1 -5 -23 -90 -1 -4 -6 -25 -394 -34 -4 0 -620 -53 144 121 5 4 458 385 4 3 82 69 3 3 40 34 3 3 182 153c-1,1 -2,2 -2,3z"/>
   <path class="fil0" d="M1644 1541l-1 -1 -62 -145c2,2 4,3 6,4l58 137 370 -55 107 -16 4 -1 247 -37 5 -1 141 -21 -34 -24 -3 -2 -61 -43 -3 -2 -120 -85 -6 -4 -95 -67 -3 -2 -266 -188 -4 -3 -20 -14 -3 -2 -38 -26 -4 -3 -631 -445 -38 -27 0 1 382 896c0,1 -1,2 -1,3 0,1 0,3 0,4l-387 -909 0 0 -1 -3 -2 -4 5 4 6 4 668 471 4 3 40 28 3 2 21 15 4 3 243 172c5,7 13,13 22,15l2 1 101 71 6 4 117 82 3 2 60 42 3 2 39 28 2 2 1 1 -3 0 -3 0 -142 21 -5 1 -248 37 -6 1 -334 50 -142 21 -4 1zm-457 -1079l-1 2 1 -2z"/>
   <path class="fil1" d="M4548 1158l5 -3 1 1 -1 2 -5 1zm12 -1l0 -1 289 -160 0 0 -282 156 220 -22 -2 4 -224 22zm229 -23l2 -4 195 -19 4 4 -201 20zm207 -20l-4 -4 214 -21 4 4 -214 21zm219 -22l-4 -4 157 -16 -2 4 -151 15zm156 -15l2 -4 449 -44 9 3 -460 45zm466 -46l-5 -3 8 3 -4 0zm-985 -37l0 0 1 0 0 0 -1 0zm7 -4l0 0 134 -74 0 0 -134 74zm138 -76l0 0 198 -110 0 0 -198 110zm63 -40l132 -73 0 0 -132 73z"/>
   <path class="fil1" d="M4560 1156l0 -1 1 -1 -1 0 1 -3 284 -157 3 3 -289 160zm-4 -4l0 0 101 -316 0 0 -101 316zm296 -158l-3 -3 7 -4 -3 6 -1 0zm7 -4l3 -6 128 -71 3 3 -134 74zm138 -76l-3 -3 67 -37 132 -73 2 2 1 0 1 -2 2 -1 -2 1 -1 2 1 0 -198 110zm-338 -82l0 0 48 -149 0 0 -48 149zm537 -32l0 0 -150 -200 0 0 150 200zm-10 -7l-144 -193 144 193zm-478 -114l0 0 9 -27 0 0 -9 27zm10 -31l54 -169 -54 169zm321 -51l-211 -281 -47 147 47 -147 211 281 0 0zm4 -1l-207 -276 207 276 0 0zm-216 -287l-1 0 0 -1 1 1 0 1z"/>
   <path class="fil1" d="M4263 2214l176 -364 4 2 -165 342 278 -286 4 2 -296 305zm299 -308l-4 -2 90 -93 3 3 -89 92zm-118 -58l-4 -2 81 -168 3 3 -81 167zm210 -37l-3 -3 52 -54c1,1 2,2 3,2l-53 54zm-128 -134l-3 -3 26 -55 5 -1 -28 59zm271 -14c-1,-1 -2,-2 -3,-3l115 -119 7 -2 -120 123zm-246 -48l68 -140 2 5 -65 134 -5 1zm363 -78l258 -266 5 0 -256 264 -7 2zm-291 -62l-2 -5 25 -52 2 5 -25 51zm27 -56l-2 -5 89 -185 4 0 -92 190zm527 -150l0 0 0 -2 0 2 1 -2 -1 -1 108 -111 -77 -62 -4 -4 -213 -173 0 0 -3 -3 -67 -55 -61 125 -3 6 0 0 -3 7 -3 -3 0 -1 0 0 3 -6 63 -131 4 3 1 -4 69 56 3 3 0 0 214 174 4 4 72 59 0 9 -106 109 -2 -1 -1 2zm-433 -44l-4 0 43 -90 2 -4 64 -132 3 3 -63 129 -2 4 -44 90zm547 -70l-1 -1 2 1 0 0z"/>
   <path class="fil1" d="M4554 1156l-1 -1 -88 -41 0 0 89 42 0 0zm5 -2l-1 0 -1 -3 -1 2 -1 0 101 -316 3 3 -99 311 -1 3zm-100 -42l-137 -64 137 64 0 0zm-168 -83l0 0 83 -110 0 0 -83 110zm86 -114l0 0 144 -191 0 0 -144 191zm285 -79l-3 -3 48 -149 3 3 -48 149zm-139 -115l0 0 31 -41 0 0 -31 41zm187 -38l-3 -3 9 -27 4 -1 -10 30zm-153 -8l52 -69 0 0 -52 69 0 0zm160 -25l54 -169 3 -9 3 2 -56 175 -4 1zm-106 -46l0 0 119 -158 0 0 -119 158zm167 -133l-4 -2 46 -144 -89 118 0 0 94 -125 1 1 -47 147 -2 6zm-49 -30l0 0 93 -124 0 0 -93 124zm98 -129l-1 -1 0 -1 5 -7 -3 8 -2 0z"/>
   <path class="fil1" d="M4166 1723l1 -7 3 1 -4 6zm6 -9l0 0 63 -91 0 0 -63 91zm-5 0l116 -665 2 -5 -3 32 -110 631 -5 8zm73 -98l0 0 270 -390 0 0 -270 390zm273 -393l0 0 11 -15 0 0 -11 15zm13 -19l0 0 30 -44 0 0 -30 44zm28 -47l-89 -42 -2 -6 93 44 0 0 1 0 -1 1 -1 2zm5 -1l-1 -2 1 0 1 0 -1 1zm-100 -44l-137 -64 -29 -13 -3 -6 0 0 166 77 2 6z"/>
   <path class="fil1" d="M4879 2067l-320 -158 -4 -2 -113 -56 -4 -2 -210 -103 0 -4 211 104 4 2 114 56 4 2 310 153 -7 -20 7 7 5 14 -2 1 2 3 1 -1 1 3zm-11 -30l-7 -7 -15 -43 20 46 1 4zm-18 -51l-20 -46 -61 -174c1,0 2,-1 4,-2l78 221zm-625 -241l-55 -27 -3 -1 -1 0 1 -2 5 -8 64 -92 -1 8 -63 91 53 26 0 4zm500 -104l-19 -55 4 -1 19 55c-1,0 -3,1 -4,1zm-485 -25l1 -8 268 -386 2 4 -270 390zm465 -34l-56 -158 -2 -5 -72 -206 4 0 70 201 2 5 57 163 -4 1zm-192 -359l-2 -4 8 -11 5 0 -11 15zm65 -14l-4 0 -17 -49 0 0 -30 44 -5 0 31 -45 1 -2 0 0 1 -2 1 -1 1 -2 1 3 1 2 0 1 0 1 18 52zm-21 -53l-2 1 2 -1z"/>
   <path class="fil1" d="M4291 1029l0 -1 1 -2 -1 0 -1 -2 83 -110 2 4 -83 110zm-8 -3l-3 -1 3 1zm93 -111l-2 -4 142 -190 3 3 -144 191zm146 -195l-3 -3 28 -38 6 -1 -31 41zm29 -45l54 -72 3 3 -52 69 -6 1zm60 -73l-3 -3 118 -158 3 2 -119 158zm-1413 -11l-4 -2 5 -1 0 1 -1 1zm10 0l-3 -1 6 -4 749 -129 2 4 -755 129zm759 -130l-2 -4 55 -9 2 4 -54 9zm58 -10l-2 -4 137 -24 4 3 -140 24zm707 -11l-3 -2 93 -124 -230 39 -5 -3 236 -40 4 5 -94 125zm-562 -14l-4 -3 180 -31 4 3 -180 31zm185 -32l-4 -3 13 -2c3,1 6,1 10,1 0,0 0,0 0,0 8,0 16,-2 23,-7l45 -8 -2 4 -85 15zm89 -15l2 -4 134 -23 5 3 -142 24zm385 -68l-2 -2 2 0 2 0 -2 2z"/>
   <path class="fil1" d="M4176 1158l-92 -53 5 -2 86 50 106 -119 3 -1 -2 6 -106 118zm-96 -56l-5 -3 5 -2 5 3 -5 2zm-10 -6l-869 -503 0 0 25 10 849 492 -5 2zm221 -67l0 0 0 0 0 0 0 0z"/>
   <path class="fil1" d="M4282 1029l-1056 -426 -25 -10 1 -1 3 -2 3 1 1073 433 3 1 -321 -564 -2 -4 -75 -133 -4 -14 -2 0 2 -1 -2 1 2 0 0 0 83 146 2 4 307 539 13 27 -4 1zm-1083 -437l-1 -1 1 -1 1 2z"/>
   <polygon class="fil1" points="3254,517 3611,0 3611,0 "/>
   <polygon class="fil1" points="3874,298 3705,0 3705,0 3874,298 "/>
   <path class="fil1" d="M3200 595l-1 -3 -1 -2 0 -1 -48 -140 4 -2 48 139 405 -586 5 0 -357 517 -47 68 -8 4 2 3 0 0 -1 1 0 0 -1 2zm-51 -150l0 -1 2 0 -1 1zm-2 -5l-152 -441 4 0 152 441 -4 0z"/>
   <polygon class="fil2" points="3150,449 3149,445 3150,445 3149,445 3147,441 3152,441 3154,447 "/>
   <polygon class="fil1" points="3202,592 3200,589 3208,584 3781,252 3686,0 3691,0 3786,253 3212,587 3206,590 3202,592 "/>
   <polygon class="fil1" points="3886,326 3700,0 3705,0 3874,298 3874,298 3799,0 3803,0 3882,311 3882,311 3880,312 3882,311 3880,312 3882,311 3886,326 "/>
   <path class="fil1" d="M3979 1816l-296 -242 3 -3 291 238 70 -177 2 6 -70 177zm-299 -245l-278 -227 14 -5 7 2 -13 5 273 223 -3 3zm-250 -233l-7 -2 182 -65 4 3 -179 64zm183 -65l-4 -3 283 -101 1 4 -281 100z"/>
   <path class="fil2" d="M3683 1574l-3 -3 3 -3 3 3 -3 3zm-253 -236l-7 -2 0 0 7 2 0 0z"/>
   <path class="fil2" d="M3424 1341l-7 -2 7 -2 7 2 -7 2zm185 -66l-4 -3 5 -2 4 3 -5 2z"/>
   <path class="fil1" d="M4051 1633l-2 -6 233 -588 2 -6 -3 1 -192 69 -5 2 -187 67 -1 -4 184 -66 5 -2 104 -37 97 -31 -1 11 -2 5 -232 585zm240 -605l-1 -1 1 0 -1 2z"/>
   <path class="fil1" d="M4200 2091l-151 -453 -2 -6 -153 -460 -1 -4 -5 -15 182 -58 5 -2 207 -65 4 -1 3 7 -49 573 -1 8 0 0 -11 126 0 4 -29 345zm-148 -458l146 439 28 -327 0 -4 10 -118 0 0 1 -8 46 -539 3 -32 1 -11 -97 31 -109 34 -5 2 -182 57 4 11 1 4 152 456 2 6z"/>
   <path class="fil1" d="M5844 1036l-13 -5 -9 -3 -361 -129 2 -4 356 127 -308 -220 2 -4 320 229 5 3 7 5zm-387 -138l-263 -94 0 0 -1 0 1 -2 2 -1 -2 1 -1 2 -1 0 -2 -2 0 0 -6 -8 -144 -193 4 -1 150 200 0 0 263 94 -2 4zm50 -98l-313 -224 6 -1 309 221 -2 4zm-469 -203l-211 -281 -1 -1 -4 -5 -6 -8 8 6 1 0 1 1 2 2 365 261 -6 1 -353 -252 207 276 -4 1z"/>
   <path class="fil1" d="M4923 860l-4 -3 -210 -170 -3 -3 0 0 -30 -24 5 -1 26 21 0 0 3 3 210 170 46 -239 4 -1 -46 243 -1 4zm-251 -204l-62 -51 0 0 -3 -3 -192 -156 2 -4 193 156 3 3 0 0 65 53 -5 1zm295 -47l3 -17 -193 -119 -3 -2 -44 -27 0 0 -3 -2 -140 -87 -5 -3 -97 -60 2 -4 101 62 5 3 137 84 3 2 0 0 43 26 4 2 196 121 -4 18 -4 1z"/>
   <path class="fil1" d="M4411 445l-61 -49 -4 -3 -484 -392 6 0 483 391 4 3 57 46 -2 4zm70 -155l-470 -290 8 0 464 286 -2 4z"/>
   <path class="fil1" d="M5185 1271l-5 -1 -5 0 -431 -42 -4 0 -160 -16 -4 0 -52 -5 0 0 -5 0 -13 -1 -2 -4 18 2 5 0 47 5 4 0 163 16 4 0 427 41 -182 -152 -4 -4 -132 -110 -3 -3 -2 -2 0 0 -3 -3 -185 -154 -3 -3 0 0 -136 -114 0 0 -3 -3 -36 -30 5 -1 34 28 3 3 0 0 135 113 0 0 3 3 187 156 3 3 0 0 0 0 3 3 136 113 4 4 183 152 1 1 -1 2 0 -2 0 2 1 -2 2 1 3 3zm-684 -66l-139 -14 -72 -157 -3 -7 -13 -27 -253 -549 -2 -4 -110 -239 256 214 4 3 180 150 -2 4 -184 -153 -4 -3 -240 -200 103 224 2 4 264 573 1 2 1 1 0 1 0 0 0 0 3 6 71 153 135 13 2 4zm-24 -518l-125 -104 2 -4 128 107 -5 1z"/>
   <path class="fil1" d="M5287 2083l-388 -33 -21 13 -1 1 -2 -3 2 -1 16 -10 -15 -1 2 -4 19 2 389 -240 0 5 -382 236 382 32 0 4zm-413 -35l-2 -2 -7 -7 -213 -225 -3 -3 -124 -130 -3 -3 -44 -47 75 -16 5 -1 114 -25 2 4 -117 25 -5 1 -65 14 39 41 3 3 125 131 3 3 207 218 7 7 1 1 5 11zm417 -239l0 -5 404 -249 3 3 -407 251zm-614 -217l-2 -4 30 -6 4 -1 207 -45 7 -2 237 -51 -2 5 -239 52 -7 2 -201 43 -4 1 -30 6zm1025 -36l-3 -3 455 -280 -607 131 -3 -3 632 -136 -473 292zm-539 -69l2 -5 123 -26 0 4 -125 27zm129 -28l0 -4 247 -53 3 3 -251 54z"/>
   <path class="fil1" d="M5287 2083l0 -842 4 -8 0 846 920 -19 -513 -502 -3 -3 -153 -150 -3 -3 -222 -218 2 -4 225 220 3 3 152 149 3 3 519 508 -931 19 -2 0zm2 -2l2 0 -2 0zm-2 -849l0 -82 3 3 1 1 23 23 -2 4 -22 -22 0 65 -4 8z"/>
   <path class="fil1" d="M4876 2051l-2 -4 -5 -11 -2 -5 -20 -46 -96 -217c1,0 3,0 4,0l75 170 20 46 25 57 281 -554 2 -5 128 -251 4 -8 22 -43 2 -4 51 -100 2 -4 89 -175 2 -4 48 -94 2 -4 150 -294 -459 73 -6 1 -148 24 0 0 -4 1 -71 11 -4 1 -246 39 -4 1 0 0 -35 6 -5 1 -122 19 0 0 -6 1 -62 10 -5 1 -190 30 84 190 2 4 0 0 86 194 2 6 0 0 38 87 2 4 6 13 2 4 0 0 109 247 2 5 50 114 2 4 27 61c-1,1 -2,2 -3,3l-28 -63 -2 -4 -49 -110 -2 -5 -110 -248 0 0 -2 -4 -7 -17 -2 -4 -39 -89 0 0 -2 -6 -83 -188 0 0 -2 -4 -87 -197 2 0 0 1 4 2 0 0 0 0 2 -3 185 -30 5 -1 69 -11 6 -1 0 0 114 -18 5 -1 40 -6 4 -1 245 -39 4 -1 67 -11 0 0 4 -1 0 0 146 -23 6 -1 459 -73 8 3 1 -4 0 0 3 -1 -153 302 -2 4 -47 93 -2 4 -88 173 -2 4 -53 104 -2 4 -25 49 -4 8 -123 241 -2 5 -283 558 -2 4 -1 3z"/>
   <path class="fil1" d="M4290 720l0 0zm0 0l-4 -2 0 -1 62 -137 2 -4 60 -132 2 -4 28 -61 2 -4 39 -86 2 -4 64 -140 1116 351 0 0 -1 4 -8 -3 -1105 -348 -62 137 -2 4 -38 83 -2 4 -29 64 -2 4 -60 132 -2 4 -61 133 -2 3 0 0z"/>
   <path class="fil1" d="M1756 3296l5 -3 1 1 -1 2 -5 1zm12 -1l0 -1 7 -4 220 -22 -2 4 -224 22zm1 -6l0 0 220 -122 -220 122zm228 -17l2 -4 195 -19 4 4 -201 20zm207 -20l-4 -4 214 -21 4 4 -214 21zm219 -22l-4 -4 157 -16 -2 4 -151 15zm156 -15l2 -4 449 -44 9 3 -460 45zm466 -46l-5 -3 8 3 -4 0zm-18 -8l-130 -46 130 46 0 0zm-54 -15l-303 -108 0 0 303 108zm-307 -110l-81 -29 0 0 81 29 0 0zm-420 -7l157 -87 98 35 0 0 -98 -35 -157 87z"/>
   <path class="fil1" d="M1768 3294l0 -1 1 -1 -1 0 100 -315 0 0 -99 311 220 -122 64 -36 3 3 -282 156 -7 4zm-4 -4l0 0 101 -316 0 0 -101 316zm296 -158l-3 -3 7 -4 -3 6 -1 0zm7 -4l3 -6 128 -71 3 3 -134 74zm138 -76l-3 -3 198 -110 -151 -201 0 0 152 203 1 0 1 -2 2 -1 -2 1 -1 2 1 0 -157 87 -41 23zm-335 -79l0 0 48 -149 0 0 -48 149zm-3 -3l0 0 48 -149 0 0 -48 149zm537 -32l0 0 -150 -200 150 200zm-485 -118l0 0 10 -30 0 0 -10 30zm-3 -3l0 0 9 -27 0 0 -9 27zm10 -31l57 -178 0 0 -57 178 0 0zm4 -1l56 -175 0 0 -56 175 0 0zm317 -51l-211 -281 -49 153 0 0 49 -153 211 281 0 0zm4 -1l-21 -28 21 28zm-268 -130l0 0 46 -144 0 0 -46 144zm51 -158l-1 0 0 -1 1 1 0 1z"/>
   <path class="fil1" d="M1825 3987l-6 0 37 -38 3 3 -34 35zm-173 -1l-4 -2 81 -168 3 3 -81 167zm210 -37l-3 -3 80 -82 2 4 -79 81zm82 -84l-2 -4 15 -15 1 4 -14 15zm17 -18l-1 -4 159 -163 7 -2 -164 169zm-227 -32l-3 -3 26 -55 5 -1 -28 59zm26 -62l68 -140 2 5 -65 134 -5 1zm363 -78l258 -266 5 0 -256 264 -7 2zm-291 -62l-2 -5 25 -52 2 5 -25 51zm27 -56l-2 -5 89 -185 4 0 -92 190zm527 -150l0 0 0 -2 0 2 1 -2 -1 -1 108 -111 -77 -62 -4 -4 -213 -173 -3 -3 -67 -55 -60 125 -3 6 -3 7 -3 -3 0 -1 3 -6 63 -131 4 3 1 -4 69 56 3 3 214 174 4 4 72 59 0 9 -106 109 -2 -1 -1 2zm-433 -44l-4 0 43 -90 2 -4 64 -132 3 3 -63 129 -2 4 -44 90zm547 -70l-1 -1 2 1 0 0z"/>
   <path class="fil1" d="M1768 3292l-1 0 -1 -3 -1 2 -1 0 101 -316 3 3 -100 315zm-268 -125l0 0 83 -110 0 0 -83 110zm-2 -4l0 0 83 -110 0 0 -83 110zm87 -110l0 0 144 -191 0 0 -144 191zm-2 -4l0 0 142 -190 -142 190zm286 -75l-3 -3 48 -149 3 3 -48 149zm-139 -115l0 0 31 -41 0 0 -31 41zm187 -38l-3 -3 9 -27 4 -1 -10 30zm-153 -8l52 -69 0 0 -52 69 0 0zm160 -25l57 -178 3 2 -56 175 -4 1zm-106 -46l0 0 119 -158 0 0 -119 158zm167 -133l-3 -2 46 -144 -89 118 0 0 94 -125 1 1 -49 153zm49 -159l-1 -1 0 -1 5 -7 -3 8 -2 0z"/>
   <path class="fil1" d="M1374 3861l1 -7 3 1 -4 6zm6 -9l0 0 63 -91 0 0 -63 91m-5 0l116 -665 2 -5 -3 32 -110 631 64 -92 0 0 -69 99zm73 -98l0 0 46 -66 -46 66zm1 -8l0 0 268 -386 0 0 -268 386zm270 -390l0 0 8 -11 0 0 -8 11zm10 -15l0 0 32 -45 1 -2 -1 -1 -88 -41 -2 -6 93 44 0 0 1 0 -1 1 -34 49zm38 -48l-1 -2 1 0 1 0 -1 1zm-100 -44l-166 -77 -3 -6 0 0 166 77 2 6z"/>
   <path class="fil1" d="M2011 3987l-4 0 -48 -137 -1 -4 -43 -122 4 -1 42 120 1 4 49 140zm-356 0l-9 0 -209 -103 0 -4 211 104 4 2 3 1zm-222 -105l-55 -27 -3 -1 -1 0 1 -2 69 -99 -1 8 -63 91 53 26 0 4zm15 -129l1 -8 268 -386 2 4 -224 323 -46 66zm465 -34l-56 -158 -2 -5 -72 -206 4 0 70 201 2 5 57 163 -4 1zm-192 -359l-2 -4 8 -11 5 0 -11 15zm65 -14l-4 0 -17 -49 -30 44 -5 0 34 -49 1 -1 1 -2 1 3 1 2 0 1 0 1 18 52zm-21 -53l-2 1 2 -1z"/>
   <path class="fil1" d="M1490 3167l-510 -206 510 206 0 0zm9 -1l0 0 0 -1 1 -2 -1 0 -1 -2 83 -110 2 4 -83 110zm-8 -3l-1078 -435 6 -4 749 -129 2 4 -755 129 1076 434zm93 -111l-2 -4 142 -190 3 3 -144 191zm146 -195l-3 -3 28 -38 6 -1 -31 41zm29 -45l54 -72 3 3 -52 69 -6 1zm60 -73l-3 -3 118 -158 3 2 -119 158zm-1412 -10l-6 -2 5 -1 0 1 -1 1 1 1 0 0zm768 -131l-2 -4 55 -9 2 4 -54 9zm58 -10l-2 -4 137 -24 4 3 -140 24zm707 -11l-3 -2 93 -124 -230 39 -5 -3 236 -40 4 5 -94 125zm-562 -14l-4 -3 180 -31 4 3 -180 31zm185 -32l-4 -3 91 -16 -2 4 -85 15zm89 -15l2 -4 134 -23 5 3 -142 24zm385 -68l-2 -2 2 0 2 0 -2 2z"/>
   <path class="fil1" d="M1384 3295l-92 -53 5 -2 86 50 106 -119 3 -1 -2 6 -106 118zm-96 -56l-5 -3 5 -2 5 3 -5 2zm-10 -6l-869 -503 0 0 1081 436 0 0 -510 -206 -546 -220 849 492 -5 2zm221 -67l0 0 0 0 0 0 0 0 0 0zm-8 -3l-1078 -435 0 0 1078 435z"/>
   <path class="fil1" d="M1490 3167l-1081 -436 1 -1 3 -2 1078 435 -321 -564 -2 -4 -75 -133 -4 -14 -2 0 2 -1 -2 1 2 0 0 0 83 146 2 4 307 539 13 27 -4 1zm-1083 -437l-1 -1 1 -1 1 2zm2 -6l0 0 376 -545 -376 545zm673 -288l-95 -166 0 0 95 166 0 0zm-99 -174l0 0 -25 -44 0 0 25 44zm-31 -54l0 0 -82 -145 0 0 82 145zm-46 -72l-28 -50 0 0 28 50z"/>
   <path class="fil1" d="M408 2733l-1 -3 0 0 -1 -2 0 -1 -244 -709 2 -7 245 713 376 -545 19 -27 3 2 -392 568 -8 4 2 3 0 0 -1 1 0 0 -1 2zm402 -582l-3 -2 25 -37 3 3 -25 36zm27 -39l-3 -3 31 -45 -204 -101 0 0 205 101 0 3 1 -1 0 1 -30 44zm28 -51l-217 -108 0 0 217 108 0 0zm-706 -49l-121 -352 5 3 117 341 -2 7zm487 -55l-406 -201 0 0 406 201 0 0zm-13 -11l-286 -141 286 141 0 0zm-397 -192l-194 -96 0 0 -1 -1 196 97 0 0zm-200 -101l-1 -3 3 1 -1 1 -1 1z"/>
   <path class="fil1" d="M410 2730l-2 -3 8 -4 574 -333 -59 -157 6 4 59 155 -575 333 -6 4 0 0 -3 2 0 0zm523 -500l-6 -4 -19 -50 6 5 18 48zm-21 -56l-6 -5 -38 -101 0 -1 0 0 11 20 0 0 33 88z"/>
   <path class="fil1" d="M866 2065l-205 -101 -13 -11 217 108 0 5zm-220 -109l-406 -201 1 -4 107 53 286 141 13 11zm-410 -203l-196 -97 -2 -1 1 0 4 -2 194 96 -1 4zm-201 -100l-1 -1 1 -1 1 -1 -2 2zm529 -234l226 -99 0 0 -226 99z"/>
   <path class="fil1" d="M31 1658l2 -2 1 1 -3 1zm8 -3l-3 -2 2 -2 1 -1 98 -114 8 -4 1 0 -98 114 154 -68 3 3 -159 70 -4 2 -1 0zm0 -2l2 1 -2 -1zm168 -72l-3 -3 98 -43 -1 5 -93 41zm98 -43l1 -5 259 -114 226 -99 8 0 0 1 -494 217zm-160 -10l-1 0 32 -37 6 -1 -30 34 -8 4zm35 -42l32 -37 3 2 -29 34 -6 1zm37 -38l-3 -2 0 0 3 2zm3 -3l-3 -3 21 -24 1 5 -19 22zm22 -25l-1 -5 83 -96 5 0 -87 101zm565 -103l-2 -1 0 0 3 1 -1 0zm-9 -2l-20 0 -386 -68 1 -4 405 71 0 1zm-465 0l-5 0 52 -60 8 -5 -1 4 -53 61zm56 -71l1 -1 0 0 -1 1z"/>
   <path class="fil1" d="M866 2067l0 -3 0 -5 0 0 -9 -94 0 0 9 98 1 2 0 0 -1 1zm4 -3l-1 -1 -9 -93 0 0 8 90 53 -41 3 3 -55 43 0 0zm58 -45l-3 -3 42 -32 1 4 -40 31zm46 -36l-4 -2 510 -397c-2,3 -4,6 -6,9l-501 389zm-114 -19l0 0 -4 -49 0 0 4 49zm-4 -4l0 0 -4 -48 0 0 4 48zm-1 -50l0 0 -52 -567 52 567zm-4 -3l0 0 -53 -586 0 -1 0 0 53 587zm641 -332l73 -57 -764 -197 0 0 769 199 -68 53c-4,0 -7,2 -10,3zm78 -58l0 0 1 -2 0 0 4 1 -1 1 -2 -2 -1 2z"/>
   <path class="fil1" d="M1580 1522l-9 -2 -769 -199 0 -1 0 0 -2 -6 194 -230 577 431 0 0 -1 2 0 -2 0 2 1 -2 2 2 6 4zm-774 -204l755 195 -566 -423 -192 227 0 0 2 1zm765 200l0 0z"/>
   <path class="fil1" d="M1093 2464l-113 -198 7 5 95 166 0 0 -32 -126 5 3 35 136 0 0 -2 0 2 -1 -2 1 2 0 4 14 0 0zm-40 -156l-5 -3 -3 -12 5 4 3 11zm-5 -18l-5 -4 -54 -212 5 4 54 212zm-66 -27l-7 -5 -26 -46 9 7 25 44zm-31 -54l-9 -7 -37 -65 -28 -50 -11 -20 -1 -2 -9 -98 4 3 9 93 1 1 82 145zm41 -137l-5 -4 -20 -79 -1 -4 0 -1 5 3 22 85zm-23 -91l-5 -3 -161 -635 52 567 -4 -3 -53 -587 4 0 0 1 0 0 168 660zm-110 -17l-4 -4 -4 -48 4 3 4 49z"/>
   <path class="fil1" d="M1186 3954l-576 -472 490 -175 1 4 -484 173 567 464 70 -177 2 6 -70 177zm73 -183l-2 -6 233 -588 2 -6 -3 1 -192 69 -5 2 -187 67 -1 -4 184 -66 5 -2 104 -37 97 -31 -1 11 -2 5 -232 585zm240 -605l-1 -1 1 0 -1 2z"/>
   <polygon class="fil1" points="1428,3987 1424,3987 1433,3882 1433,3878 1443,3760 1443,3760 1444,3752 1444,3752 1490,3213 1493,3181 1494,3170 1397,3201 1288,3235 1283,3237 1100,3294 1104,3305 1105,3309 1257,3765 1259,3771 1331,3987 1327,3987 1257,3777 1255,3771 1102,3311 1100,3307 1095,3292 1278,3234 1283,3232 1490,3167 1490,3167 1490,3167 1494,3166 1498,3173 1449,3745 1449,3745 1448,3753 1448,3753 1437,3880 1437,3884 "/>
   <path class="fil1" d="M3052 3174l-13 -5 -9 -3 -58 -21 -303 -108 2 -4 226 81 130 46 -308 -220 2 -4 320 229 5 3 7 5zm-387 -138l-81 -29c-1,-2 -2,-4 -3,-5l86 31 -2 4zm-164 -59l-98 -35 -1 0 1 -2 2 -1 -2 1 -1 2 -1 0 -152 -203 4 -1 150 200 0 0 103 37c-2,1 -4,1 -6,2zm214 -39l-313 -224 6 -1 309 221 -2 4zm-469 -203l-211 -281 -1 -1 -4 -5 -6 -8 8 6 1 0 1 1 2 2 365 261 -6 1 -353 -252 186 248 21 28 -4 1z"/>
   <path class="fil1" d="M2131 2997l-4 -3 -210 -170 0 0 -3 -3 0 0 -30 -24 5 -1 26 21 0 0 3 3 0 0 210 170 46 -239 4 -1 -46 243 -1 4zm-251 -204l-62 -51 0 0 -3 -3 -192 -156 2 -4 193 156 3 3 0 0 65 53 -5 1zm295 -47l3 -17 -193 -119 0 0 -3 -2 0 0 -44 -27 0 0 -3 -2 -140 -87 -5 -3 -97 -60 2 -4 101 62 5 3 137 84 3 2 0 0 43 26 0 0 3 2 0 0 196 121 -4 18 -4 1zm-556 -164l-61 -49 -4 -3 -558 -452 -5 -4 -65 -52 -3 -3 -61 -49 0 0 -4 -3 0 0 -261 -212 1 -2 -1 2 2 -3 254 157 0 0 4 3 0 0 110 68 5 3 0 0 4 2 527 325c3,4 7,8 11,12l-541 -333 -5 -3 -111 -68 0 0 -4 -3 0 0 -230 -142 234 190 0 0 4 4 0 0 65 52 3 3 60 48 5 4 565 458 4 3 57 46 -2 4zm70 -155l-167 -103c5,2 10,4 15,5l153 95 -2 4z"/>
   <path class="fil1" d="M2393 3409l-5 -1 -5 0 -431 -42 -4 0 -160 -16 -4 0 -52 -5 -5 0 0 0 -13 -1 -2 -4 18 2 0 0 5 0 48 5 4 0 163 16 4 0 427 41 -182 -152 -4 -4 -132 -110 -3 -3 -2 -2 -3 -3 -185 -154 0 0 -3 -3 0 0 -136 -114 0 0 -3 -3 -36 -30 5 -1 34 28 3 3 0 0 135 113 0 0 3 3 0 0 187 156 3 3 0 0 3 3 136 113 4 4 183 152 1 1 -1 2 0 -2 0 2 1 -2 2 1 3 3zm-684 -66l-139 -14 -72 -157 -3 -7 -13 -27 -253 -549 -2 -4 -106 -230 0 0 2 -3 250 208 4 3 180 150 -2 4 -184 -153 -4 -3 -240 -200 103 224 2 4 264 573 0 0 1 2 1 1 0 1 0 0 3 6 71 153 135 13 2 4zm-24 -518l-125 -104 2 -4 128 107 -5 1z"/>
   <path class="fil1" d="M2434 3987l-8 0 69 -42 0 5 -61 38zm-535 0l-5 0 -34 -35 -3 -3 -124 -130 -3 -3 -44 -47 75 -16 5 -1 114 -25 2 4 -117 25 -5 1 -65 14 39 41 3 3 125 131 3 3 36 38zm601 -40l0 -5 130 -80c-2,3 -4,5 -5,8l-125 77zm166 -107l238 -147 3 3 -232 143c-3,0 -6,1 -10,1zm-780 -110l-2 -4 30 -6 4 -1 207 -45 7 -2 237 -51 -2 5 -239 52 -7 2 -201 43 -4 1 -30 6zm1025 -36l-3 -3 181 -111 3 3 -181 111zm184 -114l-3 -3 270 -167 -375 81 -4 -3 401 -87 -289 178zm-340 -38l-3 -3 226 -49 4 3 -227 49z"/>
   <path class="fil2" d="M3090 3582l-3 -3 4 -2 3 3 -4 2zm-109 -89l-4 -3 5 -1 4 3 -5 1z"/>
   <path class="fil1" d="M2370 3625l2 -5 123 -26 0 4 -125 27zm129 -28l0 -4 247 -53 3 3 -251 54z"/>
   <path class="fil1" d="M3209 3987l-6 0 -297 -291 -3 -3 -153 -150 -3 -3 -222 -218 2 -4 225 220 3 3 152 149 3 3 299 293zm-709 0l-4 0 0 -608 4 -8 0 616zm-4 -617l0 -82 3 3 1 1 23 23 -2 4 -22 -22 0 65 -4 8z"/>
   <path class="fil1" d="M2186 3987l-4 0 183 -361 2 -5 128 -251 4 -8 22 -43 2 -4 51 -100 2 -4 89 -175 0 0 2 -4 48 -94 2 -4 99 -196 3 2 -100 196 -2 4 -47 93 -2 4 0 0 -88 173 -2 4 -53 104 -2 4 -25 49 -4 8 -123 241 -2 5 -184 362zm-188 0l-4 0 -53 -119 -2 -4 -59 -133 -2 -4 -49 -110 -2 -5 -110 -248 -2 -4 0 0 -8 -17 -2 -4 -39 -89 -2 -6 -83 -188 0 0 -2 -4 0 0 -87 -197 1 0 0 1 4 2 2 -3 185 -30 5 -1 70 -11 6 -1 0 0 114 -18 5 -1 40 -6 0 0 4 -1 0 0 245 -39 4 -1 67 -11 0 0 4 -1 146 -23 6 -1 285 -46 5 3 -286 46 -6 1 -148 24 -4 1 0 0 -71 11 -4 1 -246 39 0 0 -4 1 0 0 -35 6 -5 1 -122 19 0 0 -6 1 -62 10 -5 1 -190 30 84 190 0 0 2 4 0 0 86 194 2 6 38 87 2 4 6 13 2 4 109 247 2 5 50 114 2 4 58 131 2 4 54 122zm823 -1250l-3 -2 8 -16 4 1 -9 17zm10 -20l-4 -1 38 -75 -161 26 -7 -3 163 -26 8 3 1 -4 0 0 3 -1 -42 82z"/>
   <polygon class="fil2" points="2830,2721 2826,2719 2826,2719 "/>
   <path class="fil2" d="M2819 2741l-3 -2 2 -4 3 2 -2 4zm-126 -73l-5 -3 2 0 7 3 -4 1z"/>
   <path class="fil2" d="M2830 2721l-4 -1 2 -4 4 1 -2 4zm-133 -54l-7 -3 8 -1 7 3 -8 1z"/>
   <path class="fil1" d="M1498 2858l-4 -2 0 -1 62 -137 2 -4 60 -132 2 -4 28 -61 2 -4 39 -86 2 -4 64 -140 548 172c-1,1 -3,2 -4,3l-541 -170 -62 137 -2 4 -38 83 -2 4 -29 64 -2 4 -60 132 -2 4 -61 133 -2 3zm1371 -218l-8 -3 -15 -5 9 -1 15 5 0 0 -1 4zm-32 -10l-67 -21 5 -3 71 22 -9 1zm-72 -23l-38 -12 2 -3 41 13 -5 3zm-42 -13l-70 -22 -2 -5 74 23 -2 3zm-75 -24l-270 -85c-1,-2 -1,-3 -2,-5l270 85 2 5z"/>
   <polygon class="fil2" points="2846,2632 2837,2630 2846,2628 2854,2631 "/>
   <polygon class="fil2" points="2723,2594 2723,2594 2725,2590 2725,2590 "/>
   <path class="fil2" d="M2727 2595l-4 -1 2 -3 4 1 -2 3zm-74 -23l-5 -1 -2 -5 5 1 2 5z"/>
   <polygon class="fil2" points="2771,2609 2766,2607 2770,2604 2775,2606 "/>
   <path class="fil1" d="M233 1780l-3 -2 7 -24 0 0 1 -4 33 -110 3 3 -32 109 -1 4 0 0 -7 25zm138 -464l-4 0 18 -61 1 -4 -8 5 -91 60 -7 0 107 -71 1 -1 4 -3 -1 3 -1 4 -20 68z"/>
   <path class="fil1" d="M148 2066l-148 -44 0 -4 145 43 15 -50 2 -7 66 -223 3 2 -68 227 -2 7 -14 46 -1 2zm-1 -2l0 0 1 -2 -1 2zm129 -425l-3 -3 28 -95 1 -5 64 -215 4 0 -63 213 -1 5 -30 100zm-208 -175l-3 -3 84 -56 3 2 -84 56zm159 -106l-1 -4 50 -33 7 0 -56 37z"/>
   <path class="fil1" d="M0 1507l0 -5 60 -40 3 3 -63 42zm154 -102l-3 -2 6 -4 3 3 -6 4zm9 -6l-3 -3 61 -40 1 4 -59 39z"/>
   <path class="fil1" d="M0 1603l0 -4 140 -68 3 3 -8 4 -136 66zm148 -72l-3 -3 8 -4 90 -43 12 -2 0 0 -106 51zm-40 -34l0 0 72 -11 6 -1 63 -9 0 0 -141 21zm150 -20l-2 -2 0 -1 11 -2 -9 4z"/>
   <polygon class="fil1" points="0,1513 0,1513 102,1498 102,1498 "/>
   <polygon class="fil1" points="102,1498 102,1498 63,1465 60,1463 0,1412 0,1407 63,1460 67,1463 107,1497 107,1497 "/>
   <polygon class="fil1" points="1122,2356 1122,2356 1055,2313 1050,2310 988,2270 988,2270 980,2265 935,2236 930,2233 808,2154 804,2152 232,1784 228,1781 44,1663 39,1660 35,1657 33,1656 0,1635 0,1630 35,1652 36,1653 39,1655 41,1656 42,1657 229,1777 233,1780 807,2149 810,2151 927,2226 933,2230 976,2258 983,2262 983,2262 1049,2304 1054,2307 1098,2336 1051,2296 1046,2292 959,2219 959,2219 950,2211 915,2182 909,2177 835,2115 832,2112 646,1956 646,1956 634,1945 634,1945 274,1642 270,1640 203,1583 200,1580 144,1533 144,1533 140,1530 106,1501 112,1501 144,1528 144,1528 148,1531 204,1578 207,1581 272,1635 275,1638 649,1953 649,1953 661,1963 661,1963 834,2109 837,2111 906,2169 912,2174 944,2201 953,2209 953,2209 1044,2285 1049,2290 1124,2353 1124,2353 "/>
   <path class="fil1" d="M212 1320l-142 0 -5 -4 146 0 1 4zm-148 0l-29 0 -6 -4 30 0 5 4zm46 -466l158 -334 4 0 -157 331 -6 2zm461 -203l-45 -133 4 0 45 131 -4 2z"/>
   <polygon class="fil1" points="0,1093 0,1084 99,876 101,882 "/>
   <path class="fil1" d="M803 1320l-5 0 -8 0 -575 0 -1 -4 582 0 0 -1 -82 -238c1,0 2,0 3,1 1,0 1,0 2,0l81 236 2 6zm-776 0l-27 0 0 -4 22 0 6 4zm675 -283l-131 -382 4 -2 130 380c-1,1 -2,2 -3,3zm-599 -161l-2 -6 5 -10 6 -2 -9 19zm166 -359l143 -301 8 -8 2 0 0 -2 0 0 105 308 -4 0 -104 -303 -145 306 -4 0z"/>
   <polygon class="fil1" points="37,614 36,610 118,522 123,522 "/>
   <path class="fil1" d="M0 653l0 -6 32 -34 1 5 -34 36zm122 -135l294 -311 5 1 -8 8 -285 302 -6 0zm300 -312l0 -2 2 0 -2 2 0 0z"/>
   <polygon class="fil1" points="117,171 0,158 0,158 "/>
   <path class="fil1" d="M422 208l-2 0 -5 -1 -415 -45 0 -4 117 13 300 33 -31 -203 4 0 31 204 0 2 0 2zm-422 -205l0 -2 8 0 -8 2z"/>
   <path class="fil1" d="M31 893c-1,-1 -2,-2 -3,-3l68 -30 1 4 -66 29zm69 -31l-1 -4 10 -5 6 -2 455 -201 4 -2 305 -135 -350 4 -4 0 -252 3 -4 0 -144 1 -6 0 -104 1 -1 -4 109 -1 6 0 142 -1 4 0 249 -3 4 0 361 -4 10 0 -323 143 -4 2 -459 203 -6 2 -7 3z"/>
   <polygon class="fil1" points="0,524 0,520 9,519 10,523 "/>
   <polygon class="fil1" points="257,1483 254,1480 253,1479 257,1479 "/>
   <polygon class="fil1" points="256,1476 217,1449 214,1446 160,1401 157,1398 64,1320 59,1316 0,1266 0,1261 65,1316 70,1320 160,1396 163,1399 217,1443 220,1446 251,1472 238,1424 237,1420 222,1360 221,1356 212,1320 211,1316 101,882 99,876 96,864 95,861 34,618 32,613 10,523 9,519 2,494 0,494 0,490 5,491 13,519 14,523 36,610 37,614 99,859 100,863 102,870 103,876 215,1316 216,1320 225,1353 226,1357 240,1416 242,1421 256,1475 "/>
   <polygon class="fil1" points="0,1517 0,1513 102,1498 107,1497 249,1476 215,1452 211,1450 151,1407 147,1405 27,1320 22,1316 0,1301 0,1296 29,1316 34,1320 151,1402 154,1405 214,1447 217,1449 256,1476 258,1478 259,1479 257,1479 253,1479 241,1481 182,1490 176,1491 112,1501 106,1501 "/>
   <path class="fil3" d="M2863 3413c0,-13 11,-23 23,-23 13,0 23,10 23,23 0,13 -10,23 -23,23 -13,0 -23,-11 -23,-23z"/>
   <path class="fil3" d="M4005 3223c0,-18 14,-32 32,-32 18,0 32,14 32,32 0,18 -14,32 -32,32 -18,0 -32,-14 -32,-32z"/>
   <path class="fil3" d="M3633 3220c0,-14 11,-25 25,-25 14,0 25,11 25,25 0,14 -11,25 -25,25 -14,0 -25,-11 -25,-25z"/>
   <path class="fil3" d="M3743 3097c0,-14 11,-25 25,-25 14,0 25,11 25,25 0,14 -11,25 -25,25 -14,0 -25,-11 -25,-25z"/>
   <path class="fil3" d="M3804 3257c0,-22 18,-39 39,-39 22,0 39,18 39,39 0,22 -18,39 -39,39 -22,0 -39,-18 -39,-39z"/>
   <path class="fil3" d="M3431 3881c0,-13 11,-23 23,-23 13,0 23,10 23,23 0,13 -10,23 -23,23 -13,0 -23,-11 -23,-23z"/>
   <path class="fil3" d="M5619 3340c0,-17 14,-31 31,-31 17,0 31,14 31,31 0,17 -14,31 -31,31 -17,0 -31,-14 -31,-31z"/>
   <path class="fil3" d="M3742 2787c0,-14 12,-26 26,-26 14,0 26,12 26,26 0,14 -12,26 -26,26 -14,0 -26,-12 -26,-26z"/>
   <path class="fil3" d="M5297 3097c0,-14 12,-26 26,-26 14,0 26,12 26,26 0,14 -12,26 -26,26 -14,0 -26,-12 -26,-26z"/>
   <path class="fil3" d="M4641 2874c0,-16 13,-29 29,-29 16,0 29,13 29,29 0,16 -13,29 -29,29 -16,0 -29,-13 -29,-29z"/>
   <path class="fil3" d="M4374 2924c0,-16 13,-29 29,-29 16,0 29,13 29,29 0,16 -13,29 -29,29 -16,0 -29,-13 -29,-29z"/>
   <path class="fil3" d="M3998 2217c0,-16 13,-29 29,-29 16,0 29,13 29,29 0,16 -13,29 -29,29 -16,0 -29,-13 -29,-29z"/>
   <path class="fil3" d="M4433 2342c0,-16 13,-29 29,-29 16,0 29,13 29,29 0,16 -13,29 -29,29 -16,0 -29,-13 -29,-29z"/>
   <path class="fil3" d="M4422 2679c0,-19 16,-35 35,-35 19,0 35,16 35,35 0,19 -16,35 -35,35 -19,0 -35,-16 -35,-35z"/>
   <path class="fil3" d="M4723 3223c0,-20 16,-36 36,-36 20,0 36,16 36,36 0,20 -16,36 -36,36 -20,0 -36,-16 -36,-36z"/>
   <path class="fil3" d="M2644 2658c0,-20 16,-37 37,-37 20,0 37,16 37,37 0,20 -16,37 -37,37 -20,0 -37,-16 -37,-37z"/>
   <path class="fil3" d="M3374 2285c0,-20 16,-37 37,-37 20,0 37,16 37,37 0,20 -16,37 -37,37 -20,0 -37,-16 -37,-37z"/>
   <path class="fil3" d="M2810 1672c0,-26 21,-48 48,-48 26,0 48,21 48,48 0,26 -21,48 -48,48 -26,0 -48,-21 -48,-48z"/>
   <path class="fil3" d="M3047 1248c0,-14 11,-25 25,-25 14,0 25,11 25,25 0,14 -11,25 -25,25 -14,0 -25,-11 -25,-25z"/>
   <path class="fil3" d="M3249 1017c0,-10 8,-18 18,-18 10,0 18,8 18,18 0,10 -8,18 -18,18 -10,0 -18,-8 -18,-18z"/>
   <path class="fil3" d="M2643 1173c0,-12 10,-21 21,-21 12,0 21,10 21,21 0,12 -10,21 -21,21 -12,0 -21,-10 -21,-21z"/>
   <path class="fil3" d="M2283 1583c0,-15 12,-27 27,-27 15,0 27,12 27,27 0,15 -12,27 -27,27 -15,0 -27,-12 -27,-27z"/>
   <path class="fil3" d="M2136 1248c0,-15 12,-27 27,-27 15,0 27,12 27,27 0,15 -12,27 -27,27 -15,0 -27,-12 -27,-27z"/>
   <path class="fil3" d="M2664 136c0,-15 12,-27 27,-27 15,0 27,12 27,27 0,15 -12,27 -27,27 -15,0 -27,-12 -27,-27z"/>
   <path class="fil3" d="M1839 36c0,-16 10,-30 25,-36l29 0c14,6 25,20 25,36 0,21 -17,39 -39,39 -21,0 -39,-17 -39,-39z"/>
   <path class="fil3" d="M1211 335c0,-21 17,-39 39,-39 21,0 39,17 39,39 0,21 -17,39 -39,39 -21,0 -39,-17 -39,-39z"/>
   <path class="fil3" d="M2225 417c0,-25 20,-45 45,-45 25,0 45,20 45,45 0,25 -20,45 -45,45 -25,0 -45,-20 -45,-45z"/>
   <path class="fil3" d="M3133 443c0,-15 12,-27 27,-27 15,0 27,12 27,27 0,15 -12,27 -27,27 -15,0 -27,-12 -27,-27z"/>
   <path class="fil3" d="M2089 1463c0,-17 14,-31 31,-31 17,0 31,14 31,31 0,17 -14,31 -31,31 -17,0 -31,-14 -31,-31z"/>
   <path class="fil3" d="M3800 1439c0,-19 15,-34 34,-34 19,0 34,15 34,34 0,19 -15,34 -34,34 -19,0 -34,-15 -34,-34z"/>
   <path class="fil3" d="M3244 2320c0,-11 9,-19 19,-19 11,0 19,9 19,19 0,11 -9,19 -19,19 -11,0 -19,-9 -19,-19z"/>
   <path class="fil3" d="M3023 2450c0,-11 9,-19 19,-19 11,0 19,9 19,19 0,11 -9,19 -19,19 -11,0 -19,-9 -19,-19z"/>
   <path class="fil3" d="M1830 1017c0,-16 13,-28 30,-28 16,0 30,13 30,28 0,16 -13,28 -30,28 -16,0 -30,-13 -30,-28z"/>
   <path class="fil0" d="M3178 1162c-1,0 -3,0 -4,0 -7,-1 -13,-6 -17,-12l28 -34c11,4 17,15 15,26 -2,11 -12,20 -23,20zm-22 -16c-1,-3 -1,-7 -1,-11 2,-11 12,-20 23,-20 1,0 2,0 4,0l-26 31z"/>
   <path class="fil4" d="M3157 1150c-1,-1 -1,-3 -2,-4l26 -31c0,0 0,0 0,0 1,0 3,1 4,1l-28 34z"/>
   <path class="fil0" d="M2011 1170c-2,0 -3,0 -5,0 -17,-3 -29,-19 -26,-37 3,-16 16,-27 32,-27 2,0 3,0 5,0 17,3 29,19 26,37 -3,16 -16,27 -32,27z"/>
   <path class="fil0" d="M2386 1228c-1,0 -3,0 -4,0 -13,-2 -23,-15 -20,-28 2,-12 12,-21 24,-21 1,0 3,0 4,0 13,2 23,15 20,28 -2,12 -12,21 -24,21z"/>
   <path class="fil0" d="M2256 1331c-1,0 -3,0 -4,0 -11,-2 -20,-11 -21,-22l27 22c-1,0 -1,0 -2,0zm7 -1l-32 -27c0,0 0,-1 0,-1 2,-12 12,-21 24,-21 1,0 3,0 4,0 13,2 23,15 20,28 -2,10 -9,17 -17,20z"/>
   <path class="fil4" d="M2258 1331l-27 -22c0,-2 0,-3 0,-5l32 27c-2,0 -3,1 -5,1z"/>
   <path class="fil0" d="M2209 1175c-2,0 -4,0 -6,-1 -1,0 -1,0 -2,0l13 -27 21 18c-7,6 -16,10 -26,10zm-12 -2l-20 -14c-6,-8 -8,-18 -7,-29 1,-5 3,-10 5,-14l35 29 -13 28zm41 -10l-22 -19 18 -38c11,9 16,22 14,37 -1,8 -5,15 -10,20zm-26 -22l-34 -29c7,-9 19,-15 31,-15 2,0 4,0 6,1 5,1 11,3 15,6l-18 38z"/>
   <path class="fil4" d="M2200 1174c-1,0 -1,0 -2,-1l-2 -1 13 -28 3 3 -13 27zm15 -31l-3 -3 18 -38c1,1 2,2 3,2l-18 38z"/>
   <path class="fil4" d="M2235 1165l-21 -18 -3 -3 -35 -29c1,-1 1,-2 2,-3l34 29 3 3 22 19c-1,1 -2,2 -3,3z"/>
   <path class="fil4" d="M2198 1174c-9,-2 -17,-8 -22,-15l20 14 2 1z"/>
   <path class="fil0" d="M2715 594c-8,-13 -20,-23 -35,-29 4,-3 8,-4 13,-4 1,0 3,0 4,0 13,2 21,14 19,27 0,2 -1,4 -2,6z"/>
   <path class="fil0" d="M1844 218c-1,0 -2,0 -3,0 -11,-2 -19,-12 -17,-24 2,-10 10,-17 20,-17 1,0 2,0 3,0 11,2 19,12 17,24 -2,10 -10,17 -20,17z"/>
   <path class="fil0" d="M440 791c-2,0 -3,0 -5,0 -17,-3 -28,-19 -25,-35 2,-15 16,-26 30,-26 2,0 3,0 5,0 17,3 28,19 25,35 -2,15 -16,26 -30,26z"/>
   <path class="fil0" d="M2206 1638c-1,0 -3,0 -4,0 -14,-2 -24,-16 -21,-30 2,-13 13,-22 25,-22 1,0 3,0 4,0 14,2 24,16 21,30 -2,13 -13,22 -25,22z"/>
   <path class="fil0" d="M722 1078c-1,0 -2,0 -2,0l-15 -45c5,-4 11,-7 17,-7 1,0 3,0 4,0 14,2 24,16 21,30 -2,13 -13,22 -25,22zm-7 -1c-13,-3 -21,-16 -19,-29 1,-4 2,-8 5,-11l14 40z"/>
   <path class="fil2" d="M720 1078c-1,0 -1,0 -2,0 -1,0 -2,0 -3,-1l-14 -40c1,-1 2,-2 3,-3l15 45z"/>
   <path class="fil0" d="M1330 1409c-2,0 -3,0 -5,0 -16,-3 -27,-18 -24,-34 2,-14 15,-24 29,-24 2,0 3,0 5,0 16,3 27,18 24,34 -2,14 -15,24 -29,24z"/>
   <path class="fil0" d="M1601 1403c-2,0 -3,0 -5,0 -3,-1 -6,-2 -9,-3l-14 -34c4,-13 15,-21 28,-21 2,0 3,0 5,0 16,3 27,18 24,34 -2,14 -15,24 -29,24zm-20 -8c-6,-6 -10,-14 -9,-22l9 22z"/>
   <path class="fil4" d="M1588 1399c-2,-1 -4,-3 -6,-4l-9 -22c0,-1 0,-3 0,-4 0,-1 0,-2 1,-3l14 34z"/>
   <path class="fil0" d="M1857 2162c-2,0 -3,0 -5,0 -16,-3 -27,-18 -24,-34 2,-14 15,-24 29,-24 2,0 3,0 5,0 16,3 27,18 24,34 -2,14 -15,24 -29,24z"/>
   <path class="fil0" d="M1448 1967c-2,0 -3,0 -5,0 -16,-3 -27,-18 -24,-34 2,-14 15,-24 29,-24 2,0 3,0 5,0 16,3 27,18 24,34 -2,14 -15,24 -29,24z"/>
   <path class="fil0" d="M1508 1641c-2,0 -4,0 -6,0 -19,-3 -32,-21 -29,-40 0,-2 1,-5 2,-7l28 -22c1,0 3,0 4,0 2,0 4,0 6,0 19,3 32,21 29,40 -3,17 -18,29 -34,29zm-27 -57c3,-4 7,-7 12,-9l-12 9z"/>
   <path class="fil2" d="M1476 1594c1,-3 3,-7 6,-9l12 -9c3,-2 7,-3 10,-3l-28 22z"/>
   <path class="fil0" d="M1299 1056c-2,0 -4,0 -6,0 -19,-3 -33,-22 -29,-41 3,-17 18,-30 35,-30 2,0 4,0 6,0 19,3 33,22 29,41 -3,17 -18,30 -35,30z"/>
   <path class="fil0" d="M3258 1953c-1,0 -3,0 -4,0l-9 -37 41 25c-7,7 -17,12 -27,12zm-9 -1c-12,-3 -21,-11 -25,-21l17 -13 9 34zm38 -14l-41 -25 33 -26c10,8 16,21 14,35 -1,6 -3,11 -7,16zm-65 -11c-2,-5 -2,-11 -1,-16 0,-2 1,-5 2,-7l16 10 0 1 -17 13zm21 -16l0 0 -6 -24c6,-4 13,-7 21,-7 2,0 4,0 6,0 5,1 9,2 13,5l-33 26zm-5 -3l-13 -8c2,-4 5,-8 8,-11l5 18z"/>
   <path class="fil4" d="M3224 1931c-1,-1 -1,-3 -1,-4l17 -13 1 4 -17 13zm23 -18l-4 -2 33 -26c1,1 2,2 3,2l-33 26z"/>
   <path class="fil4" d="M3253 1953c-1,0 -1,0 -2,0 -1,0 -2,0 -2,0l-9 -34 -1 -4 0 -1 5 3 9 37zm-11 -42l-5 -3 -5 -18c1,-1 2,-2 3,-3l6 24z"/>
   <path class="fil4" d="M3285 1941l-41 -25 -5 -3 -16 -10c0,-1 1,-2 2,-4l13 8 5 3 0 0 4 2 41 25c-1,1 -2,2 -3,3z"/>
   <path class="fil0" d="M2248 2374c-2,0 -4,0 -6,0 -20,-3 -34,-22 -30,-42 3,-18 19,-31 36,-31 2,0 4,0 6,0 20,3 34,22 30,42 -3,18 -19,31 -36,31z"/>
   <path class="fil0" d="M2922 2909c-3,0 -5,0 -8,-1 -26,-4 -44,-29 -39,-55 4,-23 24,-40 47,-40 3,0 5,0 8,1 26,4 44,29 39,55 -4,23 -24,40 -47,40z"/>
   <path class="fil0" d="M2641 3269c-1,0 -3,0 -4,0 -14,-2 -23,-15 -21,-29 2,-12 13,-21 25,-21 1,0 3,0 4,0 14,2 23,15 21,29 -2,12 -13,21 -25,21z"/>
   <path class="fil0" d="M2411 3459c-1,0 -2,0 -3,0 -10,-2 -17,-11 -15,-21 1,-9 9,-15 18,-15 1,0 2,0 3,0 10,2 17,11 15,21 -1,9 -9,15 -18,15z"/>
   <path class="fil0" d="M3031 3406c-1,0 -2,0 -3,0 -12,-2 -19,-13 -18,-24 1,-5 4,-10 8,-13l13 -5c0,0 0,0 0,0 1,0 2,0 3,0 12,2 19,13 18,24 -2,10 -11,18 -21,18z"/>
   <path class="fil4" d="M3018 3368c4,-3 8,-4 13,-5l-13 5z"/>
   <path class="fil0" d="M3447 3065c-1,0 -3,0 -4,0 -15,-2 -25,-16 -22,-31 2,-13 14,-23 27,-23 1,0 3,0 4,0 15,2 25,16 22,31 -2,13 -14,23 -27,23z"/>
   <path class="fil0" d="M3538 3420c-1,0 -3,0 -4,0 -15,-2 -25,-16 -22,-31 2,-13 14,-23 27,-23 1,0 3,0 4,0 15,2 25,16 22,31 -2,13 -14,23 -27,23z"/>
   <path class="fil0" d="M3133 3222c-2,0 -3,0 -5,0 -17,-3 -29,-19 -26,-36 3,-15 16,-26 31,-26 2,0 3,0 5,0 17,3 29,19 26,36 -3,15 -16,26 -31,26z"/>
   <path class="fil0" d="M1920 2966c-2,0 -4,0 -6,0 -19,-3 -31,-21 -28,-39 3,-17 17,-28 33,-28 2,0 4,0 6,0 19,3 31,21 28,39 -3,17 -17,28 -33,28z"/>
   <path class="fil0" d="M2627 2174c-1,0 -2,0 -3,0 -11,-2 -18,-12 -16,-22 2,-10 10,-16 19,-16 1,0 2,0 3,0 11,2 18,12 16,22 -2,10 -10,16 -19,16z"/>
   <path class="fil0" d="M2867 2083c-1,0 -2,0 -3,0 -11,-2 -18,-12 -16,-22 2,-10 10,-16 19,-16 1,0 2,0 3,0 11,2 18,12 16,22 -2,10 -10,16 -19,16z"/>
   <path class="fil0" d="M3800 3699c-2,0 -3,0 -5,0 -16,-3 -27,-17 -25,-33 2,-14 15,-24 29,-24 2,0 3,0 5,0 16,3 27,17 25,33 -2,14 -15,23 -29,23z"/>
   <path class="fil3" d="M3608 3782l5 0c0,-10 4,-19 10,-25 6,-6 15,-10 25,-10 10,0 19,4 25,10 6,6 10,15 10,25 0,10 -4,19 -10,25 -6,6 -15,10 -25,10 -10,0 -19,-4 -25,-10 -6,-6 -10,-15 -10,-25l-10 0c0,25 20,46 46,46 25,0 46,-20 46,-46 0,-25 -20,-46 -46,-46 -25,0 -46,20 -46,46l5 0z"/>
   <path class="fil3" d="M3649 3756c14,0 26,12 26,26 0,14 -12,26 -26,26 -14,0 -26,-12 -26,-26 0,-14 12,-26 26,-26z"/>
   <path class="fil3" d="M3329 3223l5 0c0,-10 4,-19 10,-25 6,-6 15,-10 25,-10 10,0 19,4 25,10 6,6 10,15 10,25 0,10 -4,19 -10,25 -6,6 -15,10 -25,10 -10,0 -19,-4 -25,-10 -6,-6 -10,-15 -10,-25l-10 0c0,25 20,46 46,46 25,0 46,-20 46,-46 0,-25 -20,-46 -46,-46 -25,0 -46,20 -46,46l5 0z"/>
   <path class="fil3" d="M3370 3197c14,0 26,12 26,26 0,14 -12,26 -26,26 -14,0 -26,-12 -26,-26 0,-14 12,-26 26,-26z"/>
   <path class="fil3" d="M3387 3955l4 0c0,-7 3,-13 7,-18 5,-5 11,-7 18,-7 7,0 13,3 18,7 5,5 7,11 7,18 0,7 -3,13 -7,18 -5,5 -11,7 -18,7 -7,0 -13,-3 -18,-7 -5,-5 -7,-11 -7,-18l-7 0c0,18 14,32 32,32 18,0 32,-14 32,-32 0,-18 -14,-32 -32,-32 -18,0 -32,14 -32,32l3 0z"/>
   <path class="fil3" d="M3416 3936c10,0 18,8 18,18 0,10 -8,18 -18,18 -10,0 -18,-8 -18,-18 0,-10 8,-18 18,-18z"/>
   <path class="fil3" d="M5101 2565l5 0c0,-10 4,-19 10,-25 6,-6 15,-10 25,-10 10,0 19,4 25,10 6,6 10,15 10,25 0,10 -4,19 -10,25 -6,6 -15,10 -25,10 -10,0 -19,-4 -25,-10 -6,-7 -10,-15 -10,-25l-10 0c0,25 21,46 46,46 25,0 46,-20 46,-46 0,-25 -20,-46 -46,-46 -25,0 -46,20 -46,46l5 0z"/>
   <path class="fil3" d="M5141 2539c14,0 26,12 26,26 0,14 -12,26 -26,26 -14,0 -26,-12 -26,-26 0,-14 12,-26 26,-26z"/>
   <path class="fil3" d="M3933 2358l4 0c0,-8 3,-15 8,-20 5,-5 12,-8 20,-8 8,0 15,3 20,8 5,5 8,12 8,20 0,8 -3,15 -8,20 -5,5 -12,8 -20,8 -8,0 -15,-3 -20,-8 -5,-5 -8,-12 -8,-20l-8 0c0,20 16,36 36,36 20,0 36,-16 36,-36 0,-20 -16,-36 -36,-36 -20,0 -36,16 -36,36l4 0z"/>
   <path class="fil3" d="M3965 2337c11,0 21,9 21,21 0,11 -9,21 -21,21 -11,0 -21,-9 -21,-21 0,-11 9,-21 21,-21z"/>
   <path class="fil3" d="M2482 2174l4 0c0,-7 3,-14 8,-19 5,-5 12,-8 19,-8 7,0 14,3 19,8 5,5 8,12 8,19 0,7 -3,14 -8,19 -5,5 -12,8 -19,8 -7,0 -14,-3 -19,-8 -5,-5 -8,-12 -8,-19l-7 0c0,19 15,34 34,34 19,0 34,-15 34,-34 0,-19 -15,-34 -34,-34 -19,0 -34,15 -34,34l4 0z"/>
   <path class="fil3" d="M2513 2154c11,0 20,9 20,20 0,11 -9,20 -20,20 -11,0 -20,-9 -20,-20 0,-11 9,-20 20,-20z"/>
   <path class="fil3" d="M1583 1524l6 0c0,-11 5,-22 12,-29 8,-8 18,-12 29,-12 11,0 22,5 29,12 8,8 12,18 12,29 0,11 -5,22 -12,29 -8,8 -18,12 -29,12 -11,0 -22,-5 -29,-12 -8,-8 -12,-18 -12,-29l-11 0c0,29 24,53 53,53 29,0 53,-24 53,-53 0,-29 -24,-53 -53,-53 -29,0 -53,24 -53,53l6 0z"/>
   <path class="fil3" d="M1630 1494c17,0 30,13 30,30 0,17 -13,30 -30,30 -17,0 -30,-13 -30,-30 0,-17 13,-30 30,-30z"/>
   <path class="fil3" d="M2489 1407l5 0c0,-9 4,-17 10,-23 6,-6 14,-10 23,-10 9,0 17,4 23,10 6,6 10,14 10,23 0,9 -4,17 -10,23 -6,6 -14,10 -23,10 -9,0 -17,-4 -23,-10 -6,-6 -10,-14 -10,-23l-9 0c0,23 19,42 42,42 23,0 42,-19 42,-42 0,-23 -19,-42 -42,-42 -23,0 -42,19 -42,42l5 0z"/>
   <path class="fil3" d="M2526 1384c13,0 24,11 24,24 0,13 -11,24 -24,24 -13,0 -24,-11 -24,-24 0,-13 11,-24 24,-24z"/>
   <path class="fil3" d="M1149 462l5 0c0,-9 4,-17 10,-23 6,-6 14,-10 23,-10 9,0 17,4 23,10 6,6 10,14 10,23 0,9 -4,17 -10,23 -6,6 -14,10 -23,10 -9,0 -17,-4 -23,-10 -6,-6 -10,-14 -10,-23l-9 0c0,23 19,42 42,42 23,0 42,-19 42,-42 0,-23 -19,-42 -42,-42 -23,0 -42,19 -42,42l5 0z"/>
   <path class="fil3" d="M1186 438c13,0 24,11 24,24 0,13 -11,24 -24,24 -13,0 -24,-11 -24,-24 0,-13 11,-24 24,-24z"/>
   <path class="fil5" d="M4364 389c-19,-4 -32,-21 -33,-41 0,-23 19,-42 42,-42 0,0 0,0 0,0 23,0 42,19 42,42 0,15 -8,28 -19,36l-32 6z"/>
   <path class="fil6" d="M4374 390c-3,0 -7,0 -10,-1l32 -6c-7,4 -14,7 -23,7 0,0 0,0 0,0z"/>
   <path class="fil5" d="M2306 751c-32,0 -58,-26 -58,-57 0,-32 26,-58 58,-58 0,0 0,0 0,0 8,0 16,2 23,5l22 88c-11,13 -27,22 -45,22 0,0 0,0 0,0zm48 -26l-21 -82c18,10 30,29 30,50 0,12 -3,22 -9,31z"/>
   <path class="fil7" d="M2352 729l-22 -88c2,1 3,1 5,2l21 82c-1,1 -2,3 -3,4z"/>
   <path class="fil5" d="M2989 742c-25,0 -44,-20 -44,-44 0,-25 20,-45 44,-45 0,0 0,0 0,0 25,0 44,20 44,44 0,25 -20,45 -44,45 0,0 0,0 0,0z"/>
   <path class="fil5" d="M2790 963c-25,0 -44,-20 -44,-44 0,-25 20,-45 44,-45 0,0 0,0 0,0 25,0 44,20 44,44 0,25 -20,45 -44,45 0,0 0,0 0,0z"/>
   <path class="fil5" d="M2655 701c-16,0 -31,-5 -43,-15l113 -50c-3,36 -33,64 -70,65 0,0 0,0 0,0zm-46 -17c-15,-13 -24,-32 -24,-53 0,-39 31,-71 70,-71 0,0 0,0 0,0 9,0 17,2 25,5 -5,3 -9,9 -10,15 -2,13 7,25 19,27 1,0 3,0 4,0 9,0 18,-6 21,-14 7,11 11,23 11,37 0,1 0,1 0,2l-117 52z"/>
   <path class="fil7" d="M2612 687c-1,-1 -2,-2 -3,-3l117 -52c0,1 0,3 0,4l-113 50z"/>
   <path class="fil7" d="M2693 608c-1,0 -3,0 -4,0 -13,-2 -21,-14 -19,-27 1,-7 5,-12 10,-15 15,6 27,16 35,29 -4,8 -12,14 -21,14z"/>
   <path class="fil5" d="M2791 1522c-26,0 -46,-21 -46,-46 0,-26 21,-46 46,-46 0,0 0,0 0,0 26,0 46,21 46,46 0,26 -21,46 -46,46 0,0 0,0 0,0z"/>
   <path class="fil5" d="M0 970l0 -63 31 -14c7,8 11,19 11,30 0,24 -18,44 -42,46zm0 -67l0 -25c11,1 20,6 28,13l-28 12z"/>
   <path class="fil6" d="M0 907l0 -4 28 -12c1,1 2,2 3,3l-31 14z"/>
   <path class="fil5" d="M1169 1376c-29,0 -52,-23 -53,-52 0,-29 23,-53 52,-53 0,0 0,0 0,0 29,0 52,23 53,52 0,29 -23,53 -52,53 0,0 0,0 0,0z"/>
   <path class="fil5" d="M1649 1285c-29,0 -52,-23 -53,-52 0,-29 23,-53 52,-53 0,0 0,0 0,0 29,0 52,23 53,52 0,29 -23,53 -52,53 0,0 0,0 0,0z"/>
   <path class="fil5" d="M2328 2554c-29,0 -52,-23 -53,-52 0,-17 8,-33 21,-42l81 25c2,5 3,11 3,17 0,29 -23,53 -52,53 0,0 0,0 0,0zm48 -74l-75 -24c8,-5 17,-7 27,-7 0,0 0,0 0,0 21,0 40,13 48,31z"/>
   <path class="fil6" d="M2378 2485l-81 -25c1,-1 3,-2 4,-3l75 24c1,2 1,3 2,5z"/>
   <path class="fil5" d="M1545 2330c-3,0 -5,0 -8,-1l-35 -22c-6,-9 -10,-19 -10,-30 0,-29 23,-53 52,-53 0,0 0,0 0,0 29,0 52,23 53,52 0,29 -23,53 -52,53 0,0 0,0 0,0zm-23 -5c-3,-2 -6,-3 -9,-5l9 5z"/>
   <path class="fil6" d="M1537 2330c-5,-1 -11,-2 -15,-5l-9 -5c-4,-3 -8,-7 -11,-12l35 22z"/>
   <path class="fil5" d="M1073 1829c-34,0 -62,-28 -62,-62 0,-34 28,-62 62,-63 0,0 0,0 0,0 34,0 62,28 62,62 0,34 -28,62 -62,63 0,0 0,0 0,0z"/>
   <path class="fil5" d="M1009 760c-35,0 -64,-29 -64,-64 0,-35 29,-64 64,-64 0,0 0,0 0,0 35,0 64,29 64,64 0,35 -29,64 -64,64 0,0 0,0 0,0z"/>
   <path class="fil5" d="M4746 1769c-14,0 -28,-5 -39,-13l26 -27 17 39c-1,0 -3,0 -5,0 0,0 0,0 0,0zm9 -1l-18 -42 14 -15 19 53c-5,2 -9,3 -14,4zm18 -5l-19 -55 45 -46c9,11 14,25 14,40 0,27 -16,50 -39,60zm-69 -9c-15,-12 -24,-30 -24,-51 0,-19 8,-36 20,-48l31 70 -27 28zm30 -31l-31 -70c6,-5 14,-10 22,-12l24 67 -15 15zm18 -18l-23 -65c5,-1 11,-2 17,-2 0,0 0,0 0,0 20,0 38,9 50,23l-44 45z"/>
   <path class="fil6" d="M4707 1757c-1,-1 -2,-2 -3,-2l27 -28 2 4 -26 27zm29 -30l-2 -4 15 -15 1 4 -14 15zm17 -18l-2 -4 44 -45c1,1 2,2 3,3l-45 46z"/>
   <path class="fil6" d="M4769 1765l-19 -53 -1 -4 -24 -67c1,0 3,-1 4,-1l23 65 2 4 19 55c-1,1 -2,1 -4,2z"/>
   <path class="fil6" d="M4751 1769l-17 -39 -2 -4 -31 -70c1,-1 2,-2 3,-3l31 70 2 4 18 42c-1,0 -3,0 -4,0z"/>
   <path class="fil5" d="M2526 3104c-36,0 -66,-29 -66,-66 0,-27 17,-51 40,-61l84 30c5,9 8,20 8,31 0,36 -29,66 -66,66 0,0 0,0 0,0zm55 -102l-75 -27c6,-2 13,-3 20,-3 0,0 0,0 0,0 23,0 43,12 55,30z"/>
   <polygon class="fil6" points="2584,3007 2500,2977 2500,2977 2584,3007 "/>
   <path class="fil6" d="M2584 3007l-84 -30c2,-1 4,-2 6,-2l75 27c1,2 2,4 3,5z"/>
   <path class="fil5" d="M4431 3563c-47,0 -86,-38 -86,-85 0,-47 38,-86 86,-86 0,0 0,0 0,0 47,0 86,38 86,86 0,1 0,1 0,2l-81 84c-1,0 -3,0 -4,0 0,0 0,0 0,0zm11 -1l75 -77c-4,40 -35,72 -75,77z"/>
   <path class="fil7" d="M4436 3563l81 -84c0,2 0,4 0,6l-75 77c-2,0 -4,0 -6,1z"/>
   <path class="fil5" d="M5415 3684c-27,0 -49,-22 -49,-49 0,-27 22,-49 49,-49 0,0 0,0 0,0 27,0 49,22 49,49 0,27 -22,49 -49,49 0,0 0,0 0,0z"/>
   <path class="fil5" d="M5757 3906c-31,0 -56,-25 -56,-56 0,-31 25,-56 56,-56 0,0 0,0 0,0 31,0 56,25 56,56 0,31 -25,56 -56,56 0,0 0,0 0,0z"/>
   <path class="fil5" d="M2677 3961c-34,0 -61,-27 -61,-61 0,-11 3,-21 8,-30l50 -31c1,0 2,0 3,0 0,0 0,0 0,0 34,0 61,27 61,61 0,34 -27,61 -61,61 0,0 0,0 0,0zm-48 -99c9,-11 21,-19 35,-22l-35 22z"/>
   <path class="fil6" d="M2624 3870c2,-3 3,-5 5,-8l35 -22c3,-1 6,-1 10,-1l-50 31z"/>
   <path class="fil5" d="M3700 2348c-3,0 -5,0 -8,-1l-24 -20c-2,-4 -3,-9 -3,-14 0,-19 16,-35 35,-35 0,0 0,0 0,0 19,0 35,16 35,35 0,19 -16,35 -35,35 0,0 0,0 0,0z"/>
   <path class="fil7" d="M3692 2347c-11,-2 -20,-10 -24,-20l24 20z"/>
   <path class="fil5" d="M4097 2114c-19,0 -35,-16 -35,-35 0,-19 16,-35 35,-35 0,0 0,0 0,0 19,0 35,16 35,35 0,19 -16,35 -35,35 0,0 0,0 0,0z"/>
  </g>
 </g>
</svg>
